%TF.GenerationSoftware,KiCad,Pcbnew,8.0.1*%
%TF.CreationDate,2024-04-23T06:28:50-07:00*%
%TF.ProjectId,OnOffController,4f6e4f66-6643-46f6-9e74-726f6c6c6572,rev?*%
%TF.SameCoordinates,Original*%
%TF.FileFunction,Soldermask,Bot*%
%TF.FilePolarity,Negative*%
%FSLAX46Y46*%
G04 Gerber Fmt 4.6, Leading zero omitted, Abs format (unit mm)*
G04 Created by KiCad (PCBNEW 8.0.1) date 2024-04-23 06:28:50*
%MOMM*%
%LPD*%
G01*
G04 APERTURE LIST*
G04 Aperture macros list*
%AMRoundRect*
0 Rectangle with rounded corners*
0 $1 Rounding radius*
0 $2 $3 $4 $5 $6 $7 $8 $9 X,Y pos of 4 corners*
0 Add a 4 corners polygon primitive as box body*
4,1,4,$2,$3,$4,$5,$6,$7,$8,$9,$2,$3,0*
0 Add four circle primitives for the rounded corners*
1,1,$1+$1,$2,$3*
1,1,$1+$1,$4,$5*
1,1,$1+$1,$6,$7*
1,1,$1+$1,$8,$9*
0 Add four rect primitives between the rounded corners*
20,1,$1+$1,$2,$3,$4,$5,0*
20,1,$1+$1,$4,$5,$6,$7,0*
20,1,$1+$1,$6,$7,$8,$9,0*
20,1,$1+$1,$8,$9,$2,$3,0*%
G04 Aperture macros list end*
%ADD10C,0.010000*%
%ADD11R,1.700000X1.700000*%
%ADD12O,1.700000X1.700000*%
%ADD13C,1.252400*%
%ADD14RoundRect,0.237500X-0.237500X0.250000X-0.237500X-0.250000X0.237500X-0.250000X0.237500X0.250000X0*%
%ADD15RoundRect,0.237500X-0.237500X0.287500X-0.237500X-0.287500X0.237500X-0.287500X0.237500X0.287500X0*%
%ADD16C,1.500000*%
%ADD17RoundRect,0.237500X0.250000X0.237500X-0.250000X0.237500X-0.250000X-0.237500X0.250000X-0.237500X0*%
%ADD18RoundRect,0.237500X0.300000X0.237500X-0.300000X0.237500X-0.300000X-0.237500X0.300000X-0.237500X0*%
%ADD19RoundRect,0.237500X0.237500X-0.300000X0.237500X0.300000X-0.237500X0.300000X-0.237500X-0.300000X0*%
%ADD20RoundRect,0.237500X-0.300000X-0.237500X0.300000X-0.237500X0.300000X0.237500X-0.300000X0.237500X0*%
%ADD21RoundRect,0.237500X0.237500X-0.250000X0.237500X0.250000X-0.237500X0.250000X-0.237500X-0.250000X0*%
%ADD22RoundRect,0.237500X-0.250000X-0.237500X0.250000X-0.237500X0.250000X0.237500X-0.250000X0.237500X0*%
%ADD23R,0.700000X0.250000*%
%ADD24R,1.000000X1.500000*%
G04 APERTURE END LIST*
D10*
%TO.C,J8*%
X166468500Y-73578000D02*
X166499500Y-73580000D01*
X166530500Y-73584000D01*
X166561500Y-73590000D01*
X166592500Y-73598000D01*
X166622500Y-73606000D01*
X166652500Y-73617000D01*
X166681500Y-73629000D01*
X166710500Y-73643000D01*
X166737500Y-73658000D01*
X166764500Y-73674000D01*
X166790500Y-73692000D01*
X166815500Y-73711000D01*
X166839500Y-73732000D01*
X166862500Y-73753000D01*
X166884500Y-73776000D01*
X166904500Y-73800000D01*
X166923500Y-73825000D01*
X166941500Y-73851000D01*
X166958500Y-73878000D01*
X166973500Y-73906000D01*
X166986500Y-73934000D01*
X166998500Y-73964000D01*
X167009500Y-73993000D01*
X167018500Y-74024000D01*
X167025500Y-74054000D01*
X167031500Y-74085000D01*
X167035500Y-74117000D01*
X167038500Y-74148000D01*
X167039500Y-74177000D01*
X167038500Y-74211000D01*
X167035500Y-74243000D01*
X167031500Y-74275000D01*
X167025500Y-74306000D01*
X167018500Y-74337000D01*
X167009500Y-74367000D01*
X166998500Y-74397000D01*
X166986500Y-74427000D01*
X166972500Y-74455000D01*
X166957500Y-74483000D01*
X166940500Y-74510000D01*
X166922500Y-74537000D01*
X166903500Y-74562000D01*
X166882500Y-74586000D01*
X166861500Y-74609000D01*
X166838500Y-74631000D01*
X166813500Y-74652000D01*
X166788500Y-74671000D01*
X166762500Y-74689000D01*
X166735500Y-74706000D01*
X166707500Y-74721000D01*
X166678500Y-74734000D01*
X166649500Y-74747000D01*
X166619500Y-74757000D01*
X166588500Y-74766000D01*
X166557500Y-74774000D01*
X166526500Y-74780000D01*
X166495500Y-74784000D01*
X166463500Y-74786000D01*
X166434500Y-74787000D01*
X166434000Y-74787000D01*
X165543500Y-74787000D01*
X165514500Y-74786000D01*
X165482500Y-74784000D01*
X165451500Y-74780000D01*
X165420500Y-74774000D01*
X165389500Y-74766000D01*
X165358500Y-74757000D01*
X165328500Y-74747000D01*
X165299500Y-74734000D01*
X165270500Y-74721000D01*
X165242500Y-74706000D01*
X165215500Y-74689000D01*
X165189500Y-74671000D01*
X165164500Y-74652000D01*
X165139500Y-74631000D01*
X165116500Y-74609000D01*
X165095500Y-74586000D01*
X165074500Y-74562000D01*
X165055500Y-74537000D01*
X165037500Y-74510000D01*
X165020500Y-74483000D01*
X165005500Y-74455000D01*
X164991500Y-74427000D01*
X164979500Y-74397000D01*
X164968500Y-74367000D01*
X164959500Y-74337000D01*
X164952500Y-74306000D01*
X164946500Y-74275000D01*
X164942500Y-74243000D01*
X164939500Y-74211000D01*
X164938500Y-74177000D01*
X164939500Y-74148000D01*
X164942500Y-74117000D01*
X164946500Y-74085000D01*
X164952500Y-74054000D01*
X164959500Y-74024000D01*
X164968500Y-73993000D01*
X164979500Y-73964000D01*
X164991500Y-73934000D01*
X165004500Y-73906000D01*
X165019500Y-73878000D01*
X165036500Y-73851000D01*
X165054500Y-73825000D01*
X165073500Y-73800000D01*
X165093500Y-73776000D01*
X165115500Y-73753000D01*
X165138500Y-73732000D01*
X165162500Y-73711000D01*
X165187500Y-73692000D01*
X165213500Y-73674000D01*
X165240500Y-73658000D01*
X165267500Y-73643000D01*
X165296500Y-73629000D01*
X165325500Y-73617000D01*
X165355500Y-73606000D01*
X165385500Y-73598000D01*
X165416500Y-73590000D01*
X165447500Y-73584000D01*
X165478500Y-73580000D01*
X165509500Y-73578000D01*
X165543500Y-73577000D01*
X166434500Y-73577000D01*
X166468500Y-73578000D01*
G36*
X166468500Y-73578000D02*
G01*
X166499500Y-73580000D01*
X166530500Y-73584000D01*
X166561500Y-73590000D01*
X166592500Y-73598000D01*
X166622500Y-73606000D01*
X166652500Y-73617000D01*
X166681500Y-73629000D01*
X166710500Y-73643000D01*
X166737500Y-73658000D01*
X166764500Y-73674000D01*
X166790500Y-73692000D01*
X166815500Y-73711000D01*
X166839500Y-73732000D01*
X166862500Y-73753000D01*
X166884500Y-73776000D01*
X166904500Y-73800000D01*
X166923500Y-73825000D01*
X166941500Y-73851000D01*
X166958500Y-73878000D01*
X166973500Y-73906000D01*
X166986500Y-73934000D01*
X166998500Y-73964000D01*
X167009500Y-73993000D01*
X167018500Y-74024000D01*
X167025500Y-74054000D01*
X167031500Y-74085000D01*
X167035500Y-74117000D01*
X167038500Y-74148000D01*
X167039500Y-74177000D01*
X167038500Y-74211000D01*
X167035500Y-74243000D01*
X167031500Y-74275000D01*
X167025500Y-74306000D01*
X167018500Y-74337000D01*
X167009500Y-74367000D01*
X166998500Y-74397000D01*
X166986500Y-74427000D01*
X166972500Y-74455000D01*
X166957500Y-74483000D01*
X166940500Y-74510000D01*
X166922500Y-74537000D01*
X166903500Y-74562000D01*
X166882500Y-74586000D01*
X166861500Y-74609000D01*
X166838500Y-74631000D01*
X166813500Y-74652000D01*
X166788500Y-74671000D01*
X166762500Y-74689000D01*
X166735500Y-74706000D01*
X166707500Y-74721000D01*
X166678500Y-74734000D01*
X166649500Y-74747000D01*
X166619500Y-74757000D01*
X166588500Y-74766000D01*
X166557500Y-74774000D01*
X166526500Y-74780000D01*
X166495500Y-74784000D01*
X166463500Y-74786000D01*
X166434500Y-74787000D01*
X166434000Y-74787000D01*
X165543500Y-74787000D01*
X165514500Y-74786000D01*
X165482500Y-74784000D01*
X165451500Y-74780000D01*
X165420500Y-74774000D01*
X165389500Y-74766000D01*
X165358500Y-74757000D01*
X165328500Y-74747000D01*
X165299500Y-74734000D01*
X165270500Y-74721000D01*
X165242500Y-74706000D01*
X165215500Y-74689000D01*
X165189500Y-74671000D01*
X165164500Y-74652000D01*
X165139500Y-74631000D01*
X165116500Y-74609000D01*
X165095500Y-74586000D01*
X165074500Y-74562000D01*
X165055500Y-74537000D01*
X165037500Y-74510000D01*
X165020500Y-74483000D01*
X165005500Y-74455000D01*
X164991500Y-74427000D01*
X164979500Y-74397000D01*
X164968500Y-74367000D01*
X164959500Y-74337000D01*
X164952500Y-74306000D01*
X164946500Y-74275000D01*
X164942500Y-74243000D01*
X164939500Y-74211000D01*
X164938500Y-74177000D01*
X164939500Y-74148000D01*
X164942500Y-74117000D01*
X164946500Y-74085000D01*
X164952500Y-74054000D01*
X164959500Y-74024000D01*
X164968500Y-73993000D01*
X164979500Y-73964000D01*
X164991500Y-73934000D01*
X165004500Y-73906000D01*
X165019500Y-73878000D01*
X165036500Y-73851000D01*
X165054500Y-73825000D01*
X165073500Y-73800000D01*
X165093500Y-73776000D01*
X165115500Y-73753000D01*
X165138500Y-73732000D01*
X165162500Y-73711000D01*
X165187500Y-73692000D01*
X165213500Y-73674000D01*
X165240500Y-73658000D01*
X165267500Y-73643000D01*
X165296500Y-73629000D01*
X165325500Y-73617000D01*
X165355500Y-73606000D01*
X165385500Y-73598000D01*
X165416500Y-73590000D01*
X165447500Y-73584000D01*
X165478500Y-73580000D01*
X165509500Y-73578000D01*
X165543500Y-73577000D01*
X166434500Y-73577000D01*
X166468500Y-73578000D01*
G37*
X166463500Y-81918000D02*
X166495500Y-81920000D01*
X166526500Y-81924000D01*
X166557500Y-81930000D01*
X166588500Y-81938000D01*
X166619500Y-81947000D01*
X166649500Y-81957000D01*
X166678500Y-81970000D01*
X166707500Y-81983000D01*
X166735500Y-81998000D01*
X166762500Y-82015000D01*
X166788500Y-82033000D01*
X166813500Y-82052000D01*
X166838500Y-82073000D01*
X166861500Y-82095000D01*
X166882500Y-82118000D01*
X166903500Y-82142000D01*
X166922500Y-82167000D01*
X166940500Y-82194000D01*
X166957500Y-82221000D01*
X166972500Y-82249000D01*
X166986500Y-82277000D01*
X166998500Y-82307000D01*
X167009500Y-82337000D01*
X167018500Y-82367000D01*
X167025500Y-82398000D01*
X167031500Y-82429000D01*
X167035500Y-82461000D01*
X167038500Y-82493000D01*
X167039500Y-82527000D01*
X167038500Y-82556000D01*
X167035500Y-82587000D01*
X167031500Y-82619000D01*
X167025500Y-82650000D01*
X167018500Y-82680000D01*
X167009500Y-82711000D01*
X166998500Y-82740000D01*
X166986500Y-82770000D01*
X166973500Y-82798000D01*
X166958500Y-82826000D01*
X166941500Y-82853000D01*
X166923500Y-82879000D01*
X166904500Y-82904000D01*
X166884500Y-82928000D01*
X166862500Y-82951000D01*
X166839500Y-82972000D01*
X166815500Y-82993000D01*
X166790500Y-83012000D01*
X166764500Y-83030000D01*
X166737500Y-83046000D01*
X166710500Y-83061000D01*
X166681500Y-83075000D01*
X166652500Y-83087000D01*
X166622500Y-83098000D01*
X166592500Y-83106000D01*
X166561500Y-83114000D01*
X166530500Y-83120000D01*
X166499500Y-83124000D01*
X166468500Y-83126000D01*
X166434500Y-83127000D01*
X166434000Y-83127000D01*
X165543500Y-83127000D01*
X165509500Y-83126000D01*
X165478500Y-83124000D01*
X165447500Y-83120000D01*
X165416500Y-83114000D01*
X165385500Y-83106000D01*
X165355500Y-83098000D01*
X165325500Y-83087000D01*
X165296500Y-83075000D01*
X165267500Y-83061000D01*
X165240500Y-83046000D01*
X165213500Y-83030000D01*
X165187500Y-83012000D01*
X165162500Y-82993000D01*
X165138500Y-82972000D01*
X165115500Y-82951000D01*
X165093500Y-82928000D01*
X165073500Y-82904000D01*
X165054500Y-82879000D01*
X165036500Y-82853000D01*
X165019500Y-82826000D01*
X165004500Y-82798000D01*
X164991500Y-82770000D01*
X164979500Y-82740000D01*
X164968500Y-82711000D01*
X164959500Y-82680000D01*
X164952500Y-82650000D01*
X164946500Y-82619000D01*
X164942500Y-82587000D01*
X164939500Y-82556000D01*
X164938500Y-82527000D01*
X164939500Y-82493000D01*
X164942500Y-82461000D01*
X164946500Y-82429000D01*
X164952500Y-82398000D01*
X164959500Y-82367000D01*
X164968500Y-82337000D01*
X164979500Y-82307000D01*
X164991500Y-82277000D01*
X165005500Y-82249000D01*
X165020500Y-82221000D01*
X165037500Y-82194000D01*
X165055500Y-82167000D01*
X165074500Y-82142000D01*
X165095500Y-82118000D01*
X165116500Y-82095000D01*
X165139500Y-82073000D01*
X165164500Y-82052000D01*
X165189500Y-82033000D01*
X165215500Y-82015000D01*
X165242500Y-81998000D01*
X165270500Y-81983000D01*
X165299500Y-81970000D01*
X165328500Y-81957000D01*
X165358500Y-81947000D01*
X165389500Y-81938000D01*
X165420500Y-81930000D01*
X165451500Y-81924000D01*
X165482500Y-81920000D01*
X165514500Y-81918000D01*
X165543500Y-81917000D01*
X166434500Y-81917000D01*
X166463500Y-81918000D01*
G36*
X166463500Y-81918000D02*
G01*
X166495500Y-81920000D01*
X166526500Y-81924000D01*
X166557500Y-81930000D01*
X166588500Y-81938000D01*
X166619500Y-81947000D01*
X166649500Y-81957000D01*
X166678500Y-81970000D01*
X166707500Y-81983000D01*
X166735500Y-81998000D01*
X166762500Y-82015000D01*
X166788500Y-82033000D01*
X166813500Y-82052000D01*
X166838500Y-82073000D01*
X166861500Y-82095000D01*
X166882500Y-82118000D01*
X166903500Y-82142000D01*
X166922500Y-82167000D01*
X166940500Y-82194000D01*
X166957500Y-82221000D01*
X166972500Y-82249000D01*
X166986500Y-82277000D01*
X166998500Y-82307000D01*
X167009500Y-82337000D01*
X167018500Y-82367000D01*
X167025500Y-82398000D01*
X167031500Y-82429000D01*
X167035500Y-82461000D01*
X167038500Y-82493000D01*
X167039500Y-82527000D01*
X167038500Y-82556000D01*
X167035500Y-82587000D01*
X167031500Y-82619000D01*
X167025500Y-82650000D01*
X167018500Y-82680000D01*
X167009500Y-82711000D01*
X166998500Y-82740000D01*
X166986500Y-82770000D01*
X166973500Y-82798000D01*
X166958500Y-82826000D01*
X166941500Y-82853000D01*
X166923500Y-82879000D01*
X166904500Y-82904000D01*
X166884500Y-82928000D01*
X166862500Y-82951000D01*
X166839500Y-82972000D01*
X166815500Y-82993000D01*
X166790500Y-83012000D01*
X166764500Y-83030000D01*
X166737500Y-83046000D01*
X166710500Y-83061000D01*
X166681500Y-83075000D01*
X166652500Y-83087000D01*
X166622500Y-83098000D01*
X166592500Y-83106000D01*
X166561500Y-83114000D01*
X166530500Y-83120000D01*
X166499500Y-83124000D01*
X166468500Y-83126000D01*
X166434500Y-83127000D01*
X166434000Y-83127000D01*
X165543500Y-83127000D01*
X165509500Y-83126000D01*
X165478500Y-83124000D01*
X165447500Y-83120000D01*
X165416500Y-83114000D01*
X165385500Y-83106000D01*
X165355500Y-83098000D01*
X165325500Y-83087000D01*
X165296500Y-83075000D01*
X165267500Y-83061000D01*
X165240500Y-83046000D01*
X165213500Y-83030000D01*
X165187500Y-83012000D01*
X165162500Y-82993000D01*
X165138500Y-82972000D01*
X165115500Y-82951000D01*
X165093500Y-82928000D01*
X165073500Y-82904000D01*
X165054500Y-82879000D01*
X165036500Y-82853000D01*
X165019500Y-82826000D01*
X165004500Y-82798000D01*
X164991500Y-82770000D01*
X164979500Y-82740000D01*
X164968500Y-82711000D01*
X164959500Y-82680000D01*
X164952500Y-82650000D01*
X164946500Y-82619000D01*
X164942500Y-82587000D01*
X164939500Y-82556000D01*
X164938500Y-82527000D01*
X164939500Y-82493000D01*
X164942500Y-82461000D01*
X164946500Y-82429000D01*
X164952500Y-82398000D01*
X164959500Y-82367000D01*
X164968500Y-82337000D01*
X164979500Y-82307000D01*
X164991500Y-82277000D01*
X165005500Y-82249000D01*
X165020500Y-82221000D01*
X165037500Y-82194000D01*
X165055500Y-82167000D01*
X165074500Y-82142000D01*
X165095500Y-82118000D01*
X165116500Y-82095000D01*
X165139500Y-82073000D01*
X165164500Y-82052000D01*
X165189500Y-82033000D01*
X165215500Y-82015000D01*
X165242500Y-81998000D01*
X165270500Y-81983000D01*
X165299500Y-81970000D01*
X165328500Y-81957000D01*
X165358500Y-81947000D01*
X165389500Y-81938000D01*
X165420500Y-81930000D01*
X165451500Y-81924000D01*
X165482500Y-81920000D01*
X165514500Y-81918000D01*
X165543500Y-81917000D01*
X166434500Y-81917000D01*
X166463500Y-81918000D01*
G37*
%TD*%
D11*
%TO.C,J2*%
X162311000Y-89154000D03*
D12*
X159771000Y-89154000D03*
%TD*%
D11*
%TO.C,J4*%
X166370000Y-85481000D03*
D12*
X166370000Y-88021000D03*
X166370000Y-90561000D03*
X166370000Y-93101000D03*
%TD*%
D13*
%TO.C,J8*%
X162989000Y-80577000D03*
X162989000Y-76127000D03*
%TD*%
D11*
%TO.C,J3*%
X153670000Y-85471000D03*
D12*
X153670000Y-88011000D03*
X153670000Y-90551000D03*
X153670000Y-93091000D03*
%TD*%
D14*
%TO.C,R8*%
X156210000Y-85701500D03*
X156210000Y-87526500D03*
%TD*%
D15*
%TO.C,D3*%
X154178000Y-80151000D03*
X154178000Y-81901000D03*
%TD*%
D16*
%TO.C,TP4*%
X164084000Y-78867000D03*
%TD*%
%TO.C,TP5*%
X166751000Y-95631000D03*
%TD*%
D17*
%TO.C,R6*%
X158011500Y-83693000D03*
X156186500Y-83693000D03*
%TD*%
D16*
%TO.C,TP2*%
X165735000Y-76200000D03*
%TD*%
D17*
%TO.C,R9*%
X158265500Y-81915000D03*
X156440500Y-81915000D03*
%TD*%
D18*
%TO.C,C7*%
X158596500Y-74549000D03*
X156871500Y-74549000D03*
%TD*%
D19*
%TO.C,C6*%
X161163000Y-79221500D03*
X161163000Y-77496500D03*
%TD*%
D18*
%TO.C,C5*%
X158596500Y-76073000D03*
X156871500Y-76073000D03*
%TD*%
D20*
%TO.C,C4*%
X156363500Y-93345000D03*
X158088500Y-93345000D03*
%TD*%
D19*
%TO.C,C1*%
X161544000Y-94969500D03*
X161544000Y-93244500D03*
%TD*%
D21*
%TO.C,R4*%
X164338000Y-91186000D03*
X164338000Y-89361000D03*
%TD*%
%TO.C,R5*%
X159766000Y-84859500D03*
X159766000Y-83034500D03*
%TD*%
D17*
%TO.C,R7*%
X159766000Y-86487000D03*
X157941000Y-86487000D03*
%TD*%
D14*
%TO.C,R10*%
X156210000Y-89003500D03*
X156210000Y-90828500D03*
%TD*%
D22*
%TO.C,R2*%
X159996500Y-91313000D03*
X161821500Y-91313000D03*
%TD*%
D23*
%TO.C,U1*%
X157518000Y-77490000D03*
X157518000Y-77990000D03*
X157518000Y-78490000D03*
X157518000Y-78990000D03*
X157518000Y-79490000D03*
X157518000Y-79990000D03*
X155918000Y-79990000D03*
X155918000Y-79490000D03*
X155918000Y-78990000D03*
X155918000Y-78490000D03*
X155918000Y-77990000D03*
X155918000Y-77490000D03*
%TD*%
D21*
%TO.C,R3*%
X163830000Y-95400500D03*
X163830000Y-93575500D03*
%TD*%
D22*
%TO.C,R1*%
X152757500Y-96012000D03*
X154582500Y-96012000D03*
%TD*%
D19*
%TO.C,C2*%
X160020000Y-95096500D03*
X160020000Y-93371500D03*
%TD*%
D20*
%TO.C,C3*%
X156363500Y-94869000D03*
X158088500Y-94869000D03*
%TD*%
D24*
%TO.C,JP1*%
X163083000Y-86360000D03*
X161783000Y-86360000D03*
%TD*%
M02*
