%TF.GenerationSoftware,KiCad,Pcbnew,8.0.1*%
%TF.CreationDate,2024-04-23T06:28:50-07:00*%
%TF.ProjectId,OnOffController,4f6e4f66-6643-46f6-9e74-726f6c6c6572,rev?*%
%TF.SameCoordinates,Original*%
%TF.FileFunction,Legend,Bot*%
%TF.FilePolarity,Positive*%
%FSLAX46Y46*%
G04 Gerber Fmt 4.6, Leading zero omitted, Abs format (unit mm)*
G04 Created by KiCad (PCBNEW 8.0.1) date 2024-04-23 06:28:50*
%MOMM*%
%LPD*%
G01*
G04 APERTURE LIST*
%ADD10C,0.150000*%
%ADD11C,0.508000*%
%ADD12C,0.120000*%
G04 APERTURE END LIST*
D10*
X168100125Y-78977295D02*
X167833458Y-79777295D01*
X167833458Y-79777295D02*
X167566792Y-78977295D01*
X167033459Y-79358247D02*
X166919173Y-79396342D01*
X166919173Y-79396342D02*
X166881078Y-79434438D01*
X166881078Y-79434438D02*
X166842982Y-79510628D01*
X166842982Y-79510628D02*
X166842982Y-79624914D01*
X166842982Y-79624914D02*
X166881078Y-79701104D01*
X166881078Y-79701104D02*
X166919173Y-79739200D01*
X166919173Y-79739200D02*
X166995363Y-79777295D01*
X166995363Y-79777295D02*
X167300125Y-79777295D01*
X167300125Y-79777295D02*
X167300125Y-78977295D01*
X167300125Y-78977295D02*
X167033459Y-78977295D01*
X167033459Y-78977295D02*
X166957268Y-79015390D01*
X166957268Y-79015390D02*
X166919173Y-79053485D01*
X166919173Y-79053485D02*
X166881078Y-79129676D01*
X166881078Y-79129676D02*
X166881078Y-79205866D01*
X166881078Y-79205866D02*
X166919173Y-79282057D01*
X166919173Y-79282057D02*
X166957268Y-79320152D01*
X166957268Y-79320152D02*
X167033459Y-79358247D01*
X167033459Y-79358247D02*
X167300125Y-79358247D01*
X166500125Y-78977295D02*
X166500125Y-79624914D01*
X166500125Y-79624914D02*
X166462030Y-79701104D01*
X166462030Y-79701104D02*
X166423935Y-79739200D01*
X166423935Y-79739200D02*
X166347744Y-79777295D01*
X166347744Y-79777295D02*
X166195363Y-79777295D01*
X166195363Y-79777295D02*
X166119173Y-79739200D01*
X166119173Y-79739200D02*
X166081078Y-79701104D01*
X166081078Y-79701104D02*
X166042982Y-79624914D01*
X166042982Y-79624914D02*
X166042982Y-78977295D01*
X165700126Y-79739200D02*
X165585840Y-79777295D01*
X165585840Y-79777295D02*
X165395364Y-79777295D01*
X165395364Y-79777295D02*
X165319173Y-79739200D01*
X165319173Y-79739200D02*
X165281078Y-79701104D01*
X165281078Y-79701104D02*
X165242983Y-79624914D01*
X165242983Y-79624914D02*
X165242983Y-79548723D01*
X165242983Y-79548723D02*
X165281078Y-79472533D01*
X165281078Y-79472533D02*
X165319173Y-79434438D01*
X165319173Y-79434438D02*
X165395364Y-79396342D01*
X165395364Y-79396342D02*
X165547745Y-79358247D01*
X165547745Y-79358247D02*
X165623935Y-79320152D01*
X165623935Y-79320152D02*
X165662030Y-79282057D01*
X165662030Y-79282057D02*
X165700126Y-79205866D01*
X165700126Y-79205866D02*
X165700126Y-79129676D01*
X165700126Y-79129676D02*
X165662030Y-79053485D01*
X165662030Y-79053485D02*
X165623935Y-79015390D01*
X165623935Y-79015390D02*
X165547745Y-78977295D01*
X165547745Y-78977295D02*
X165357268Y-78977295D01*
X165357268Y-78977295D02*
X165242983Y-79015390D01*
X167153390Y-75257207D02*
X167115295Y-75181017D01*
X167115295Y-75181017D02*
X167115295Y-75066731D01*
X167115295Y-75066731D02*
X167153390Y-74952445D01*
X167153390Y-74952445D02*
X167229580Y-74876255D01*
X167229580Y-74876255D02*
X167305771Y-74838160D01*
X167305771Y-74838160D02*
X167458152Y-74800064D01*
X167458152Y-74800064D02*
X167572438Y-74800064D01*
X167572438Y-74800064D02*
X167724819Y-74838160D01*
X167724819Y-74838160D02*
X167801009Y-74876255D01*
X167801009Y-74876255D02*
X167877200Y-74952445D01*
X167877200Y-74952445D02*
X167915295Y-75066731D01*
X167915295Y-75066731D02*
X167915295Y-75142922D01*
X167915295Y-75142922D02*
X167877200Y-75257207D01*
X167877200Y-75257207D02*
X167839104Y-75295303D01*
X167839104Y-75295303D02*
X167572438Y-75295303D01*
X167572438Y-75295303D02*
X167572438Y-75142922D01*
X167915295Y-75638160D02*
X167115295Y-75638160D01*
X167115295Y-75638160D02*
X167915295Y-76095303D01*
X167915295Y-76095303D02*
X167115295Y-76095303D01*
X167915295Y-76476255D02*
X167115295Y-76476255D01*
X167115295Y-76476255D02*
X167115295Y-76666731D01*
X167115295Y-76666731D02*
X167153390Y-76781017D01*
X167153390Y-76781017D02*
X167229580Y-76857207D01*
X167229580Y-76857207D02*
X167305771Y-76895302D01*
X167305771Y-76895302D02*
X167458152Y-76933398D01*
X167458152Y-76933398D02*
X167572438Y-76933398D01*
X167572438Y-76933398D02*
X167724819Y-76895302D01*
X167724819Y-76895302D02*
X167801009Y-76857207D01*
X167801009Y-76857207D02*
X167877200Y-76781017D01*
X167877200Y-76781017D02*
X167915295Y-76666731D01*
X167915295Y-76666731D02*
X167915295Y-76476255D01*
X157807819Y-84923333D02*
X157331628Y-84590000D01*
X157807819Y-84351905D02*
X156807819Y-84351905D01*
X156807819Y-84351905D02*
X156807819Y-84732857D01*
X156807819Y-84732857D02*
X156855438Y-84828095D01*
X156855438Y-84828095D02*
X156903057Y-84875714D01*
X156903057Y-84875714D02*
X156998295Y-84923333D01*
X156998295Y-84923333D02*
X157141152Y-84923333D01*
X157141152Y-84923333D02*
X157236390Y-84875714D01*
X157236390Y-84875714D02*
X157284009Y-84828095D01*
X157284009Y-84828095D02*
X157331628Y-84732857D01*
X157331628Y-84732857D02*
X157331628Y-84351905D01*
X157236390Y-85494762D02*
X157188771Y-85399524D01*
X157188771Y-85399524D02*
X157141152Y-85351905D01*
X157141152Y-85351905D02*
X157045914Y-85304286D01*
X157045914Y-85304286D02*
X156998295Y-85304286D01*
X156998295Y-85304286D02*
X156903057Y-85351905D01*
X156903057Y-85351905D02*
X156855438Y-85399524D01*
X156855438Y-85399524D02*
X156807819Y-85494762D01*
X156807819Y-85494762D02*
X156807819Y-85685238D01*
X156807819Y-85685238D02*
X156855438Y-85780476D01*
X156855438Y-85780476D02*
X156903057Y-85828095D01*
X156903057Y-85828095D02*
X156998295Y-85875714D01*
X156998295Y-85875714D02*
X157045914Y-85875714D01*
X157045914Y-85875714D02*
X157141152Y-85828095D01*
X157141152Y-85828095D02*
X157188771Y-85780476D01*
X157188771Y-85780476D02*
X157236390Y-85685238D01*
X157236390Y-85685238D02*
X157236390Y-85494762D01*
X157236390Y-85494762D02*
X157284009Y-85399524D01*
X157284009Y-85399524D02*
X157331628Y-85351905D01*
X157331628Y-85351905D02*
X157426866Y-85304286D01*
X157426866Y-85304286D02*
X157617342Y-85304286D01*
X157617342Y-85304286D02*
X157712580Y-85351905D01*
X157712580Y-85351905D02*
X157760200Y-85399524D01*
X157760200Y-85399524D02*
X157807819Y-85494762D01*
X157807819Y-85494762D02*
X157807819Y-85685238D01*
X157807819Y-85685238D02*
X157760200Y-85780476D01*
X157760200Y-85780476D02*
X157712580Y-85828095D01*
X157712580Y-85828095D02*
X157617342Y-85875714D01*
X157617342Y-85875714D02*
X157426866Y-85875714D01*
X157426866Y-85875714D02*
X157331628Y-85828095D01*
X157331628Y-85828095D02*
X157284009Y-85780476D01*
X157284009Y-85780476D02*
X157236390Y-85685238D01*
X153202819Y-80287905D02*
X152202819Y-80287905D01*
X152202819Y-80287905D02*
X152202819Y-80526000D01*
X152202819Y-80526000D02*
X152250438Y-80668857D01*
X152250438Y-80668857D02*
X152345676Y-80764095D01*
X152345676Y-80764095D02*
X152440914Y-80811714D01*
X152440914Y-80811714D02*
X152631390Y-80859333D01*
X152631390Y-80859333D02*
X152774247Y-80859333D01*
X152774247Y-80859333D02*
X152964723Y-80811714D01*
X152964723Y-80811714D02*
X153059961Y-80764095D01*
X153059961Y-80764095D02*
X153155200Y-80668857D01*
X153155200Y-80668857D02*
X153202819Y-80526000D01*
X153202819Y-80526000D02*
X153202819Y-80287905D01*
X152202819Y-81192667D02*
X152202819Y-81811714D01*
X152202819Y-81811714D02*
X152583771Y-81478381D01*
X152583771Y-81478381D02*
X152583771Y-81621238D01*
X152583771Y-81621238D02*
X152631390Y-81716476D01*
X152631390Y-81716476D02*
X152679009Y-81764095D01*
X152679009Y-81764095D02*
X152774247Y-81811714D01*
X152774247Y-81811714D02*
X153012342Y-81811714D01*
X153012342Y-81811714D02*
X153107580Y-81764095D01*
X153107580Y-81764095D02*
X153155200Y-81716476D01*
X153155200Y-81716476D02*
X153202819Y-81621238D01*
X153202819Y-81621238D02*
X153202819Y-81335524D01*
X153202819Y-81335524D02*
X153155200Y-81240286D01*
X153155200Y-81240286D02*
X153107580Y-81192667D01*
X166488904Y-80099819D02*
X165917476Y-80099819D01*
X166203190Y-81099819D02*
X166203190Y-80099819D01*
X165584142Y-81099819D02*
X165584142Y-80099819D01*
X165584142Y-80099819D02*
X165203190Y-80099819D01*
X165203190Y-80099819D02*
X165107952Y-80147438D01*
X165107952Y-80147438D02*
X165060333Y-80195057D01*
X165060333Y-80195057D02*
X165012714Y-80290295D01*
X165012714Y-80290295D02*
X165012714Y-80433152D01*
X165012714Y-80433152D02*
X165060333Y-80528390D01*
X165060333Y-80528390D02*
X165107952Y-80576009D01*
X165107952Y-80576009D02*
X165203190Y-80623628D01*
X165203190Y-80623628D02*
X165584142Y-80623628D01*
X164155571Y-80433152D02*
X164155571Y-81099819D01*
X164393666Y-80052200D02*
X164631761Y-80766485D01*
X164631761Y-80766485D02*
X164012714Y-80766485D01*
X164808819Y-94369095D02*
X164808819Y-94940523D01*
X165808819Y-94654809D02*
X164808819Y-94654809D01*
X165808819Y-95273857D02*
X164808819Y-95273857D01*
X164808819Y-95273857D02*
X164808819Y-95654809D01*
X164808819Y-95654809D02*
X164856438Y-95750047D01*
X164856438Y-95750047D02*
X164904057Y-95797666D01*
X164904057Y-95797666D02*
X164999295Y-95845285D01*
X164999295Y-95845285D02*
X165142152Y-95845285D01*
X165142152Y-95845285D02*
X165237390Y-95797666D01*
X165237390Y-95797666D02*
X165285009Y-95750047D01*
X165285009Y-95750047D02*
X165332628Y-95654809D01*
X165332628Y-95654809D02*
X165332628Y-95273857D01*
X164808819Y-96750047D02*
X164808819Y-96273857D01*
X164808819Y-96273857D02*
X165285009Y-96226238D01*
X165285009Y-96226238D02*
X165237390Y-96273857D01*
X165237390Y-96273857D02*
X165189771Y-96369095D01*
X165189771Y-96369095D02*
X165189771Y-96607190D01*
X165189771Y-96607190D02*
X165237390Y-96702428D01*
X165237390Y-96702428D02*
X165285009Y-96750047D01*
X165285009Y-96750047D02*
X165380247Y-96797666D01*
X165380247Y-96797666D02*
X165618342Y-96797666D01*
X165618342Y-96797666D02*
X165713580Y-96750047D01*
X165713580Y-96750047D02*
X165761200Y-96702428D01*
X165761200Y-96702428D02*
X165808819Y-96607190D01*
X165808819Y-96607190D02*
X165808819Y-96369095D01*
X165808819Y-96369095D02*
X165761200Y-96273857D01*
X165761200Y-96273857D02*
X165713580Y-96226238D01*
X154852666Y-84147819D02*
X155185999Y-83671628D01*
X155424094Y-84147819D02*
X155424094Y-83147819D01*
X155424094Y-83147819D02*
X155043142Y-83147819D01*
X155043142Y-83147819D02*
X154947904Y-83195438D01*
X154947904Y-83195438D02*
X154900285Y-83243057D01*
X154900285Y-83243057D02*
X154852666Y-83338295D01*
X154852666Y-83338295D02*
X154852666Y-83481152D01*
X154852666Y-83481152D02*
X154900285Y-83576390D01*
X154900285Y-83576390D02*
X154947904Y-83624009D01*
X154947904Y-83624009D02*
X155043142Y-83671628D01*
X155043142Y-83671628D02*
X155424094Y-83671628D01*
X153995523Y-83147819D02*
X154185999Y-83147819D01*
X154185999Y-83147819D02*
X154281237Y-83195438D01*
X154281237Y-83195438D02*
X154328856Y-83243057D01*
X154328856Y-83243057D02*
X154424094Y-83385914D01*
X154424094Y-83385914D02*
X154471713Y-83576390D01*
X154471713Y-83576390D02*
X154471713Y-83957342D01*
X154471713Y-83957342D02*
X154424094Y-84052580D01*
X154424094Y-84052580D02*
X154376475Y-84100200D01*
X154376475Y-84100200D02*
X154281237Y-84147819D01*
X154281237Y-84147819D02*
X154090761Y-84147819D01*
X154090761Y-84147819D02*
X153995523Y-84100200D01*
X153995523Y-84100200D02*
X153947904Y-84052580D01*
X153947904Y-84052580D02*
X153900285Y-83957342D01*
X153900285Y-83957342D02*
X153900285Y-83719247D01*
X153900285Y-83719247D02*
X153947904Y-83624009D01*
X153947904Y-83624009D02*
X153995523Y-83576390D01*
X153995523Y-83576390D02*
X154090761Y-83528771D01*
X154090761Y-83528771D02*
X154281237Y-83528771D01*
X154281237Y-83528771D02*
X154376475Y-83576390D01*
X154376475Y-83576390D02*
X154424094Y-83624009D01*
X154424094Y-83624009D02*
X154471713Y-83719247D01*
X164710904Y-74130819D02*
X164139476Y-74130819D01*
X164425190Y-75130819D02*
X164425190Y-74130819D01*
X163806142Y-75130819D02*
X163806142Y-74130819D01*
X163806142Y-74130819D02*
X163425190Y-74130819D01*
X163425190Y-74130819D02*
X163329952Y-74178438D01*
X163329952Y-74178438D02*
X163282333Y-74226057D01*
X163282333Y-74226057D02*
X163234714Y-74321295D01*
X163234714Y-74321295D02*
X163234714Y-74464152D01*
X163234714Y-74464152D02*
X163282333Y-74559390D01*
X163282333Y-74559390D02*
X163329952Y-74607009D01*
X163329952Y-74607009D02*
X163425190Y-74654628D01*
X163425190Y-74654628D02*
X163806142Y-74654628D01*
X162853761Y-74226057D02*
X162806142Y-74178438D01*
X162806142Y-74178438D02*
X162710904Y-74130819D01*
X162710904Y-74130819D02*
X162472809Y-74130819D01*
X162472809Y-74130819D02*
X162377571Y-74178438D01*
X162377571Y-74178438D02*
X162329952Y-74226057D01*
X162329952Y-74226057D02*
X162282333Y-74321295D01*
X162282333Y-74321295D02*
X162282333Y-74416533D01*
X162282333Y-74416533D02*
X162329952Y-74559390D01*
X162329952Y-74559390D02*
X162901380Y-75130819D01*
X162901380Y-75130819D02*
X162282333Y-75130819D01*
X161329666Y-83004819D02*
X161662999Y-82528628D01*
X161901094Y-83004819D02*
X161901094Y-82004819D01*
X161901094Y-82004819D02*
X161520142Y-82004819D01*
X161520142Y-82004819D02*
X161424904Y-82052438D01*
X161424904Y-82052438D02*
X161377285Y-82100057D01*
X161377285Y-82100057D02*
X161329666Y-82195295D01*
X161329666Y-82195295D02*
X161329666Y-82338152D01*
X161329666Y-82338152D02*
X161377285Y-82433390D01*
X161377285Y-82433390D02*
X161424904Y-82481009D01*
X161424904Y-82481009D02*
X161520142Y-82528628D01*
X161520142Y-82528628D02*
X161901094Y-82528628D01*
X160853475Y-83004819D02*
X160662999Y-83004819D01*
X160662999Y-83004819D02*
X160567761Y-82957200D01*
X160567761Y-82957200D02*
X160520142Y-82909580D01*
X160520142Y-82909580D02*
X160424904Y-82766723D01*
X160424904Y-82766723D02*
X160377285Y-82576247D01*
X160377285Y-82576247D02*
X160377285Y-82195295D01*
X160377285Y-82195295D02*
X160424904Y-82100057D01*
X160424904Y-82100057D02*
X160472523Y-82052438D01*
X160472523Y-82052438D02*
X160567761Y-82004819D01*
X160567761Y-82004819D02*
X160758237Y-82004819D01*
X160758237Y-82004819D02*
X160853475Y-82052438D01*
X160853475Y-82052438D02*
X160901094Y-82100057D01*
X160901094Y-82100057D02*
X160948713Y-82195295D01*
X160948713Y-82195295D02*
X160948713Y-82433390D01*
X160948713Y-82433390D02*
X160901094Y-82528628D01*
X160901094Y-82528628D02*
X160853475Y-82576247D01*
X160853475Y-82576247D02*
X160758237Y-82623866D01*
X160758237Y-82623866D02*
X160567761Y-82623866D01*
X160567761Y-82623866D02*
X160472523Y-82576247D01*
X160472523Y-82576247D02*
X160424904Y-82528628D01*
X160424904Y-82528628D02*
X160377285Y-82433390D01*
X160567666Y-74908580D02*
X160615285Y-74956200D01*
X160615285Y-74956200D02*
X160758142Y-75003819D01*
X160758142Y-75003819D02*
X160853380Y-75003819D01*
X160853380Y-75003819D02*
X160996237Y-74956200D01*
X160996237Y-74956200D02*
X161091475Y-74860961D01*
X161091475Y-74860961D02*
X161139094Y-74765723D01*
X161139094Y-74765723D02*
X161186713Y-74575247D01*
X161186713Y-74575247D02*
X161186713Y-74432390D01*
X161186713Y-74432390D02*
X161139094Y-74241914D01*
X161139094Y-74241914D02*
X161091475Y-74146676D01*
X161091475Y-74146676D02*
X160996237Y-74051438D01*
X160996237Y-74051438D02*
X160853380Y-74003819D01*
X160853380Y-74003819D02*
X160758142Y-74003819D01*
X160758142Y-74003819D02*
X160615285Y-74051438D01*
X160615285Y-74051438D02*
X160567666Y-74099057D01*
X160234332Y-74003819D02*
X159567666Y-74003819D01*
X159567666Y-74003819D02*
X159996237Y-75003819D01*
X162792580Y-78700333D02*
X162840200Y-78652714D01*
X162840200Y-78652714D02*
X162887819Y-78509857D01*
X162887819Y-78509857D02*
X162887819Y-78414619D01*
X162887819Y-78414619D02*
X162840200Y-78271762D01*
X162840200Y-78271762D02*
X162744961Y-78176524D01*
X162744961Y-78176524D02*
X162649723Y-78128905D01*
X162649723Y-78128905D02*
X162459247Y-78081286D01*
X162459247Y-78081286D02*
X162316390Y-78081286D01*
X162316390Y-78081286D02*
X162125914Y-78128905D01*
X162125914Y-78128905D02*
X162030676Y-78176524D01*
X162030676Y-78176524D02*
X161935438Y-78271762D01*
X161935438Y-78271762D02*
X161887819Y-78414619D01*
X161887819Y-78414619D02*
X161887819Y-78509857D01*
X161887819Y-78509857D02*
X161935438Y-78652714D01*
X161935438Y-78652714D02*
X161983057Y-78700333D01*
X161887819Y-79557476D02*
X161887819Y-79367000D01*
X161887819Y-79367000D02*
X161935438Y-79271762D01*
X161935438Y-79271762D02*
X161983057Y-79224143D01*
X161983057Y-79224143D02*
X162125914Y-79128905D01*
X162125914Y-79128905D02*
X162316390Y-79081286D01*
X162316390Y-79081286D02*
X162697342Y-79081286D01*
X162697342Y-79081286D02*
X162792580Y-79128905D01*
X162792580Y-79128905D02*
X162840200Y-79176524D01*
X162840200Y-79176524D02*
X162887819Y-79271762D01*
X162887819Y-79271762D02*
X162887819Y-79462238D01*
X162887819Y-79462238D02*
X162840200Y-79557476D01*
X162840200Y-79557476D02*
X162792580Y-79605095D01*
X162792580Y-79605095D02*
X162697342Y-79652714D01*
X162697342Y-79652714D02*
X162459247Y-79652714D01*
X162459247Y-79652714D02*
X162364009Y-79605095D01*
X162364009Y-79605095D02*
X162316390Y-79557476D01*
X162316390Y-79557476D02*
X162268771Y-79462238D01*
X162268771Y-79462238D02*
X162268771Y-79271762D01*
X162268771Y-79271762D02*
X162316390Y-79176524D01*
X162316390Y-79176524D02*
X162364009Y-79128905D01*
X162364009Y-79128905D02*
X162459247Y-79081286D01*
X160440666Y-76305580D02*
X160488285Y-76353200D01*
X160488285Y-76353200D02*
X160631142Y-76400819D01*
X160631142Y-76400819D02*
X160726380Y-76400819D01*
X160726380Y-76400819D02*
X160869237Y-76353200D01*
X160869237Y-76353200D02*
X160964475Y-76257961D01*
X160964475Y-76257961D02*
X161012094Y-76162723D01*
X161012094Y-76162723D02*
X161059713Y-75972247D01*
X161059713Y-75972247D02*
X161059713Y-75829390D01*
X161059713Y-75829390D02*
X161012094Y-75638914D01*
X161012094Y-75638914D02*
X160964475Y-75543676D01*
X160964475Y-75543676D02*
X160869237Y-75448438D01*
X160869237Y-75448438D02*
X160726380Y-75400819D01*
X160726380Y-75400819D02*
X160631142Y-75400819D01*
X160631142Y-75400819D02*
X160488285Y-75448438D01*
X160488285Y-75448438D02*
X160440666Y-75496057D01*
X159535904Y-75400819D02*
X160012094Y-75400819D01*
X160012094Y-75400819D02*
X160059713Y-75877009D01*
X160059713Y-75877009D02*
X160012094Y-75829390D01*
X160012094Y-75829390D02*
X159916856Y-75781771D01*
X159916856Y-75781771D02*
X159678761Y-75781771D01*
X159678761Y-75781771D02*
X159583523Y-75829390D01*
X159583523Y-75829390D02*
X159535904Y-75877009D01*
X159535904Y-75877009D02*
X159488285Y-75972247D01*
X159488285Y-75972247D02*
X159488285Y-76210342D01*
X159488285Y-76210342D02*
X159535904Y-76305580D01*
X159535904Y-76305580D02*
X159583523Y-76353200D01*
X159583523Y-76353200D02*
X159678761Y-76400819D01*
X159678761Y-76400819D02*
X159916856Y-76400819D01*
X159916856Y-76400819D02*
X160012094Y-76353200D01*
X160012094Y-76353200D02*
X160059713Y-76305580D01*
X155553580Y-92670333D02*
X155601200Y-92622714D01*
X155601200Y-92622714D02*
X155648819Y-92479857D01*
X155648819Y-92479857D02*
X155648819Y-92384619D01*
X155648819Y-92384619D02*
X155601200Y-92241762D01*
X155601200Y-92241762D02*
X155505961Y-92146524D01*
X155505961Y-92146524D02*
X155410723Y-92098905D01*
X155410723Y-92098905D02*
X155220247Y-92051286D01*
X155220247Y-92051286D02*
X155077390Y-92051286D01*
X155077390Y-92051286D02*
X154886914Y-92098905D01*
X154886914Y-92098905D02*
X154791676Y-92146524D01*
X154791676Y-92146524D02*
X154696438Y-92241762D01*
X154696438Y-92241762D02*
X154648819Y-92384619D01*
X154648819Y-92384619D02*
X154648819Y-92479857D01*
X154648819Y-92479857D02*
X154696438Y-92622714D01*
X154696438Y-92622714D02*
X154744057Y-92670333D01*
X154982152Y-93527476D02*
X155648819Y-93527476D01*
X154601200Y-93289381D02*
X155315485Y-93051286D01*
X155315485Y-93051286D02*
X155315485Y-93670333D01*
X161583666Y-96879580D02*
X161631285Y-96927200D01*
X161631285Y-96927200D02*
X161774142Y-96974819D01*
X161774142Y-96974819D02*
X161869380Y-96974819D01*
X161869380Y-96974819D02*
X162012237Y-96927200D01*
X162012237Y-96927200D02*
X162107475Y-96831961D01*
X162107475Y-96831961D02*
X162155094Y-96736723D01*
X162155094Y-96736723D02*
X162202713Y-96546247D01*
X162202713Y-96546247D02*
X162202713Y-96403390D01*
X162202713Y-96403390D02*
X162155094Y-96212914D01*
X162155094Y-96212914D02*
X162107475Y-96117676D01*
X162107475Y-96117676D02*
X162012237Y-96022438D01*
X162012237Y-96022438D02*
X161869380Y-95974819D01*
X161869380Y-95974819D02*
X161774142Y-95974819D01*
X161774142Y-95974819D02*
X161631285Y-96022438D01*
X161631285Y-96022438D02*
X161583666Y-96070057D01*
X160631285Y-96974819D02*
X161202713Y-96974819D01*
X160916999Y-96974819D02*
X160916999Y-95974819D01*
X160916999Y-95974819D02*
X161012237Y-96117676D01*
X161012237Y-96117676D02*
X161107475Y-96212914D01*
X161107475Y-96212914D02*
X161202713Y-96260533D01*
X164919819Y-87566833D02*
X164443628Y-87233500D01*
X164919819Y-86995405D02*
X163919819Y-86995405D01*
X163919819Y-86995405D02*
X163919819Y-87376357D01*
X163919819Y-87376357D02*
X163967438Y-87471595D01*
X163967438Y-87471595D02*
X164015057Y-87519214D01*
X164015057Y-87519214D02*
X164110295Y-87566833D01*
X164110295Y-87566833D02*
X164253152Y-87566833D01*
X164253152Y-87566833D02*
X164348390Y-87519214D01*
X164348390Y-87519214D02*
X164396009Y-87471595D01*
X164396009Y-87471595D02*
X164443628Y-87376357D01*
X164443628Y-87376357D02*
X164443628Y-86995405D01*
X164253152Y-88423976D02*
X164919819Y-88423976D01*
X163872200Y-88185881D02*
X164586485Y-87947786D01*
X164586485Y-87947786D02*
X164586485Y-88566833D01*
X161617819Y-84415333D02*
X161141628Y-84082000D01*
X161617819Y-83843905D02*
X160617819Y-83843905D01*
X160617819Y-83843905D02*
X160617819Y-84224857D01*
X160617819Y-84224857D02*
X160665438Y-84320095D01*
X160665438Y-84320095D02*
X160713057Y-84367714D01*
X160713057Y-84367714D02*
X160808295Y-84415333D01*
X160808295Y-84415333D02*
X160951152Y-84415333D01*
X160951152Y-84415333D02*
X161046390Y-84367714D01*
X161046390Y-84367714D02*
X161094009Y-84320095D01*
X161094009Y-84320095D02*
X161141628Y-84224857D01*
X161141628Y-84224857D02*
X161141628Y-83843905D01*
X160617819Y-85320095D02*
X160617819Y-84843905D01*
X160617819Y-84843905D02*
X161094009Y-84796286D01*
X161094009Y-84796286D02*
X161046390Y-84843905D01*
X161046390Y-84843905D02*
X160998771Y-84939143D01*
X160998771Y-84939143D02*
X160998771Y-85177238D01*
X160998771Y-85177238D02*
X161046390Y-85272476D01*
X161046390Y-85272476D02*
X161094009Y-85320095D01*
X161094009Y-85320095D02*
X161189247Y-85367714D01*
X161189247Y-85367714D02*
X161427342Y-85367714D01*
X161427342Y-85367714D02*
X161522580Y-85320095D01*
X161522580Y-85320095D02*
X161570200Y-85272476D01*
X161570200Y-85272476D02*
X161617819Y-85177238D01*
X161617819Y-85177238D02*
X161617819Y-84939143D01*
X161617819Y-84939143D02*
X161570200Y-84843905D01*
X161570200Y-84843905D02*
X161522580Y-84796286D01*
X158893166Y-88338819D02*
X159226499Y-87862628D01*
X159464594Y-88338819D02*
X159464594Y-87338819D01*
X159464594Y-87338819D02*
X159083642Y-87338819D01*
X159083642Y-87338819D02*
X158988404Y-87386438D01*
X158988404Y-87386438D02*
X158940785Y-87434057D01*
X158940785Y-87434057D02*
X158893166Y-87529295D01*
X158893166Y-87529295D02*
X158893166Y-87672152D01*
X158893166Y-87672152D02*
X158940785Y-87767390D01*
X158940785Y-87767390D02*
X158988404Y-87815009D01*
X158988404Y-87815009D02*
X159083642Y-87862628D01*
X159083642Y-87862628D02*
X159464594Y-87862628D01*
X158559832Y-87338819D02*
X157893166Y-87338819D01*
X157893166Y-87338819D02*
X158321737Y-88338819D01*
X158061819Y-89400142D02*
X157585628Y-89066809D01*
X158061819Y-88828714D02*
X157061819Y-88828714D01*
X157061819Y-88828714D02*
X157061819Y-89209666D01*
X157061819Y-89209666D02*
X157109438Y-89304904D01*
X157109438Y-89304904D02*
X157157057Y-89352523D01*
X157157057Y-89352523D02*
X157252295Y-89400142D01*
X157252295Y-89400142D02*
X157395152Y-89400142D01*
X157395152Y-89400142D02*
X157490390Y-89352523D01*
X157490390Y-89352523D02*
X157538009Y-89304904D01*
X157538009Y-89304904D02*
X157585628Y-89209666D01*
X157585628Y-89209666D02*
X157585628Y-88828714D01*
X158061819Y-90352523D02*
X158061819Y-89781095D01*
X158061819Y-90066809D02*
X157061819Y-90066809D01*
X157061819Y-90066809D02*
X157204676Y-89971571D01*
X157204676Y-89971571D02*
X157299914Y-89876333D01*
X157299914Y-89876333D02*
X157347533Y-89781095D01*
X157061819Y-90971571D02*
X157061819Y-91066809D01*
X157061819Y-91066809D02*
X157109438Y-91162047D01*
X157109438Y-91162047D02*
X157157057Y-91209666D01*
X157157057Y-91209666D02*
X157252295Y-91257285D01*
X157252295Y-91257285D02*
X157442771Y-91304904D01*
X157442771Y-91304904D02*
X157680866Y-91304904D01*
X157680866Y-91304904D02*
X157871342Y-91257285D01*
X157871342Y-91257285D02*
X157966580Y-91209666D01*
X157966580Y-91209666D02*
X158014200Y-91162047D01*
X158014200Y-91162047D02*
X158061819Y-91066809D01*
X158061819Y-91066809D02*
X158061819Y-90971571D01*
X158061819Y-90971571D02*
X158014200Y-90876333D01*
X158014200Y-90876333D02*
X157966580Y-90828714D01*
X157966580Y-90828714D02*
X157871342Y-90781095D01*
X157871342Y-90781095D02*
X157680866Y-90733476D01*
X157680866Y-90733476D02*
X157442771Y-90733476D01*
X157442771Y-90733476D02*
X157252295Y-90781095D01*
X157252295Y-90781095D02*
X157157057Y-90828714D01*
X157157057Y-90828714D02*
X157109438Y-90876333D01*
X157109438Y-90876333D02*
X157061819Y-90971571D01*
X158662666Y-91386819D02*
X158995999Y-90910628D01*
X159234094Y-91386819D02*
X159234094Y-90386819D01*
X159234094Y-90386819D02*
X158853142Y-90386819D01*
X158853142Y-90386819D02*
X158757904Y-90434438D01*
X158757904Y-90434438D02*
X158710285Y-90482057D01*
X158710285Y-90482057D02*
X158662666Y-90577295D01*
X158662666Y-90577295D02*
X158662666Y-90720152D01*
X158662666Y-90720152D02*
X158710285Y-90815390D01*
X158710285Y-90815390D02*
X158757904Y-90863009D01*
X158757904Y-90863009D02*
X158853142Y-90910628D01*
X158853142Y-90910628D02*
X159234094Y-90910628D01*
X158281713Y-90482057D02*
X158234094Y-90434438D01*
X158234094Y-90434438D02*
X158138856Y-90386819D01*
X158138856Y-90386819D02*
X157900761Y-90386819D01*
X157900761Y-90386819D02*
X157805523Y-90434438D01*
X157805523Y-90434438D02*
X157757904Y-90482057D01*
X157757904Y-90482057D02*
X157710285Y-90577295D01*
X157710285Y-90577295D02*
X157710285Y-90672533D01*
X157710285Y-90672533D02*
X157757904Y-90815390D01*
X157757904Y-90815390D02*
X158329332Y-91386819D01*
X158329332Y-91386819D02*
X157710285Y-91386819D01*
X155193904Y-75908819D02*
X155193904Y-76718342D01*
X155193904Y-76718342D02*
X155146285Y-76813580D01*
X155146285Y-76813580D02*
X155098666Y-76861200D01*
X155098666Y-76861200D02*
X155003428Y-76908819D01*
X155003428Y-76908819D02*
X154812952Y-76908819D01*
X154812952Y-76908819D02*
X154717714Y-76861200D01*
X154717714Y-76861200D02*
X154670095Y-76813580D01*
X154670095Y-76813580D02*
X154622476Y-76718342D01*
X154622476Y-76718342D02*
X154622476Y-75908819D01*
X153622476Y-76908819D02*
X154193904Y-76908819D01*
X153908190Y-76908819D02*
X153908190Y-75908819D01*
X153908190Y-75908819D02*
X154003428Y-76051676D01*
X154003428Y-76051676D02*
X154098666Y-76146914D01*
X154098666Y-76146914D02*
X154193904Y-76194533D01*
X163742666Y-96974819D02*
X164075999Y-96498628D01*
X164314094Y-96974819D02*
X164314094Y-95974819D01*
X164314094Y-95974819D02*
X163933142Y-95974819D01*
X163933142Y-95974819D02*
X163837904Y-96022438D01*
X163837904Y-96022438D02*
X163790285Y-96070057D01*
X163790285Y-96070057D02*
X163742666Y-96165295D01*
X163742666Y-96165295D02*
X163742666Y-96308152D01*
X163742666Y-96308152D02*
X163790285Y-96403390D01*
X163790285Y-96403390D02*
X163837904Y-96451009D01*
X163837904Y-96451009D02*
X163933142Y-96498628D01*
X163933142Y-96498628D02*
X164314094Y-96498628D01*
X163409332Y-95974819D02*
X162790285Y-95974819D01*
X162790285Y-95974819D02*
X163123618Y-96355771D01*
X163123618Y-96355771D02*
X162980761Y-96355771D01*
X162980761Y-96355771D02*
X162885523Y-96403390D01*
X162885523Y-96403390D02*
X162837904Y-96451009D01*
X162837904Y-96451009D02*
X162790285Y-96546247D01*
X162790285Y-96546247D02*
X162790285Y-96784342D01*
X162790285Y-96784342D02*
X162837904Y-96879580D01*
X162837904Y-96879580D02*
X162885523Y-96927200D01*
X162885523Y-96927200D02*
X162980761Y-96974819D01*
X162980761Y-96974819D02*
X163266475Y-96974819D01*
X163266475Y-96974819D02*
X163361713Y-96927200D01*
X163361713Y-96927200D02*
X163409332Y-96879580D01*
X153328666Y-95196819D02*
X153661999Y-94720628D01*
X153900094Y-95196819D02*
X153900094Y-94196819D01*
X153900094Y-94196819D02*
X153519142Y-94196819D01*
X153519142Y-94196819D02*
X153423904Y-94244438D01*
X153423904Y-94244438D02*
X153376285Y-94292057D01*
X153376285Y-94292057D02*
X153328666Y-94387295D01*
X153328666Y-94387295D02*
X153328666Y-94530152D01*
X153328666Y-94530152D02*
X153376285Y-94625390D01*
X153376285Y-94625390D02*
X153423904Y-94673009D01*
X153423904Y-94673009D02*
X153519142Y-94720628D01*
X153519142Y-94720628D02*
X153900094Y-94720628D01*
X152376285Y-95196819D02*
X152947713Y-95196819D01*
X152661999Y-95196819D02*
X152661999Y-94196819D01*
X152661999Y-94196819D02*
X152757237Y-94339676D01*
X152757237Y-94339676D02*
X152852475Y-94434914D01*
X152852475Y-94434914D02*
X152947713Y-94482533D01*
X159805666Y-96879580D02*
X159853285Y-96927200D01*
X159853285Y-96927200D02*
X159996142Y-96974819D01*
X159996142Y-96974819D02*
X160091380Y-96974819D01*
X160091380Y-96974819D02*
X160234237Y-96927200D01*
X160234237Y-96927200D02*
X160329475Y-96831961D01*
X160329475Y-96831961D02*
X160377094Y-96736723D01*
X160377094Y-96736723D02*
X160424713Y-96546247D01*
X160424713Y-96546247D02*
X160424713Y-96403390D01*
X160424713Y-96403390D02*
X160377094Y-96212914D01*
X160377094Y-96212914D02*
X160329475Y-96117676D01*
X160329475Y-96117676D02*
X160234237Y-96022438D01*
X160234237Y-96022438D02*
X160091380Y-95974819D01*
X160091380Y-95974819D02*
X159996142Y-95974819D01*
X159996142Y-95974819D02*
X159853285Y-96022438D01*
X159853285Y-96022438D02*
X159805666Y-96070057D01*
X159424713Y-96070057D02*
X159377094Y-96022438D01*
X159377094Y-96022438D02*
X159281856Y-95974819D01*
X159281856Y-95974819D02*
X159043761Y-95974819D01*
X159043761Y-95974819D02*
X158948523Y-96022438D01*
X158948523Y-96022438D02*
X158900904Y-96070057D01*
X158900904Y-96070057D02*
X158853285Y-96165295D01*
X158853285Y-96165295D02*
X158853285Y-96260533D01*
X158853285Y-96260533D02*
X158900904Y-96403390D01*
X158900904Y-96403390D02*
X159472332Y-96974819D01*
X159472332Y-96974819D02*
X158853285Y-96974819D01*
X156630666Y-96658580D02*
X156678285Y-96706200D01*
X156678285Y-96706200D02*
X156821142Y-96753819D01*
X156821142Y-96753819D02*
X156916380Y-96753819D01*
X156916380Y-96753819D02*
X157059237Y-96706200D01*
X157059237Y-96706200D02*
X157154475Y-96610961D01*
X157154475Y-96610961D02*
X157202094Y-96515723D01*
X157202094Y-96515723D02*
X157249713Y-96325247D01*
X157249713Y-96325247D02*
X157249713Y-96182390D01*
X157249713Y-96182390D02*
X157202094Y-95991914D01*
X157202094Y-95991914D02*
X157154475Y-95896676D01*
X157154475Y-95896676D02*
X157059237Y-95801438D01*
X157059237Y-95801438D02*
X156916380Y-95753819D01*
X156916380Y-95753819D02*
X156821142Y-95753819D01*
X156821142Y-95753819D02*
X156678285Y-95801438D01*
X156678285Y-95801438D02*
X156630666Y-95849057D01*
X156297332Y-95753819D02*
X155678285Y-95753819D01*
X155678285Y-95753819D02*
X156011618Y-96134771D01*
X156011618Y-96134771D02*
X155868761Y-96134771D01*
X155868761Y-96134771D02*
X155773523Y-96182390D01*
X155773523Y-96182390D02*
X155725904Y-96230009D01*
X155725904Y-96230009D02*
X155678285Y-96325247D01*
X155678285Y-96325247D02*
X155678285Y-96563342D01*
X155678285Y-96563342D02*
X155725904Y-96658580D01*
X155725904Y-96658580D02*
X155773523Y-96706200D01*
X155773523Y-96706200D02*
X155868761Y-96753819D01*
X155868761Y-96753819D02*
X156154475Y-96753819D01*
X156154475Y-96753819D02*
X156249713Y-96706200D01*
X156249713Y-96706200D02*
X156297332Y-96658580D01*
X164155333Y-84163819D02*
X164155333Y-84878104D01*
X164155333Y-84878104D02*
X164202952Y-85020961D01*
X164202952Y-85020961D02*
X164298190Y-85116200D01*
X164298190Y-85116200D02*
X164441047Y-85163819D01*
X164441047Y-85163819D02*
X164536285Y-85163819D01*
X163679142Y-85163819D02*
X163679142Y-84163819D01*
X163679142Y-84163819D02*
X163298190Y-84163819D01*
X163298190Y-84163819D02*
X163202952Y-84211438D01*
X163202952Y-84211438D02*
X163155333Y-84259057D01*
X163155333Y-84259057D02*
X163107714Y-84354295D01*
X163107714Y-84354295D02*
X163107714Y-84497152D01*
X163107714Y-84497152D02*
X163155333Y-84592390D01*
X163155333Y-84592390D02*
X163202952Y-84640009D01*
X163202952Y-84640009D02*
X163298190Y-84687628D01*
X163298190Y-84687628D02*
X163679142Y-84687628D01*
X162155333Y-85163819D02*
X162726761Y-85163819D01*
X162441047Y-85163819D02*
X162441047Y-84163819D01*
X162441047Y-84163819D02*
X162536285Y-84306676D01*
X162536285Y-84306676D02*
X162631523Y-84401914D01*
X162631523Y-84401914D02*
X162726761Y-84449533D01*
D11*
%TO.C,SW1*%
X157340300Y-84544000D02*
G75*
G02*
X156578300Y-84544000I-381000J0D01*
G01*
X156578300Y-84544000D02*
G75*
G02*
X157340300Y-84544000I381000J0D01*
G01*
D12*
%TO.C,R8*%
X155687500Y-86359276D02*
X155687500Y-86868724D01*
X156732500Y-86359276D02*
X156732500Y-86868724D01*
%TO.C,D3*%
X153443000Y-79366000D02*
X154913000Y-79366000D01*
X153443000Y-81826000D02*
X153443000Y-79366000D01*
X154913000Y-79366000D02*
X154913000Y-81826000D01*
%TO.C,TP4*%
X165034000Y-78867000D02*
G75*
G02*
X163134000Y-78867000I-950000J0D01*
G01*
X163134000Y-78867000D02*
G75*
G02*
X165034000Y-78867000I950000J0D01*
G01*
%TO.C,TP5*%
X167701000Y-95631000D02*
G75*
G02*
X165801000Y-95631000I-950000J0D01*
G01*
X165801000Y-95631000D02*
G75*
G02*
X167701000Y-95631000I950000J0D01*
G01*
%TO.C,R6*%
X157353724Y-83170500D02*
X156844276Y-83170500D01*
X157353724Y-84215500D02*
X156844276Y-84215500D01*
%TO.C,TP2*%
X166685000Y-76200000D02*
G75*
G02*
X164785000Y-76200000I-950000J0D01*
G01*
X164785000Y-76200000D02*
G75*
G02*
X166685000Y-76200000I950000J0D01*
G01*
%TO.C,R9*%
X157607724Y-81392500D02*
X157098276Y-81392500D01*
X157607724Y-82437500D02*
X157098276Y-82437500D01*
%TO.C,C7*%
X157880267Y-74039000D02*
X157587733Y-74039000D01*
X157880267Y-75059000D02*
X157587733Y-75059000D01*
%TO.C,C6*%
X160653000Y-78505267D02*
X160653000Y-78212733D01*
X161673000Y-78505267D02*
X161673000Y-78212733D01*
%TO.C,C5*%
X157880267Y-75563000D02*
X157587733Y-75563000D01*
X157880267Y-76583000D02*
X157587733Y-76583000D01*
%TO.C,C4*%
X157079733Y-92835000D02*
X157372267Y-92835000D01*
X157079733Y-93855000D02*
X157372267Y-93855000D01*
%TO.C,C1*%
X161034000Y-94253267D02*
X161034000Y-93960733D01*
X162054000Y-94253267D02*
X162054000Y-93960733D01*
%TO.C,R4*%
X163815500Y-90528224D02*
X163815500Y-90018776D01*
X164860500Y-90528224D02*
X164860500Y-90018776D01*
%TO.C,R5*%
X159243500Y-84201724D02*
X159243500Y-83692276D01*
X160288500Y-84201724D02*
X160288500Y-83692276D01*
%TO.C,R7*%
X159108224Y-85964500D02*
X158598776Y-85964500D01*
X159108224Y-87009500D02*
X158598776Y-87009500D01*
%TO.C,R10*%
X155687500Y-89661276D02*
X155687500Y-90170724D01*
X156732500Y-89661276D02*
X156732500Y-90170724D01*
%TO.C,R2*%
X160654276Y-90790500D02*
X161163724Y-90790500D01*
X160654276Y-91835500D02*
X161163724Y-91835500D01*
%TO.C,U1*%
X155718000Y-77140000D02*
X156718000Y-77140000D01*
X155718000Y-80340000D02*
X157718000Y-80340000D01*
%TO.C,R3*%
X163307500Y-94742724D02*
X163307500Y-94233276D01*
X164352500Y-94742724D02*
X164352500Y-94233276D01*
%TO.C,R1*%
X153415276Y-95489500D02*
X153924724Y-95489500D01*
X153415276Y-96534500D02*
X153924724Y-96534500D01*
%TO.C,C2*%
X159510000Y-94380267D02*
X159510000Y-94087733D01*
X160530000Y-94380267D02*
X160530000Y-94087733D01*
%TO.C,C3*%
X157079733Y-94359000D02*
X157372267Y-94359000D01*
X157079733Y-95379000D02*
X157372267Y-95379000D01*
%TO.C,JP1*%
X161033000Y-85360000D02*
X161033000Y-87360000D01*
X161033000Y-87360000D02*
X163833000Y-87360000D01*
X163833000Y-85360000D02*
X161033000Y-85360000D01*
X163833000Y-87360000D02*
X163833000Y-85360000D01*
%TD*%
M02*
