%TF.GenerationSoftware,KiCad,Pcbnew,8.0.1*%
%TF.CreationDate,2024-04-23T06:28:50-07:00*%
%TF.ProjectId,OnOffController,4f6e4f66-6643-46f6-9e74-726f6c6c6572,rev?*%
%TF.SameCoordinates,Original*%
%TF.FileFunction,Soldermask,Top*%
%TF.FilePolarity,Negative*%
%FSLAX46Y46*%
G04 Gerber Fmt 4.6, Leading zero omitted, Abs format (unit mm)*
G04 Created by KiCad (PCBNEW 8.0.1) date 2024-04-23 06:28:50*
%MOMM*%
%LPD*%
G01*
G04 APERTURE LIST*
G04 Aperture macros list*
%AMRoundRect*
0 Rectangle with rounded corners*
0 $1 Rounding radius*
0 $2 $3 $4 $5 $6 $7 $8 $9 X,Y pos of 4 corners*
0 Add a 4 corners polygon primitive as box body*
4,1,4,$2,$3,$4,$5,$6,$7,$8,$9,$2,$3,0*
0 Add four circle primitives for the rounded corners*
1,1,$1+$1,$2,$3*
1,1,$1+$1,$4,$5*
1,1,$1+$1,$6,$7*
1,1,$1+$1,$8,$9*
0 Add four rect primitives between the rounded corners*
20,1,$1+$1,$2,$3,$4,$5,0*
20,1,$1+$1,$4,$5,$6,$7,0*
20,1,$1+$1,$6,$7,$8,$9,0*
20,1,$1+$1,$8,$9,$2,$3,0*%
G04 Aperture macros list end*
%ADD10C,0.010000*%
%ADD11R,1.700000X1.700000*%
%ADD12O,1.700000X1.700000*%
%ADD13RoundRect,0.250000X-0.450000X0.325000X-0.450000X-0.325000X0.450000X-0.325000X0.450000X0.325000X0*%
%ADD14RoundRect,0.150000X-0.512500X-0.150000X0.512500X-0.150000X0.512500X0.150000X-0.512500X0.150000X0*%
%ADD15RoundRect,0.250000X0.250000X1.500000X-0.250000X1.500000X-0.250000X-1.500000X0.250000X-1.500000X0*%
%ADD16RoundRect,0.250001X0.499999X1.449999X-0.499999X1.449999X-0.499999X-1.449999X0.499999X-1.449999X0*%
%ADD17RoundRect,0.150000X0.512500X0.150000X-0.512500X0.150000X-0.512500X-0.150000X0.512500X-0.150000X0*%
%ADD18RoundRect,0.076200X-0.675000X-0.200000X0.675000X-0.200000X0.675000X0.200000X-0.675000X0.200000X0*%
%ADD19RoundRect,0.076200X0.950000X0.900000X-0.950000X0.900000X-0.950000X-0.900000X0.950000X-0.900000X0*%
%ADD20C,1.252400*%
%ADD21R,0.889000X0.990600*%
%ADD22R,1.701800X0.558800*%
%ADD23RoundRect,0.225000X0.375000X-0.225000X0.375000X0.225000X-0.375000X0.225000X-0.375000X-0.225000X0*%
G04 APERTURE END LIST*
D10*
%TO.C,J8*%
X167039500Y-82527000D02*
X167038500Y-82558000D01*
X167035500Y-82590000D01*
X167031500Y-82621000D01*
X167025500Y-82652000D01*
X167018500Y-82682000D01*
X167009500Y-82712000D01*
X166999500Y-82742000D01*
X166987500Y-82771000D01*
X166973500Y-82799000D01*
X166958500Y-82827000D01*
X166942500Y-82854000D01*
X166924500Y-82880000D01*
X166905500Y-82905000D01*
X166884500Y-82928000D01*
X166863500Y-82951000D01*
X166840500Y-82973000D01*
X166816500Y-82993000D01*
X166791500Y-83012000D01*
X166765500Y-83030000D01*
X166738500Y-83047000D01*
X166711500Y-83062000D01*
X166683500Y-83075000D01*
X166654500Y-83087000D01*
X166624500Y-83098000D01*
X166594500Y-83107000D01*
X166563500Y-83114000D01*
X166532500Y-83120000D01*
X166501500Y-83124000D01*
X166470500Y-83126000D01*
X166439500Y-83127000D01*
X165538500Y-83127000D01*
X165507500Y-83126000D01*
X165476500Y-83124000D01*
X165445500Y-83120000D01*
X165414500Y-83114000D01*
X165383500Y-83107000D01*
X165353500Y-83098000D01*
X165323500Y-83087000D01*
X165294500Y-83075000D01*
X165266500Y-83062000D01*
X165239500Y-83047000D01*
X165212500Y-83030000D01*
X165186500Y-83012000D01*
X165161500Y-82993000D01*
X165137500Y-82973000D01*
X165114500Y-82951000D01*
X165093500Y-82928000D01*
X165072500Y-82905000D01*
X165053500Y-82880000D01*
X165035500Y-82854000D01*
X165019500Y-82827000D01*
X165004500Y-82799000D01*
X164990500Y-82771000D01*
X164978500Y-82742000D01*
X164968500Y-82712000D01*
X164959500Y-82682000D01*
X164952500Y-82652000D01*
X164946500Y-82621000D01*
X164942500Y-82590000D01*
X164939500Y-82558000D01*
X164938500Y-82527000D01*
X164939000Y-80852000D01*
X167039500Y-80852000D01*
X167039500Y-82527000D01*
G36*
X167039500Y-82527000D02*
G01*
X167038500Y-82558000D01*
X167035500Y-82590000D01*
X167031500Y-82621000D01*
X167025500Y-82652000D01*
X167018500Y-82682000D01*
X167009500Y-82712000D01*
X166999500Y-82742000D01*
X166987500Y-82771000D01*
X166973500Y-82799000D01*
X166958500Y-82827000D01*
X166942500Y-82854000D01*
X166924500Y-82880000D01*
X166905500Y-82905000D01*
X166884500Y-82928000D01*
X166863500Y-82951000D01*
X166840500Y-82973000D01*
X166816500Y-82993000D01*
X166791500Y-83012000D01*
X166765500Y-83030000D01*
X166738500Y-83047000D01*
X166711500Y-83062000D01*
X166683500Y-83075000D01*
X166654500Y-83087000D01*
X166624500Y-83098000D01*
X166594500Y-83107000D01*
X166563500Y-83114000D01*
X166532500Y-83120000D01*
X166501500Y-83124000D01*
X166470500Y-83126000D01*
X166439500Y-83127000D01*
X165538500Y-83127000D01*
X165507500Y-83126000D01*
X165476500Y-83124000D01*
X165445500Y-83120000D01*
X165414500Y-83114000D01*
X165383500Y-83107000D01*
X165353500Y-83098000D01*
X165323500Y-83087000D01*
X165294500Y-83075000D01*
X165266500Y-83062000D01*
X165239500Y-83047000D01*
X165212500Y-83030000D01*
X165186500Y-83012000D01*
X165161500Y-82993000D01*
X165137500Y-82973000D01*
X165114500Y-82951000D01*
X165093500Y-82928000D01*
X165072500Y-82905000D01*
X165053500Y-82880000D01*
X165035500Y-82854000D01*
X165019500Y-82827000D01*
X165004500Y-82799000D01*
X164990500Y-82771000D01*
X164978500Y-82742000D01*
X164968500Y-82712000D01*
X164959500Y-82682000D01*
X164952500Y-82652000D01*
X164946500Y-82621000D01*
X164942500Y-82590000D01*
X164939500Y-82558000D01*
X164938500Y-82527000D01*
X164939000Y-80852000D01*
X167039500Y-80852000D01*
X167039500Y-82527000D01*
G37*
X166470500Y-73578000D02*
X166501500Y-73580000D01*
X166532500Y-73584000D01*
X166563500Y-73590000D01*
X166594500Y-73597000D01*
X166624500Y-73606000D01*
X166654500Y-73617000D01*
X166683500Y-73629000D01*
X166711500Y-73642000D01*
X166738500Y-73657000D01*
X166765500Y-73674000D01*
X166791500Y-73692000D01*
X166816500Y-73711000D01*
X166840500Y-73731000D01*
X166863500Y-73753000D01*
X166884500Y-73776000D01*
X166905500Y-73799000D01*
X166924500Y-73824000D01*
X166942500Y-73850000D01*
X166958500Y-73877000D01*
X166973500Y-73905000D01*
X166987500Y-73933000D01*
X166999500Y-73962000D01*
X167009500Y-73992000D01*
X167018500Y-74022000D01*
X167025500Y-74052000D01*
X167031500Y-74083000D01*
X167035500Y-74114000D01*
X167038500Y-74146000D01*
X167039500Y-74177000D01*
X167039000Y-75852000D01*
X164938500Y-75852000D01*
X164938500Y-74177000D01*
X164939500Y-74146000D01*
X164942500Y-74114000D01*
X164946500Y-74083000D01*
X164952500Y-74052000D01*
X164959500Y-74022000D01*
X164968500Y-73992000D01*
X164978500Y-73962000D01*
X164990500Y-73933000D01*
X165004500Y-73905000D01*
X165019500Y-73877000D01*
X165035500Y-73850000D01*
X165053500Y-73824000D01*
X165072500Y-73799000D01*
X165093500Y-73776000D01*
X165114500Y-73753000D01*
X165137500Y-73731000D01*
X165161500Y-73711000D01*
X165186500Y-73692000D01*
X165212500Y-73674000D01*
X165239500Y-73657000D01*
X165266500Y-73642000D01*
X165294500Y-73629000D01*
X165323500Y-73617000D01*
X165353500Y-73606000D01*
X165383500Y-73597000D01*
X165414500Y-73590000D01*
X165445500Y-73584000D01*
X165476500Y-73580000D01*
X165507500Y-73578000D01*
X165538500Y-73577000D01*
X166439500Y-73577000D01*
X166470500Y-73578000D01*
G36*
X166470500Y-73578000D02*
G01*
X166501500Y-73580000D01*
X166532500Y-73584000D01*
X166563500Y-73590000D01*
X166594500Y-73597000D01*
X166624500Y-73606000D01*
X166654500Y-73617000D01*
X166683500Y-73629000D01*
X166711500Y-73642000D01*
X166738500Y-73657000D01*
X166765500Y-73674000D01*
X166791500Y-73692000D01*
X166816500Y-73711000D01*
X166840500Y-73731000D01*
X166863500Y-73753000D01*
X166884500Y-73776000D01*
X166905500Y-73799000D01*
X166924500Y-73824000D01*
X166942500Y-73850000D01*
X166958500Y-73877000D01*
X166973500Y-73905000D01*
X166987500Y-73933000D01*
X166999500Y-73962000D01*
X167009500Y-73992000D01*
X167018500Y-74022000D01*
X167025500Y-74052000D01*
X167031500Y-74083000D01*
X167035500Y-74114000D01*
X167038500Y-74146000D01*
X167039500Y-74177000D01*
X167039000Y-75852000D01*
X164938500Y-75852000D01*
X164938500Y-74177000D01*
X164939500Y-74146000D01*
X164942500Y-74114000D01*
X164946500Y-74083000D01*
X164952500Y-74052000D01*
X164959500Y-74022000D01*
X164968500Y-73992000D01*
X164978500Y-73962000D01*
X164990500Y-73933000D01*
X165004500Y-73905000D01*
X165019500Y-73877000D01*
X165035500Y-73850000D01*
X165053500Y-73824000D01*
X165072500Y-73799000D01*
X165093500Y-73776000D01*
X165114500Y-73753000D01*
X165137500Y-73731000D01*
X165161500Y-73711000D01*
X165186500Y-73692000D01*
X165212500Y-73674000D01*
X165239500Y-73657000D01*
X165266500Y-73642000D01*
X165294500Y-73629000D01*
X165323500Y-73617000D01*
X165353500Y-73606000D01*
X165383500Y-73597000D01*
X165414500Y-73590000D01*
X165445500Y-73584000D01*
X165476500Y-73580000D01*
X165507500Y-73578000D01*
X165538500Y-73577000D01*
X166439500Y-73577000D01*
X166470500Y-73578000D01*
G37*
%TD*%
D11*
%TO.C,J2*%
X162311000Y-89154000D03*
D12*
X159771000Y-89154000D03*
%TD*%
D13*
%TO.C,D1*%
X156845000Y-89780000D03*
X156845000Y-91830000D03*
%TD*%
D14*
%TO.C,U2*%
X161295500Y-93538000D03*
X161295500Y-94488000D03*
X161295500Y-95438000D03*
X163570500Y-95438000D03*
X163570500Y-93538000D03*
%TD*%
D15*
%TO.C,J1*%
X157258000Y-81188000D03*
X155258000Y-81188000D03*
D16*
X159608000Y-75438000D03*
X152908000Y-75438000D03*
%TD*%
D11*
%TO.C,J4*%
X166370000Y-85481000D03*
D12*
X166370000Y-88021000D03*
X166370000Y-90561000D03*
X166370000Y-93101000D03*
%TD*%
D17*
%TO.C,U3*%
X158993000Y-95372000D03*
X158993000Y-94422000D03*
X158993000Y-93472000D03*
X156718000Y-93472000D03*
X156718000Y-95372000D03*
%TD*%
D18*
%TO.C,J8*%
X163314000Y-79652000D03*
X163314000Y-79002000D03*
X163314000Y-78352000D03*
X163314000Y-77702000D03*
X163314000Y-77052000D03*
D19*
X165989000Y-79502000D03*
X165989000Y-77202000D03*
D20*
X162989000Y-80577000D03*
X162989000Y-76127000D03*
%TD*%
D21*
%TO.C,SW1*%
X159113002Y-84543999D03*
X163212998Y-84543999D03*
X159113002Y-86144001D03*
X163212998Y-86144001D03*
D22*
X161163000Y-86769001D03*
%TD*%
D11*
%TO.C,J3*%
X153670000Y-85471000D03*
D12*
X153670000Y-88011000D03*
X153670000Y-90551000D03*
X153670000Y-93091000D03*
%TD*%
D23*
%TO.C,D2*%
X156718000Y-88138000D03*
X156718000Y-84838000D03*
%TD*%
M02*
