%TF.GenerationSoftware,KiCad,Pcbnew,8.0.1*%
%TF.CreationDate,2024-04-23T06:28:50-07:00*%
%TF.ProjectId,OnOffController,4f6e4f66-6643-46f6-9e74-726f6c6c6572,rev?*%
%TF.SameCoordinates,Original*%
%TF.FileFunction,Copper,L2,Bot*%
%TF.FilePolarity,Positive*%
%FSLAX46Y46*%
G04 Gerber Fmt 4.6, Leading zero omitted, Abs format (unit mm)*
G04 Created by KiCad (PCBNEW 8.0.1) date 2024-04-23 06:28:50*
%MOMM*%
%LPD*%
G01*
G04 APERTURE LIST*
G04 Aperture macros list*
%AMRoundRect*
0 Rectangle with rounded corners*
0 $1 Rounding radius*
0 $2 $3 $4 $5 $6 $7 $8 $9 X,Y pos of 4 corners*
0 Add a 4 corners polygon primitive as box body*
4,1,4,$2,$3,$4,$5,$6,$7,$8,$9,$2,$3,0*
0 Add four circle primitives for the rounded corners*
1,1,$1+$1,$2,$3*
1,1,$1+$1,$4,$5*
1,1,$1+$1,$6,$7*
1,1,$1+$1,$8,$9*
0 Add four rect primitives between the rounded corners*
20,1,$1+$1,$2,$3,$4,$5,0*
20,1,$1+$1,$4,$5,$6,$7,0*
20,1,$1+$1,$6,$7,$8,$9,0*
20,1,$1+$1,$8,$9,$2,$3,0*%
G04 Aperture macros list end*
%TA.AperFunction,EtchedComponent*%
%ADD10C,0.010000*%
%TD*%
%TA.AperFunction,EtchedComponent*%
%ADD11C,0.000000*%
%TD*%
%TA.AperFunction,ComponentPad*%
%ADD12R,1.700000X1.700000*%
%TD*%
%TA.AperFunction,ComponentPad*%
%ADD13O,1.700000X1.700000*%
%TD*%
%TA.AperFunction,ComponentPad*%
%ADD14O,1.900000X1.010000*%
%TD*%
%TA.AperFunction,ComponentPad*%
%ADD15C,1.100000*%
%TD*%
%TA.AperFunction,SMDPad,CuDef*%
%ADD16RoundRect,0.237500X-0.237500X0.250000X-0.237500X-0.250000X0.237500X-0.250000X0.237500X0.250000X0*%
%TD*%
%TA.AperFunction,SMDPad,CuDef*%
%ADD17RoundRect,0.237500X-0.237500X0.287500X-0.237500X-0.287500X0.237500X-0.287500X0.237500X0.287500X0*%
%TD*%
%TA.AperFunction,SMDPad,CuDef*%
%ADD18C,1.500000*%
%TD*%
%TA.AperFunction,SMDPad,CuDef*%
%ADD19RoundRect,0.237500X0.250000X0.237500X-0.250000X0.237500X-0.250000X-0.237500X0.250000X-0.237500X0*%
%TD*%
%TA.AperFunction,SMDPad,CuDef*%
%ADD20RoundRect,0.237500X0.300000X0.237500X-0.300000X0.237500X-0.300000X-0.237500X0.300000X-0.237500X0*%
%TD*%
%TA.AperFunction,SMDPad,CuDef*%
%ADD21RoundRect,0.237500X0.237500X-0.300000X0.237500X0.300000X-0.237500X0.300000X-0.237500X-0.300000X0*%
%TD*%
%TA.AperFunction,SMDPad,CuDef*%
%ADD22RoundRect,0.237500X-0.300000X-0.237500X0.300000X-0.237500X0.300000X0.237500X-0.300000X0.237500X0*%
%TD*%
%TA.AperFunction,SMDPad,CuDef*%
%ADD23RoundRect,0.237500X0.237500X-0.250000X0.237500X0.250000X-0.237500X0.250000X-0.237500X-0.250000X0*%
%TD*%
%TA.AperFunction,SMDPad,CuDef*%
%ADD24RoundRect,0.237500X-0.250000X-0.237500X0.250000X-0.237500X0.250000X0.237500X-0.250000X0.237500X0*%
%TD*%
%TA.AperFunction,SMDPad,CuDef*%
%ADD25R,0.700000X0.250000*%
%TD*%
%TA.AperFunction,SMDPad,CuDef*%
%ADD26R,1.000000X1.500000*%
%TD*%
%TA.AperFunction,ViaPad*%
%ADD27C,0.800000*%
%TD*%
%TA.AperFunction,Conductor*%
%ADD28C,0.250000*%
%TD*%
G04 APERTURE END LIST*
D10*
%TO.C,J8*%
X166462500Y-73678000D02*
X166489500Y-73680000D01*
X166515500Y-73683000D01*
X166540500Y-73688000D01*
X166566500Y-73694000D01*
X166591500Y-73702000D01*
X166616500Y-73710000D01*
X166640500Y-73720000D01*
X166664500Y-73732000D01*
X166687500Y-73744000D01*
X166710500Y-73758000D01*
X166731500Y-73773000D01*
X166752500Y-73789000D01*
X166772500Y-73806000D01*
X166791500Y-73824000D01*
X166809500Y-73843000D01*
X166827500Y-73863000D01*
X166843500Y-73884000D01*
X166857500Y-73906000D01*
X166871500Y-73928000D01*
X166884500Y-73951000D01*
X166895500Y-73975000D01*
X166905500Y-73999000D01*
X166914500Y-74024000D01*
X166921500Y-74049000D01*
X166928500Y-74075000D01*
X166932500Y-74101000D01*
X166936500Y-74127000D01*
X166938500Y-74153000D01*
X166939500Y-74177000D01*
X166938500Y-74206000D01*
X166936500Y-74233000D01*
X166932500Y-74259000D01*
X166927500Y-74285000D01*
X166921500Y-74311000D01*
X166914500Y-74336000D01*
X166905500Y-74361000D01*
X166895500Y-74386000D01*
X166883500Y-74410000D01*
X166871500Y-74433000D01*
X166857500Y-74456000D01*
X166842500Y-74478000D01*
X166825500Y-74499000D01*
X166808500Y-74519000D01*
X166790500Y-74538000D01*
X166771500Y-74557000D01*
X166750500Y-74574000D01*
X166729500Y-74590000D01*
X166707500Y-74605000D01*
X166685500Y-74619000D01*
X166661500Y-74632000D01*
X166637500Y-74643000D01*
X166613500Y-74653000D01*
X166588500Y-74662000D01*
X166562500Y-74670000D01*
X166537500Y-74676000D01*
X166510500Y-74681000D01*
X166484500Y-74684000D01*
X166458500Y-74686000D01*
X166434500Y-74687000D01*
X166434000Y-74687000D01*
X165543500Y-74687000D01*
X165519500Y-74686000D01*
X165493500Y-74684000D01*
X165467500Y-74681000D01*
X165440500Y-74676000D01*
X165415500Y-74670000D01*
X165389500Y-74662000D01*
X165364500Y-74653000D01*
X165340500Y-74643000D01*
X165316500Y-74632000D01*
X165292500Y-74619000D01*
X165270500Y-74605000D01*
X165248500Y-74590000D01*
X165227500Y-74574000D01*
X165206500Y-74557000D01*
X165187500Y-74538000D01*
X165169500Y-74519000D01*
X165152500Y-74499000D01*
X165135500Y-74478000D01*
X165120500Y-74456000D01*
X165106500Y-74433000D01*
X165094500Y-74410000D01*
X165082500Y-74386000D01*
X165072500Y-74361000D01*
X165063500Y-74336000D01*
X165056500Y-74311000D01*
X165050500Y-74285000D01*
X165045500Y-74259000D01*
X165041500Y-74233000D01*
X165039500Y-74206000D01*
X165039500Y-74177000D01*
X165039500Y-74153000D01*
X165041500Y-74127000D01*
X165045500Y-74101000D01*
X165049500Y-74075000D01*
X165056500Y-74049000D01*
X165063500Y-74024000D01*
X165072500Y-73999000D01*
X165082500Y-73975000D01*
X165093500Y-73951000D01*
X165106500Y-73928000D01*
X165120500Y-73906000D01*
X165134500Y-73884000D01*
X165150500Y-73863000D01*
X165168500Y-73843000D01*
X165186500Y-73824000D01*
X165205500Y-73806000D01*
X165225500Y-73789000D01*
X165246500Y-73773000D01*
X165267500Y-73758000D01*
X165290500Y-73744000D01*
X165313500Y-73732000D01*
X165337500Y-73720000D01*
X165361500Y-73710000D01*
X165386500Y-73702000D01*
X165411500Y-73694000D01*
X165437500Y-73688000D01*
X165462500Y-73683000D01*
X165488500Y-73680000D01*
X165515500Y-73678000D01*
X165543500Y-73677000D01*
X166434500Y-73677000D01*
X166462500Y-73678000D01*
%TA.AperFunction,EtchedComponent*%
G36*
X166462500Y-73678000D02*
G01*
X166489500Y-73680000D01*
X166515500Y-73683000D01*
X166540500Y-73688000D01*
X166566500Y-73694000D01*
X166591500Y-73702000D01*
X166616500Y-73710000D01*
X166640500Y-73720000D01*
X166664500Y-73732000D01*
X166687500Y-73744000D01*
X166710500Y-73758000D01*
X166731500Y-73773000D01*
X166752500Y-73789000D01*
X166772500Y-73806000D01*
X166791500Y-73824000D01*
X166809500Y-73843000D01*
X166827500Y-73863000D01*
X166843500Y-73884000D01*
X166857500Y-73906000D01*
X166871500Y-73928000D01*
X166884500Y-73951000D01*
X166895500Y-73975000D01*
X166905500Y-73999000D01*
X166914500Y-74024000D01*
X166921500Y-74049000D01*
X166928500Y-74075000D01*
X166932500Y-74101000D01*
X166936500Y-74127000D01*
X166938500Y-74153000D01*
X166939500Y-74177000D01*
X166938500Y-74206000D01*
X166936500Y-74233000D01*
X166932500Y-74259000D01*
X166927500Y-74285000D01*
X166921500Y-74311000D01*
X166914500Y-74336000D01*
X166905500Y-74361000D01*
X166895500Y-74386000D01*
X166883500Y-74410000D01*
X166871500Y-74433000D01*
X166857500Y-74456000D01*
X166842500Y-74478000D01*
X166825500Y-74499000D01*
X166808500Y-74519000D01*
X166790500Y-74538000D01*
X166771500Y-74557000D01*
X166750500Y-74574000D01*
X166729500Y-74590000D01*
X166707500Y-74605000D01*
X166685500Y-74619000D01*
X166661500Y-74632000D01*
X166637500Y-74643000D01*
X166613500Y-74653000D01*
X166588500Y-74662000D01*
X166562500Y-74670000D01*
X166537500Y-74676000D01*
X166510500Y-74681000D01*
X166484500Y-74684000D01*
X166458500Y-74686000D01*
X166434500Y-74687000D01*
X166434000Y-74687000D01*
X165543500Y-74687000D01*
X165519500Y-74686000D01*
X165493500Y-74684000D01*
X165467500Y-74681000D01*
X165440500Y-74676000D01*
X165415500Y-74670000D01*
X165389500Y-74662000D01*
X165364500Y-74653000D01*
X165340500Y-74643000D01*
X165316500Y-74632000D01*
X165292500Y-74619000D01*
X165270500Y-74605000D01*
X165248500Y-74590000D01*
X165227500Y-74574000D01*
X165206500Y-74557000D01*
X165187500Y-74538000D01*
X165169500Y-74519000D01*
X165152500Y-74499000D01*
X165135500Y-74478000D01*
X165120500Y-74456000D01*
X165106500Y-74433000D01*
X165094500Y-74410000D01*
X165082500Y-74386000D01*
X165072500Y-74361000D01*
X165063500Y-74336000D01*
X165056500Y-74311000D01*
X165050500Y-74285000D01*
X165045500Y-74259000D01*
X165041500Y-74233000D01*
X165039500Y-74206000D01*
X165039500Y-74177000D01*
X165039500Y-74153000D01*
X165041500Y-74127000D01*
X165045500Y-74101000D01*
X165049500Y-74075000D01*
X165056500Y-74049000D01*
X165063500Y-74024000D01*
X165072500Y-73999000D01*
X165082500Y-73975000D01*
X165093500Y-73951000D01*
X165106500Y-73928000D01*
X165120500Y-73906000D01*
X165134500Y-73884000D01*
X165150500Y-73863000D01*
X165168500Y-73843000D01*
X165186500Y-73824000D01*
X165205500Y-73806000D01*
X165225500Y-73789000D01*
X165246500Y-73773000D01*
X165267500Y-73758000D01*
X165290500Y-73744000D01*
X165313500Y-73732000D01*
X165337500Y-73720000D01*
X165361500Y-73710000D01*
X165386500Y-73702000D01*
X165411500Y-73694000D01*
X165437500Y-73688000D01*
X165462500Y-73683000D01*
X165488500Y-73680000D01*
X165515500Y-73678000D01*
X165543500Y-73677000D01*
X166434500Y-73677000D01*
X166462500Y-73678000D01*
G37*
%TD.AperFunction*%
X166458500Y-82018000D02*
X166484500Y-82020000D01*
X166510500Y-82023000D01*
X166537500Y-82028000D01*
X166562500Y-82034000D01*
X166588500Y-82042000D01*
X166613500Y-82051000D01*
X166637500Y-82061000D01*
X166661500Y-82072000D01*
X166685500Y-82085000D01*
X166707500Y-82099000D01*
X166729500Y-82114000D01*
X166750500Y-82130000D01*
X166771500Y-82147000D01*
X166790500Y-82166000D01*
X166808500Y-82185000D01*
X166825500Y-82205000D01*
X166842500Y-82226000D01*
X166857500Y-82248000D01*
X166871500Y-82271000D01*
X166883500Y-82294000D01*
X166895500Y-82318000D01*
X166905500Y-82343000D01*
X166914500Y-82368000D01*
X166921500Y-82393000D01*
X166927500Y-82419000D01*
X166932500Y-82445000D01*
X166936500Y-82471000D01*
X166938500Y-82498000D01*
X166939500Y-82527000D01*
X166938500Y-82551000D01*
X166936500Y-82577000D01*
X166932500Y-82603000D01*
X166928500Y-82629000D01*
X166921500Y-82655000D01*
X166914500Y-82680000D01*
X166905500Y-82705000D01*
X166895500Y-82729000D01*
X166884500Y-82753000D01*
X166871500Y-82776000D01*
X166857500Y-82798000D01*
X166843500Y-82820000D01*
X166827500Y-82841000D01*
X166809500Y-82861000D01*
X166791500Y-82880000D01*
X166772500Y-82898000D01*
X166752500Y-82915000D01*
X166731500Y-82931000D01*
X166710500Y-82946000D01*
X166687500Y-82960000D01*
X166664500Y-82972000D01*
X166640500Y-82984000D01*
X166616500Y-82994000D01*
X166591500Y-83002000D01*
X166566500Y-83010000D01*
X166540500Y-83016000D01*
X166515500Y-83021000D01*
X166489500Y-83024000D01*
X166462500Y-83026000D01*
X166434500Y-83027000D01*
X166434000Y-83027000D01*
X165543500Y-83027000D01*
X165515500Y-83026000D01*
X165488500Y-83024000D01*
X165462500Y-83021000D01*
X165437500Y-83016000D01*
X165411500Y-83010000D01*
X165386500Y-83002000D01*
X165361500Y-82994000D01*
X165337500Y-82984000D01*
X165313500Y-82972000D01*
X165290500Y-82960000D01*
X165267500Y-82946000D01*
X165246500Y-82931000D01*
X165225500Y-82915000D01*
X165205500Y-82898000D01*
X165186500Y-82880000D01*
X165168500Y-82861000D01*
X165150500Y-82841000D01*
X165134500Y-82820000D01*
X165120500Y-82798000D01*
X165106500Y-82776000D01*
X165093500Y-82753000D01*
X165082500Y-82729000D01*
X165072500Y-82705000D01*
X165063500Y-82680000D01*
X165056500Y-82655000D01*
X165049500Y-82629000D01*
X165045500Y-82603000D01*
X165041500Y-82577000D01*
X165039500Y-82551000D01*
X165039500Y-82527000D01*
X165039500Y-82498000D01*
X165041500Y-82471000D01*
X165045500Y-82445000D01*
X165050500Y-82419000D01*
X165056500Y-82393000D01*
X165063500Y-82368000D01*
X165072500Y-82343000D01*
X165082500Y-82318000D01*
X165094500Y-82294000D01*
X165106500Y-82271000D01*
X165120500Y-82248000D01*
X165135500Y-82226000D01*
X165152500Y-82205000D01*
X165169500Y-82185000D01*
X165187500Y-82166000D01*
X165206500Y-82147000D01*
X165227500Y-82130000D01*
X165248500Y-82114000D01*
X165270500Y-82099000D01*
X165292500Y-82085000D01*
X165316500Y-82072000D01*
X165340500Y-82061000D01*
X165364500Y-82051000D01*
X165389500Y-82042000D01*
X165415500Y-82034000D01*
X165440500Y-82028000D01*
X165467500Y-82023000D01*
X165493500Y-82020000D01*
X165519500Y-82018000D01*
X165543500Y-82017000D01*
X166434500Y-82017000D01*
X166458500Y-82018000D01*
%TA.AperFunction,EtchedComponent*%
G36*
X166458500Y-82018000D02*
G01*
X166484500Y-82020000D01*
X166510500Y-82023000D01*
X166537500Y-82028000D01*
X166562500Y-82034000D01*
X166588500Y-82042000D01*
X166613500Y-82051000D01*
X166637500Y-82061000D01*
X166661500Y-82072000D01*
X166685500Y-82085000D01*
X166707500Y-82099000D01*
X166729500Y-82114000D01*
X166750500Y-82130000D01*
X166771500Y-82147000D01*
X166790500Y-82166000D01*
X166808500Y-82185000D01*
X166825500Y-82205000D01*
X166842500Y-82226000D01*
X166857500Y-82248000D01*
X166871500Y-82271000D01*
X166883500Y-82294000D01*
X166895500Y-82318000D01*
X166905500Y-82343000D01*
X166914500Y-82368000D01*
X166921500Y-82393000D01*
X166927500Y-82419000D01*
X166932500Y-82445000D01*
X166936500Y-82471000D01*
X166938500Y-82498000D01*
X166939500Y-82527000D01*
X166938500Y-82551000D01*
X166936500Y-82577000D01*
X166932500Y-82603000D01*
X166928500Y-82629000D01*
X166921500Y-82655000D01*
X166914500Y-82680000D01*
X166905500Y-82705000D01*
X166895500Y-82729000D01*
X166884500Y-82753000D01*
X166871500Y-82776000D01*
X166857500Y-82798000D01*
X166843500Y-82820000D01*
X166827500Y-82841000D01*
X166809500Y-82861000D01*
X166791500Y-82880000D01*
X166772500Y-82898000D01*
X166752500Y-82915000D01*
X166731500Y-82931000D01*
X166710500Y-82946000D01*
X166687500Y-82960000D01*
X166664500Y-82972000D01*
X166640500Y-82984000D01*
X166616500Y-82994000D01*
X166591500Y-83002000D01*
X166566500Y-83010000D01*
X166540500Y-83016000D01*
X166515500Y-83021000D01*
X166489500Y-83024000D01*
X166462500Y-83026000D01*
X166434500Y-83027000D01*
X166434000Y-83027000D01*
X165543500Y-83027000D01*
X165515500Y-83026000D01*
X165488500Y-83024000D01*
X165462500Y-83021000D01*
X165437500Y-83016000D01*
X165411500Y-83010000D01*
X165386500Y-83002000D01*
X165361500Y-82994000D01*
X165337500Y-82984000D01*
X165313500Y-82972000D01*
X165290500Y-82960000D01*
X165267500Y-82946000D01*
X165246500Y-82931000D01*
X165225500Y-82915000D01*
X165205500Y-82898000D01*
X165186500Y-82880000D01*
X165168500Y-82861000D01*
X165150500Y-82841000D01*
X165134500Y-82820000D01*
X165120500Y-82798000D01*
X165106500Y-82776000D01*
X165093500Y-82753000D01*
X165082500Y-82729000D01*
X165072500Y-82705000D01*
X165063500Y-82680000D01*
X165056500Y-82655000D01*
X165049500Y-82629000D01*
X165045500Y-82603000D01*
X165041500Y-82577000D01*
X165039500Y-82551000D01*
X165039500Y-82527000D01*
X165039500Y-82498000D01*
X165041500Y-82471000D01*
X165045500Y-82445000D01*
X165050500Y-82419000D01*
X165056500Y-82393000D01*
X165063500Y-82368000D01*
X165072500Y-82343000D01*
X165082500Y-82318000D01*
X165094500Y-82294000D01*
X165106500Y-82271000D01*
X165120500Y-82248000D01*
X165135500Y-82226000D01*
X165152500Y-82205000D01*
X165169500Y-82185000D01*
X165187500Y-82166000D01*
X165206500Y-82147000D01*
X165227500Y-82130000D01*
X165248500Y-82114000D01*
X165270500Y-82099000D01*
X165292500Y-82085000D01*
X165316500Y-82072000D01*
X165340500Y-82061000D01*
X165364500Y-82051000D01*
X165389500Y-82042000D01*
X165415500Y-82034000D01*
X165440500Y-82028000D01*
X165467500Y-82023000D01*
X165493500Y-82020000D01*
X165519500Y-82018000D01*
X165543500Y-82017000D01*
X166434500Y-82017000D01*
X166458500Y-82018000D01*
G37*
%TD.AperFunction*%
D11*
%TA.AperFunction,EtchedComponent*%
%TO.C,JP1*%
G36*
X162683000Y-86660000D02*
G01*
X162183000Y-86660000D01*
X162183000Y-86060000D01*
X162683000Y-86060000D01*
X162683000Y-86660000D01*
G37*
%TD.AperFunction*%
%TD*%
D12*
%TO.P,J2,1,Pin_1*%
%TO.N,Net-(J2-Pin_1)*%
X162311000Y-89154000D03*
D13*
%TO.P,J2,2,Pin_2*%
%TO.N,GND*%
X159771000Y-89154000D03*
%TD*%
D12*
%TO.P,J4,1,Pin_1*%
%TO.N,/PB_OUT*%
X166370000Y-85481000D03*
D13*
%TO.P,J4,2,Pin_2*%
%TO.N,/PS_HOLD*%
X166370000Y-88021000D03*
%TO.P,J4,3,Pin_3*%
%TO.N,/BAT_SENSE*%
X166370000Y-90561000D03*
%TO.P,J4,4,Pin_4*%
%TO.N,GND*%
X166370000Y-93101000D03*
%TD*%
D14*
%TO.P,J8,S1,SHIELD*%
%TO.N,unconnected-(J8-SHIELD-PadS1)*%
X165989000Y-82527000D03*
%TO.P,J8,S4,SHIELD__3*%
%TO.N,unconnected-(J8-SHIELD__3-PadS4)*%
X165989000Y-74177000D03*
D15*
%TO.P,J8,S5,SHIELD__4*%
%TO.N,unconnected-(J8-SHIELD__4-PadS5)*%
X162989000Y-80577000D03*
%TO.P,J8,S6,SHIELD__5*%
%TO.N,unconnected-(J8-SHIELD__5-PadS6)*%
X162989000Y-76127000D03*
%TD*%
D12*
%TO.P,J3,1,Pin_1*%
%TO.N,/RST*%
X153670000Y-85471000D03*
D13*
%TO.P,J3,2,Pin_2*%
%TO.N,/INT*%
X153670000Y-88011000D03*
%TO.P,J3,3,Pin_3*%
%TO.N,/EN_DIV*%
X153670000Y-90551000D03*
%TO.P,J3,4,Pin_4*%
%TO.N,+3V3*%
X153670000Y-93091000D03*
%TD*%
D16*
%TO.P,R8,1*%
%TO.N,/EN*%
X156210000Y-85701500D03*
%TO.P,R8,2*%
%TO.N,/EN_DIV*%
X156210000Y-87526500D03*
%TD*%
D17*
%TO.P,D3,1,K*%
%TO.N,Net-(D3-K)*%
X154178000Y-80151000D03*
%TO.P,D3,2,A*%
%TO.N,Net-(D3-A)*%
X154178000Y-81901000D03*
%TD*%
D18*
%TO.P,TP4,1,1*%
%TO.N,VBUS*%
X164084000Y-78867000D03*
%TD*%
%TO.P,TP5,1,1*%
%TO.N,VDC*%
X166751000Y-95631000D03*
%TD*%
D19*
%TO.P,R6,1*%
%TO.N,+3V3*%
X158011500Y-83693000D03*
%TO.P,R6,2*%
%TO.N,/RST*%
X156186500Y-83693000D03*
%TD*%
D18*
%TO.P,TP2,1,1*%
%TO.N,GND*%
X165735000Y-76200000D03*
%TD*%
D19*
%TO.P,R9,1*%
%TO.N,VBUS*%
X158265500Y-81915000D03*
%TO.P,R9,2*%
%TO.N,Net-(D3-A)*%
X156440500Y-81915000D03*
%TD*%
D20*
%TO.P,C7,1*%
%TO.N,VBUS*%
X158596500Y-74549000D03*
%TO.P,C7,2*%
%TO.N,GND*%
X156871500Y-74549000D03*
%TD*%
D21*
%TO.P,C6,1*%
%TO.N,Net-(U1-C_SRD)*%
X161163000Y-79221500D03*
%TO.P,C6,2*%
%TO.N,GND*%
X161163000Y-77496500D03*
%TD*%
D20*
%TO.P,C5,1*%
%TO.N,/Vref*%
X158596500Y-76073000D03*
%TO.P,C5,2*%
%TO.N,GND*%
X156871500Y-76073000D03*
%TD*%
D22*
%TO.P,C4,1*%
%TO.N,+3V3*%
X156363500Y-93345000D03*
%TO.P,C4,2*%
%TO.N,GND*%
X158088500Y-93345000D03*
%TD*%
D21*
%TO.P,C1,1*%
%TO.N,VDC*%
X161544000Y-94969500D03*
%TO.P,C1,2*%
%TO.N,GND*%
X161544000Y-93244500D03*
%TD*%
D23*
%TO.P,R4,1*%
%TO.N,/BAT_SENSE*%
X164338000Y-91186000D03*
%TO.P,R4,2*%
%TO.N,GND*%
X164338000Y-89361000D03*
%TD*%
%TO.P,R5,1*%
%TO.N,+3V3*%
X159766000Y-84859500D03*
%TO.P,R5,2*%
%TO.N,/PB_OUT*%
X159766000Y-83034500D03*
%TD*%
D19*
%TO.P,R7,1*%
%TO.N,+3V3*%
X159766000Y-86487000D03*
%TO.P,R7,2*%
%TO.N,/INT*%
X157941000Y-86487000D03*
%TD*%
D16*
%TO.P,R10,1*%
%TO.N,/EN_DIV*%
X156210000Y-89003500D03*
%TO.P,R10,2*%
%TO.N,GND*%
X156210000Y-90828500D03*
%TD*%
D24*
%TO.P,R2,1*%
%TO.N,GND*%
X159996500Y-91313000D03*
%TO.P,R2,2*%
%TO.N,Net-(U2-PROG)*%
X161821500Y-91313000D03*
%TD*%
D25*
%TO.P,U1,1,Vcc*%
%TO.N,VBUS*%
X157518000Y-77490000D03*
%TO.P,U1,2,~{SR}*%
%TO.N,Net-(J2-Pin_1)*%
X157518000Y-77990000D03*
%TO.P,U1,3,Vref*%
%TO.N,/Vref*%
X157518000Y-78490000D03*
%TO.P,U1,4,PS_HOLD*%
%TO.N,/PS_HOLD*%
X157518000Y-78990000D03*
%TO.P,U1,5,C_SRD*%
%TO.N,Net-(U1-C_SRD)*%
X157518000Y-79490000D03*
%TO.P,U1,6,~{PB}*%
%TO.N,Net-(J2-Pin_1)*%
X157518000Y-79990000D03*
%TO.P,U1,7,~{VCC}_LO*%
%TO.N,Net-(D3-K)*%
X155918000Y-79990000D03*
%TO.P,U1,8,~{PB}_OUT*%
%TO.N,/PB_OUT*%
X155918000Y-79490000D03*
%TO.P,U1,9,~{EN}/EN*%
%TO.N,/EN*%
X155918000Y-78990000D03*
%TO.P,U1,10,~{RST}*%
%TO.N,/RST*%
X155918000Y-78490000D03*
%TO.P,U1,11,~{INT}*%
%TO.N,/INT*%
X155918000Y-77990000D03*
%TO.P,U1,12,GND*%
%TO.N,GND*%
X155918000Y-77490000D03*
%TD*%
D23*
%TO.P,R3,1*%
%TO.N,VDC*%
X163830000Y-95400500D03*
%TO.P,R3,2*%
%TO.N,/BAT_SENSE*%
X163830000Y-93575500D03*
%TD*%
D24*
%TO.P,R1,1*%
%TO.N,Net-(D1-A)*%
X152757500Y-96012000D03*
%TO.P,R1,2*%
%TO.N,VBUS*%
X154582500Y-96012000D03*
%TD*%
D21*
%TO.P,C2,1*%
%TO.N,VBUS*%
X160020000Y-95096500D03*
%TO.P,C2,2*%
%TO.N,GND*%
X160020000Y-93371500D03*
%TD*%
D22*
%TO.P,C3,1*%
%TO.N,+3V3*%
X156363500Y-94869000D03*
%TO.P,C3,2*%
%TO.N,GND*%
X158088500Y-94869000D03*
%TD*%
D26*
%TO.P,JP1,1,A*%
%TO.N,/PS_HOLD*%
X163083000Y-86360000D03*
%TO.P,JP1,2,B*%
%TO.N,+3V3*%
X161783000Y-86360000D03*
%TD*%
D27*
%TO.N,VDC*%
X162433000Y-96139000D03*
%TO.N,GND*%
X155067000Y-75946000D03*
%TO.N,VBUS*%
X157988000Y-96139000D03*
X165100000Y-95504000D03*
%TO.N,Net-(D1-A)*%
X158242000Y-92202000D03*
%TO.N,Net-(U2-PROG)*%
X163195000Y-92202000D03*
%TO.N,Net-(J2-Pin_1)*%
X159004000Y-80391000D03*
X158623000Y-78232000D03*
%TO.N,/PS_HOLD*%
X159639000Y-78740000D03*
%TD*%
D28*
%TO.N,VDC*%
X161544000Y-95250000D02*
X162433000Y-96139000D01*
X161544000Y-94969500D02*
X161544000Y-95250000D01*
X163830000Y-95400500D02*
X163171500Y-95400500D01*
X163830000Y-95400500D02*
X164451500Y-94779000D01*
X163171500Y-95400500D02*
X162433000Y-96139000D01*
X164451500Y-94779000D02*
X165899000Y-94779000D01*
X165899000Y-94779000D02*
X166751000Y-95631000D01*
%TO.N,GND*%
X164338000Y-88831000D02*
X163486000Y-87979000D01*
X159996500Y-91313000D02*
X159996500Y-93348000D01*
X161163000Y-77496500D02*
X161163000Y-75782505D01*
X161544000Y-93244500D02*
X160147000Y-93244500D01*
X158088500Y-93345000D02*
X159993500Y-93345000D01*
X158096500Y-90828500D02*
X159771000Y-89154000D01*
X159040495Y-73660000D02*
X158623000Y-73660000D01*
X167545000Y-91926000D02*
X167545000Y-90074299D01*
X158088500Y-94869000D02*
X158522500Y-94869000D01*
X166831701Y-89361000D02*
X164338000Y-89361000D01*
X165735000Y-76200000D02*
X163195000Y-73660000D01*
X159996500Y-91313000D02*
X159996500Y-89379500D01*
X158623000Y-73660000D02*
X157760500Y-73660000D01*
X159996500Y-93348000D02*
X160020000Y-93371500D01*
X164338000Y-89361000D02*
X164338000Y-88831000D01*
X155067000Y-75946000D02*
X156744500Y-75946000D01*
X156871500Y-76536500D02*
X155918000Y-77490000D01*
X156210000Y-90828500D02*
X158096500Y-90828500D01*
X163195000Y-73660000D02*
X158623000Y-73660000D01*
X163486000Y-87979000D02*
X160946000Y-87979000D01*
X156871500Y-76073000D02*
X156871500Y-76536500D01*
X161163000Y-75782505D02*
X159040495Y-73660000D01*
X160946000Y-87979000D02*
X159771000Y-89154000D01*
X166370000Y-93101000D02*
X167545000Y-91926000D01*
X156871500Y-74549000D02*
X156871500Y-76073000D01*
X159993500Y-93345000D02*
X160020000Y-93371500D01*
X157760500Y-73660000D02*
X156871500Y-74549000D01*
X167545000Y-90074299D02*
X166831701Y-89361000D01*
X160147000Y-93244500D02*
X160020000Y-93371500D01*
X156744500Y-75946000D02*
X156871500Y-76073000D01*
X158522500Y-94869000D02*
X160020000Y-93371500D01*
%TO.N,VBUS*%
X158596500Y-74549000D02*
X159459000Y-75411500D01*
X163576000Y-78359000D02*
X160692505Y-78359000D01*
X167200000Y-96706000D02*
X167995000Y-95911000D01*
X158713000Y-96864000D02*
X157988000Y-96139000D01*
X159975340Y-81915000D02*
X158265500Y-81915000D01*
X160020000Y-95885000D02*
X159766000Y-96139000D01*
X167995000Y-82778000D02*
X164084000Y-78867000D01*
X154582500Y-96012000D02*
X154709500Y-96139000D01*
X159459000Y-77125495D02*
X159459000Y-76073000D01*
X164084000Y-78867000D02*
X163023340Y-78867000D01*
X154709500Y-96139000D02*
X157988000Y-96139000D01*
X160692505Y-78359000D02*
X159459000Y-77125495D01*
X160020000Y-95096500D02*
X160020000Y-95885000D01*
X167995000Y-95911000D02*
X167995000Y-82778000D01*
X159220000Y-76782495D02*
X159459000Y-76543495D01*
X158512495Y-77490000D02*
X157518000Y-77490000D01*
X159459000Y-75411500D02*
X159459000Y-76073000D01*
X159220000Y-76782496D02*
X159459000Y-76543495D01*
X159766000Y-96139000D02*
X157988000Y-96139000D01*
X159459000Y-76073000D02*
X159459000Y-76543495D01*
X159459000Y-76543495D02*
X158512495Y-77490000D01*
X166302000Y-96706000D02*
X167200000Y-96706000D01*
X163023340Y-78867000D02*
X159975340Y-81915000D01*
X165100000Y-95504000D02*
X163740000Y-96864000D01*
X163740000Y-96864000D02*
X158713000Y-96864000D01*
X165100000Y-95504000D02*
X166302000Y-96706000D01*
%TO.N,+3V3*%
X161783000Y-86360000D02*
X159893000Y-86360000D01*
X159893000Y-86360000D02*
X159766000Y-86487000D01*
X156363500Y-93345000D02*
X156363500Y-94869000D01*
X154813000Y-91948000D02*
X153670000Y-93091000D01*
X159766000Y-86487000D02*
X159766000Y-84859500D01*
X154813000Y-90942505D02*
X154813000Y-91948000D01*
X158011500Y-83693000D02*
X158599500Y-83693000D01*
X156618000Y-90016000D02*
X155739505Y-90016000D01*
X156109500Y-93091000D02*
X153670000Y-93091000D01*
X158599500Y-83693000D02*
X159766000Y-84859500D01*
X156363500Y-93345000D02*
X156109500Y-93091000D01*
X155739505Y-90016000D02*
X154813000Y-90942505D01*
X159766000Y-86487000D02*
X159766000Y-86868000D01*
X159766000Y-86868000D02*
X156618000Y-90016000D01*
%TO.N,/Vref*%
X157057896Y-76986500D02*
X156718000Y-77326396D01*
X156718000Y-77326396D02*
X156718000Y-78315000D01*
X156718000Y-78315000D02*
X156893000Y-78490000D01*
X158596500Y-76226500D02*
X157836500Y-76986500D01*
X157836500Y-76986500D02*
X157057896Y-76986500D01*
X156893000Y-78490000D02*
X157518000Y-78490000D01*
X158596500Y-76073000D02*
X158596500Y-76226500D01*
%TO.N,Net-(U1-C_SRD)*%
X160894500Y-79490000D02*
X157518000Y-79490000D01*
X161163000Y-79221500D02*
X160894500Y-79490000D01*
%TO.N,Net-(D1-A)*%
X156896495Y-95669000D02*
X155522495Y-95669000D01*
X155065495Y-95212000D02*
X153557500Y-95212000D01*
X155522495Y-95669000D02*
X155065495Y-95212000D01*
X157226000Y-92874505D02*
X157226000Y-95339495D01*
X153557500Y-95212000D02*
X152757500Y-96012000D01*
X158242000Y-92202000D02*
X157898505Y-92202000D01*
X157226000Y-95339495D02*
X156896495Y-95669000D01*
X157898505Y-92202000D02*
X157226000Y-92874505D01*
%TO.N,Net-(D3-K)*%
X154178000Y-80151000D02*
X155757000Y-80151000D01*
X155757000Y-80151000D02*
X155918000Y-79990000D01*
%TO.N,Net-(D3-A)*%
X156426500Y-81901000D02*
X156440500Y-81915000D01*
X154178000Y-81901000D02*
X156426500Y-81901000D01*
%TO.N,Net-(U2-PROG)*%
X163195000Y-92202000D02*
X162710500Y-92202000D01*
X162710500Y-92202000D02*
X161821500Y-91313000D01*
%TO.N,/BAT_SENSE*%
X164338000Y-91186000D02*
X165745000Y-91186000D01*
X164338000Y-91186000D02*
X164338000Y-93067500D01*
X164338000Y-93067500D02*
X163830000Y-93575500D01*
X165745000Y-91186000D02*
X166370000Y-90561000D01*
%TO.N,/PB_OUT*%
X157253000Y-82196000D02*
X157253000Y-81356000D01*
X163136000Y-85285000D02*
X166174000Y-85285000D01*
X156593000Y-80696000D02*
X156593000Y-79540000D01*
X157950000Y-82893000D02*
X157253000Y-82196000D01*
X156593000Y-79540000D02*
X156543000Y-79490000D01*
X159766000Y-83034500D02*
X159624500Y-82893000D01*
X157253000Y-81356000D02*
X156593000Y-80696000D01*
X159624500Y-82893000D02*
X157950000Y-82893000D01*
X160885500Y-83034500D02*
X159766000Y-83034500D01*
X156543000Y-79490000D02*
X155918000Y-79490000D01*
X163136000Y-85285000D02*
X160885500Y-83034500D01*
%TO.N,/RST*%
X153793000Y-78490000D02*
X152928000Y-79355000D01*
X152928000Y-84729000D02*
X153670000Y-85471000D01*
X156186500Y-83693000D02*
X155194000Y-83693000D01*
X152928000Y-79355000D02*
X152928000Y-84729000D01*
X155194000Y-83693000D02*
X153416000Y-85471000D01*
X153793000Y-78490000D02*
X155918000Y-78490000D01*
X153416000Y-85471000D02*
X152928000Y-84983000D01*
%TO.N,/INT*%
X157914000Y-86514000D02*
X155167000Y-86514000D01*
X155918000Y-77990000D02*
X153656604Y-77990000D01*
X153656604Y-77990000D02*
X152478000Y-79168604D01*
X152478000Y-79168604D02*
X152478000Y-86819000D01*
X157941000Y-86487000D02*
X157914000Y-86514000D01*
X152478000Y-86819000D02*
X153670000Y-88011000D01*
X155167000Y-86514000D02*
X153670000Y-88011000D01*
%TO.N,/EN*%
X156210000Y-85701500D02*
X156210000Y-85447500D01*
X154018505Y-78990000D02*
X153378000Y-79630505D01*
X157199000Y-83312000D02*
X156638000Y-82751000D01*
X156210000Y-85447500D02*
X157199000Y-84458500D01*
X155918000Y-78990000D02*
X154018505Y-78990000D01*
X153490000Y-82751000D02*
X153378000Y-82639000D01*
X156638000Y-82751000D02*
X153490000Y-82751000D01*
X153378000Y-82639000D02*
X153378000Y-79630505D01*
X157199000Y-84458500D02*
X157199000Y-83312000D01*
%TO.N,/EN_DIV*%
X156210000Y-87526500D02*
X156210000Y-89003500D01*
X156210000Y-89003500D02*
X155217500Y-89003500D01*
X155217500Y-89003500D02*
X153670000Y-90551000D01*
%TO.N,Net-(J2-Pin_1)*%
X159004000Y-80391000D02*
X157919000Y-80391000D01*
X157919000Y-80391000D02*
X157518000Y-79990000D01*
X158381000Y-77990000D02*
X158623000Y-78232000D01*
X157518000Y-77990000D02*
X158381000Y-77990000D01*
%TO.N,/PS_HOLD*%
X163083000Y-86360000D02*
X164709000Y-86360000D01*
X164709000Y-86360000D02*
X166370000Y-88021000D01*
X157518000Y-78990000D02*
X159389000Y-78990000D01*
X159389000Y-78990000D02*
X159639000Y-78740000D01*
%TD*%
%TA.AperFunction,Conductor*%
%TO.N,GND*%
G36*
X158354701Y-89266400D02*
G01*
X158410634Y-89308272D01*
X158434895Y-89371769D01*
X158436431Y-89389318D01*
X158436432Y-89389326D01*
X158497566Y-89617483D01*
X158497570Y-89617492D01*
X158597399Y-89831578D01*
X158732894Y-90025082D01*
X158899917Y-90192105D01*
X159093422Y-90327600D01*
X159093424Y-90327601D01*
X159177070Y-90366606D01*
X159229510Y-90412778D01*
X159248662Y-90479971D01*
X159228447Y-90546853D01*
X159212348Y-90566668D01*
X159164055Y-90614961D01*
X159164052Y-90614965D01*
X159073551Y-90761688D01*
X159073546Y-90761699D01*
X159019319Y-90925347D01*
X159009000Y-91026345D01*
X159009000Y-91063000D01*
X159746500Y-91063000D01*
X159746500Y-90547000D01*
X159645000Y-90547000D01*
X159577961Y-90527315D01*
X159532206Y-90474511D01*
X159521000Y-90423000D01*
X159521000Y-89587012D01*
X159578007Y-89619925D01*
X159705174Y-89654000D01*
X159836826Y-89654000D01*
X159963993Y-89619925D01*
X160021000Y-89587012D01*
X160021000Y-90295000D01*
X160122500Y-90295000D01*
X160189539Y-90314685D01*
X160235294Y-90367489D01*
X160246500Y-90419000D01*
X160246500Y-92298656D01*
X160267166Y-92336503D01*
X160270000Y-92362861D01*
X160270000Y-93121500D01*
X160526000Y-93121500D01*
X160526000Y-93118500D01*
X160545685Y-93051461D01*
X160598489Y-93005706D01*
X160650000Y-92994500D01*
X162518997Y-92994500D01*
X162542900Y-92970597D01*
X162604223Y-92937112D01*
X162673915Y-92942096D01*
X162703466Y-92957958D01*
X162742270Y-92986151D01*
X162801081Y-93012335D01*
X162854315Y-93057584D01*
X162874636Y-93124433D01*
X162868348Y-93164616D01*
X162864826Y-93175243D01*
X162854500Y-93276315D01*
X162854500Y-93874669D01*
X162854501Y-93874687D01*
X162864825Y-93975752D01*
X162899705Y-94081011D01*
X162915772Y-94129498D01*
X162919092Y-94139515D01*
X162919093Y-94139518D01*
X163009661Y-94286351D01*
X163123629Y-94400319D01*
X163157114Y-94461642D01*
X163152130Y-94531334D01*
X163123629Y-94575681D01*
X163009660Y-94689649D01*
X163009659Y-94689650D01*
X162947154Y-94790986D01*
X162895206Y-94837710D01*
X162889070Y-94840448D01*
X162875221Y-94846184D01*
X162875217Y-94846186D01*
X162772766Y-94914641D01*
X162772763Y-94914644D01*
X162731180Y-94956228D01*
X162669857Y-94989713D01*
X162600165Y-94984729D01*
X162544232Y-94942857D01*
X162519815Y-94877393D01*
X162519499Y-94868547D01*
X162519499Y-94620330D01*
X162519498Y-94620313D01*
X162509174Y-94519247D01*
X162490085Y-94461642D01*
X162454908Y-94355484D01*
X162364340Y-94208650D01*
X162350017Y-94194327D01*
X162316532Y-94133004D01*
X162321516Y-94063312D01*
X162350021Y-94018960D01*
X162363947Y-94005035D01*
X162454448Y-93858311D01*
X162454453Y-93858300D01*
X162508680Y-93694652D01*
X162518999Y-93593654D01*
X162519000Y-93593641D01*
X162519000Y-93494500D01*
X161038000Y-93494500D01*
X161038000Y-93497500D01*
X161018315Y-93564539D01*
X160965511Y-93610294D01*
X160914000Y-93621500D01*
X159079862Y-93621500D01*
X159012823Y-93601815D01*
X159004366Y-93595000D01*
X158338500Y-93595000D01*
X158338500Y-94995000D01*
X158318815Y-95062039D01*
X158266011Y-95107794D01*
X158214500Y-95119000D01*
X157975500Y-95119000D01*
X157908461Y-95099315D01*
X157862706Y-95046511D01*
X157851500Y-94995000D01*
X157851500Y-93219000D01*
X157871185Y-93151961D01*
X157923989Y-93106206D01*
X157975500Y-93095000D01*
X158099038Y-93095000D01*
X158124818Y-93097710D01*
X158129074Y-93098614D01*
X158147354Y-93102500D01*
X158147355Y-93102500D01*
X158336645Y-93102500D01*
X158336646Y-93102500D01*
X158355907Y-93098405D01*
X158359182Y-93097710D01*
X158384962Y-93095000D01*
X159091138Y-93095000D01*
X159158177Y-93114685D01*
X159166634Y-93121500D01*
X159770000Y-93121500D01*
X159770000Y-92323341D01*
X159749334Y-92285495D01*
X159746500Y-92259137D01*
X159746500Y-91563000D01*
X158989324Y-91563000D01*
X158971338Y-91572820D01*
X158901647Y-91567833D01*
X158852836Y-91534626D01*
X158847871Y-91529112D01*
X158847870Y-91529111D01*
X158694734Y-91417851D01*
X158694729Y-91417848D01*
X158521807Y-91340857D01*
X158521802Y-91340855D01*
X158376001Y-91309865D01*
X158336646Y-91301500D01*
X158147354Y-91301500D01*
X158114897Y-91308398D01*
X157962197Y-91340855D01*
X157962192Y-91340857D01*
X157789270Y-91417848D01*
X157789265Y-91417851D01*
X157636129Y-91529111D01*
X157509466Y-91669785D01*
X157467543Y-91742395D01*
X157447838Y-91768074D01*
X156875683Y-92340230D01*
X156814360Y-92373715D01*
X156775401Y-92375907D01*
X156712680Y-92369500D01*
X156014330Y-92369500D01*
X156014312Y-92369501D01*
X155913247Y-92379825D01*
X155913244Y-92379826D01*
X155768680Y-92427731D01*
X155749484Y-92434092D01*
X155728494Y-92447038D01*
X155663398Y-92465500D01*
X155451489Y-92465500D01*
X155384450Y-92445815D01*
X155338695Y-92393011D01*
X155328751Y-92323853D01*
X155348388Y-92272608D01*
X155367309Y-92244290D01*
X155367312Y-92244286D01*
X155410345Y-92140393D01*
X155414463Y-92130452D01*
X155436522Y-92019549D01*
X155436522Y-92019548D01*
X155436523Y-92019548D01*
X155436523Y-92019543D01*
X155438500Y-92009607D01*
X155438500Y-91886393D01*
X155438500Y-91837808D01*
X155458185Y-91770769D01*
X155510989Y-91725014D01*
X155580147Y-91715070D01*
X155627599Y-91732270D01*
X155658697Y-91751452D01*
X155658699Y-91751453D01*
X155822347Y-91805680D01*
X155923352Y-91815999D01*
X155960000Y-91815999D01*
X155960000Y-91078500D01*
X156460000Y-91078500D01*
X156460000Y-91815999D01*
X156496640Y-91815999D01*
X156496654Y-91815998D01*
X156597652Y-91805680D01*
X156761300Y-91751453D01*
X156761311Y-91751448D01*
X156908034Y-91660947D01*
X156908038Y-91660944D01*
X157029944Y-91539038D01*
X157029947Y-91539034D01*
X157120448Y-91392311D01*
X157120453Y-91392300D01*
X157174680Y-91228652D01*
X157184999Y-91127654D01*
X157185000Y-91127641D01*
X157185000Y-91078500D01*
X156460000Y-91078500D01*
X155960000Y-91078500D01*
X155960000Y-90765500D01*
X155979685Y-90698461D01*
X156032489Y-90652706D01*
X156084000Y-90641500D01*
X156679607Y-90641500D01*
X156740029Y-90629481D01*
X156800452Y-90617463D01*
X156800455Y-90617461D01*
X156800458Y-90617461D01*
X156833791Y-90603653D01*
X156833795Y-90603650D01*
X156852571Y-90595873D01*
X156871735Y-90587937D01*
X156919182Y-90578500D01*
X157184999Y-90578500D01*
X157184999Y-90529360D01*
X157184998Y-90529345D01*
X157174681Y-90428353D01*
X157173909Y-90424745D01*
X157174079Y-90422463D01*
X157173993Y-90421614D01*
X157174144Y-90421598D01*
X157179124Y-90355070D01*
X157207477Y-90311111D01*
X158223690Y-89294898D01*
X158285009Y-89261416D01*
X158354701Y-89266400D01*
G37*
%TD.AperFunction*%
%TA.AperFunction,Conductor*%
G36*
X164465587Y-87005185D02*
G01*
X164486229Y-87021819D01*
X165029762Y-87565352D01*
X165063247Y-87626675D01*
X165061856Y-87685126D01*
X165034938Y-87785586D01*
X165034936Y-87785596D01*
X165014341Y-88020999D01*
X165014341Y-88021000D01*
X165034936Y-88256403D01*
X165034937Y-88256410D01*
X165043019Y-88286569D01*
X165041356Y-88356419D01*
X165002194Y-88414282D01*
X164937965Y-88441786D01*
X164884241Y-88436369D01*
X164725653Y-88383819D01*
X164624654Y-88373500D01*
X164588000Y-88373500D01*
X164588000Y-89111000D01*
X165312997Y-89111000D01*
X165346154Y-89077843D01*
X165407477Y-89044358D01*
X165477169Y-89049342D01*
X165504959Y-89063949D01*
X165684158Y-89189425D01*
X165727783Y-89244002D01*
X165734977Y-89313500D01*
X165703454Y-89375855D01*
X165684158Y-89392575D01*
X165498597Y-89522505D01*
X165446422Y-89574681D01*
X165385099Y-89608166D01*
X165358741Y-89611000D01*
X164212000Y-89611000D01*
X164144961Y-89591315D01*
X164099206Y-89538511D01*
X164088000Y-89487000D01*
X164088000Y-88373500D01*
X164051361Y-88373500D01*
X164051343Y-88373501D01*
X163950346Y-88383819D01*
X163824502Y-88425519D01*
X163754674Y-88427920D01*
X163694632Y-88392188D01*
X163663440Y-88329668D01*
X163661499Y-88307813D01*
X163661499Y-88256129D01*
X163661498Y-88256123D01*
X163660454Y-88246413D01*
X163655091Y-88196517D01*
X163654002Y-88193598D01*
X163604797Y-88061671D01*
X163604793Y-88061664D01*
X163518547Y-87946455D01*
X163518544Y-87946452D01*
X163403335Y-87860206D01*
X163403328Y-87860202D01*
X163377800Y-87850681D01*
X163321866Y-87808810D01*
X163297449Y-87743345D01*
X163312301Y-87675072D01*
X163361706Y-87625667D01*
X163421132Y-87610499D01*
X163630872Y-87610499D01*
X163690483Y-87604091D01*
X163825331Y-87553796D01*
X163940546Y-87467546D01*
X164026796Y-87352331D01*
X164077091Y-87217483D01*
X164083500Y-87157873D01*
X164083500Y-87109500D01*
X164103185Y-87042461D01*
X164155989Y-86996706D01*
X164207500Y-86985500D01*
X164398548Y-86985500D01*
X164465587Y-87005185D01*
G37*
%TD.AperFunction*%
%TA.AperFunction,Conductor*%
G36*
X160723125Y-87163577D02*
G01*
X160779059Y-87205448D01*
X160795974Y-87236426D01*
X160839202Y-87352328D01*
X160839206Y-87352335D01*
X160925452Y-87467544D01*
X160925455Y-87467547D01*
X161040664Y-87553793D01*
X161040671Y-87553797D01*
X161071652Y-87565352D01*
X161175517Y-87604091D01*
X161220302Y-87608906D01*
X161284849Y-87635641D01*
X161324698Y-87693033D01*
X161327193Y-87762858D01*
X161291541Y-87822948D01*
X161250380Y-87848375D01*
X161218672Y-87860202D01*
X161218664Y-87860206D01*
X161103455Y-87946452D01*
X161103452Y-87946455D01*
X161017206Y-88061664D01*
X161017202Y-88061671D01*
X160967997Y-88193598D01*
X160926126Y-88249532D01*
X160860661Y-88273949D01*
X160792388Y-88259097D01*
X160764134Y-88237946D01*
X160642082Y-88115894D01*
X160448578Y-87980399D01*
X160234492Y-87880570D01*
X160234483Y-87880566D01*
X160006326Y-87819432D01*
X160006315Y-87819430D01*
X159988775Y-87817896D01*
X159923706Y-87792444D01*
X159882727Y-87735853D01*
X159878849Y-87666091D01*
X159911897Y-87606691D01*
X160023866Y-87494722D01*
X160085183Y-87461241D01*
X160098927Y-87459051D01*
X160166253Y-87452174D01*
X160330016Y-87397908D01*
X160476850Y-87307340D01*
X160592114Y-87192075D01*
X160653433Y-87158593D01*
X160723125Y-87163577D01*
G37*
%TD.AperFunction*%
%TA.AperFunction,Conductor*%
G36*
X164778356Y-73298685D02*
G01*
X164824111Y-73351489D01*
X164834055Y-73420647D01*
X164805030Y-73484203D01*
X164801333Y-73488282D01*
X164797955Y-73491846D01*
X164789010Y-73501535D01*
X164771057Y-73521483D01*
X164744423Y-73553625D01*
X164728432Y-73574613D01*
X164703806Y-73609931D01*
X164675817Y-73653914D01*
X164662087Y-73676788D01*
X164649070Y-73699819D01*
X164629427Y-73738285D01*
X164618403Y-73762339D01*
X164611284Y-73778617D01*
X164601268Y-73802654D01*
X164592177Y-73826084D01*
X164583178Y-73851081D01*
X164571904Y-73886363D01*
X164564924Y-73911290D01*
X164563509Y-73916443D01*
X164556556Y-73942269D01*
X164556553Y-73942281D01*
X164544935Y-73997377D01*
X164536934Y-74049382D01*
X164532506Y-74087827D01*
X164532504Y-74087846D01*
X164531104Y-74106038D01*
X164530504Y-74113843D01*
X164529000Y-74153010D01*
X164529000Y-74206008D01*
X164530394Y-74243704D01*
X164532394Y-74270710D01*
X164536937Y-74310633D01*
X164540932Y-74336604D01*
X164544187Y-74355417D01*
X164549184Y-74381402D01*
X164553070Y-74399783D01*
X164559072Y-74425789D01*
X164559073Y-74425791D01*
X164564907Y-74448646D01*
X164571907Y-74473646D01*
X164583177Y-74508916D01*
X164583181Y-74508927D01*
X164592173Y-74533907D01*
X164598519Y-74550610D01*
X164608513Y-74575596D01*
X164625889Y-74614290D01*
X164637915Y-74638344D01*
X164641896Y-74646137D01*
X164641898Y-74646140D01*
X164653898Y-74669140D01*
X164670432Y-74698433D01*
X164680234Y-74714537D01*
X164684436Y-74721440D01*
X164695581Y-74738728D01*
X164698711Y-74743583D01*
X164713711Y-74765583D01*
X164738716Y-74799206D01*
X164755716Y-74820206D01*
X164763530Y-74829625D01*
X164780530Y-74849625D01*
X164780536Y-74849632D01*
X164798906Y-74870100D01*
X164816869Y-74889061D01*
X164816896Y-74889089D01*
X164816901Y-74889094D01*
X164826522Y-74898978D01*
X164826552Y-74899008D01*
X164845503Y-74917960D01*
X164845515Y-74917971D01*
X164845522Y-74917978D01*
X164866377Y-74936753D01*
X164885275Y-74953767D01*
X164885288Y-74953779D01*
X164906293Y-74970783D01*
X164918121Y-74980073D01*
X164939099Y-74996056D01*
X164939115Y-74996068D01*
X164960917Y-75011789D01*
X164976455Y-75022383D01*
X164982924Y-75026794D01*
X164991028Y-75032133D01*
X165036180Y-75085453D01*
X165046336Y-75146487D01*
X165045427Y-75156873D01*
X165735000Y-75846446D01*
X166347627Y-75233819D01*
X166408950Y-75200334D01*
X166433211Y-75197725D01*
X166433207Y-75197527D01*
X166434952Y-75197490D01*
X166455752Y-75197057D01*
X166479752Y-75196057D01*
X166497654Y-75194996D01*
X166523654Y-75192996D01*
X166543016Y-75191135D01*
X166569016Y-75188135D01*
X166603457Y-75182965D01*
X166630457Y-75177965D01*
X166656637Y-75172404D01*
X166681637Y-75166404D01*
X166712631Y-75157925D01*
X166738631Y-75149925D01*
X166761416Y-75142323D01*
X166786416Y-75133323D01*
X166809846Y-75124231D01*
X166833846Y-75114231D01*
X166850202Y-75107078D01*
X166874202Y-75096078D01*
X166904643Y-75080879D01*
X166928643Y-75067879D01*
X166959575Y-75049689D01*
X166959577Y-75049687D01*
X166959585Y-75049683D01*
X166968370Y-75044091D01*
X166981575Y-75035689D01*
X166995083Y-75026789D01*
X167017083Y-75011789D01*
X167038885Y-74996068D01*
X167059885Y-74980068D01*
X167071706Y-74970784D01*
X167092706Y-74953784D01*
X167132478Y-74917978D01*
X167151478Y-74898978D01*
X167161099Y-74889094D01*
X167179099Y-74870094D01*
X167197470Y-74849625D01*
X167214470Y-74829625D01*
X167222284Y-74820206D01*
X167239284Y-74799206D01*
X167264289Y-74765583D01*
X167279289Y-74743583D01*
X167293568Y-74721433D01*
X167307568Y-74698433D01*
X167324102Y-74669140D01*
X167336102Y-74646140D01*
X167340105Y-74638303D01*
X167352105Y-74614303D01*
X167369487Y-74575595D01*
X167379487Y-74550595D01*
X167385823Y-74533916D01*
X167394823Y-74508916D01*
X167406093Y-74473646D01*
X167413093Y-74448646D01*
X167418927Y-74425791D01*
X167424927Y-74399791D01*
X167428814Y-74381407D01*
X167433814Y-74355407D01*
X167437064Y-74336625D01*
X167441064Y-74310625D01*
X167445605Y-74270711D01*
X167447605Y-74243711D01*
X167448697Y-74223593D01*
X167449697Y-74194593D01*
X167449557Y-74155748D01*
X167448557Y-74131748D01*
X167447496Y-74113846D01*
X167445496Y-74087846D01*
X167441064Y-74049375D01*
X167433064Y-73997375D01*
X167421447Y-73942284D01*
X167414447Y-73916284D01*
X167413093Y-73911354D01*
X167406093Y-73886354D01*
X167394823Y-73851084D01*
X167385823Y-73826084D01*
X167376731Y-73802654D01*
X167366731Y-73778654D01*
X167363594Y-73771482D01*
X167359596Y-73762339D01*
X167359594Y-73762335D01*
X167359578Y-73762298D01*
X167348578Y-73738298D01*
X167348577Y-73738297D01*
X167348572Y-73738285D01*
X167328929Y-73699819D01*
X167328922Y-73699805D01*
X167315922Y-73676805D01*
X167302189Y-73653925D01*
X167292114Y-73638093D01*
X167274193Y-73609931D01*
X167249567Y-73574613D01*
X167233576Y-73553625D01*
X167233568Y-73553615D01*
X167206952Y-73521494D01*
X167188952Y-73501494D01*
X167180099Y-73491906D01*
X167180044Y-73491846D01*
X167176667Y-73488282D01*
X167144849Y-73426077D01*
X167151713Y-73356546D01*
X167195080Y-73301763D01*
X167261179Y-73279122D01*
X167266683Y-73279000D01*
X168151000Y-73279000D01*
X168218039Y-73298685D01*
X168263794Y-73351489D01*
X168275000Y-73403000D01*
X168275000Y-81874048D01*
X168255315Y-81941087D01*
X168202511Y-81986842D01*
X168133353Y-81996786D01*
X168069797Y-81967761D01*
X168063319Y-81961729D01*
X165342588Y-79240998D01*
X165309103Y-79179675D01*
X165310495Y-79121221D01*
X165320206Y-79084981D01*
X165320206Y-79084980D01*
X165320207Y-79084977D01*
X165339277Y-78867000D01*
X165320207Y-78649023D01*
X165263575Y-78437670D01*
X165171102Y-78239362D01*
X165171100Y-78239359D01*
X165171099Y-78239357D01*
X165045599Y-78060124D01*
X165045598Y-78060123D01*
X164890877Y-77905402D01*
X164711639Y-77779898D01*
X164711640Y-77779898D01*
X164711638Y-77779897D01*
X164587223Y-77721882D01*
X164513330Y-77687425D01*
X164513326Y-77687424D01*
X164513322Y-77687422D01*
X164301977Y-77630793D01*
X164084002Y-77611723D01*
X164083998Y-77611723D01*
X163938682Y-77624436D01*
X163866023Y-77630793D01*
X163866020Y-77630793D01*
X163654677Y-77687422D01*
X163654668Y-77687426D01*
X163580777Y-77721882D01*
X163528372Y-77733500D01*
X161037000Y-77733500D01*
X160969961Y-77713815D01*
X160924206Y-77661011D01*
X160913000Y-77609500D01*
X160913000Y-77246500D01*
X161413000Y-77246500D01*
X162137999Y-77246500D01*
X162137999Y-77243124D01*
X165045427Y-77243124D01*
X165107612Y-77286666D01*
X165305840Y-77379101D01*
X165305849Y-77379105D01*
X165517105Y-77435710D01*
X165517115Y-77435712D01*
X165734999Y-77454775D01*
X165735001Y-77454775D01*
X165952884Y-77435712D01*
X165952894Y-77435710D01*
X166164150Y-77379105D01*
X166164164Y-77379100D01*
X166362383Y-77286669D01*
X166362385Y-77286668D01*
X166424571Y-77243124D01*
X165735001Y-76553553D01*
X165735000Y-76553553D01*
X165045427Y-77243124D01*
X162137999Y-77243124D01*
X162137999Y-77147360D01*
X162137998Y-77147345D01*
X162128462Y-77053999D01*
X162141231Y-76985306D01*
X162189112Y-76934422D01*
X162256902Y-76917501D01*
X162323078Y-76939917D01*
X162330484Y-76945543D01*
X162354130Y-76964948D01*
X162402550Y-77004685D01*
X162585046Y-77102232D01*
X162783066Y-77162300D01*
X162783065Y-77162300D01*
X162801529Y-77164118D01*
X162989000Y-77182583D01*
X163194934Y-77162300D01*
X163392954Y-77102232D01*
X163575450Y-77004685D01*
X163735410Y-76873410D01*
X163866685Y-76713450D01*
X163964232Y-76530954D01*
X164024300Y-76332934D01*
X164037393Y-76200000D01*
X164480225Y-76200000D01*
X164499287Y-76417884D01*
X164499289Y-76417894D01*
X164555894Y-76629150D01*
X164555898Y-76629159D01*
X164648333Y-76827387D01*
X164691874Y-76889571D01*
X165381446Y-76200000D01*
X166088553Y-76200000D01*
X166778124Y-76889570D01*
X166821668Y-76827385D01*
X166821669Y-76827383D01*
X166914100Y-76629164D01*
X166914105Y-76629150D01*
X166970710Y-76417894D01*
X166970712Y-76417884D01*
X166989775Y-76200000D01*
X166989775Y-76199999D01*
X166970712Y-75982115D01*
X166970710Y-75982105D01*
X166914105Y-75770849D01*
X166914101Y-75770840D01*
X166821667Y-75572614D01*
X166821666Y-75572612D01*
X166778124Y-75510428D01*
X166778124Y-75510427D01*
X166088553Y-76199999D01*
X166088553Y-76200000D01*
X165381446Y-76200000D01*
X164691874Y-75510428D01*
X164648333Y-75572613D01*
X164555898Y-75770840D01*
X164555894Y-75770849D01*
X164499289Y-75982105D01*
X164499287Y-75982115D01*
X164480225Y-76199999D01*
X164480225Y-76200000D01*
X164037393Y-76200000D01*
X164044583Y-76127000D01*
X164024300Y-75921066D01*
X163964232Y-75723046D01*
X163866685Y-75540550D01*
X163814702Y-75477209D01*
X163735410Y-75380589D01*
X163575452Y-75249317D01*
X163575453Y-75249317D01*
X163575450Y-75249315D01*
X163392954Y-75151768D01*
X163194934Y-75091700D01*
X163194932Y-75091699D01*
X163194934Y-75091699D01*
X162989000Y-75071417D01*
X162783067Y-75091699D01*
X162585043Y-75151769D01*
X162499067Y-75197725D01*
X162402550Y-75249315D01*
X162402548Y-75249316D01*
X162402547Y-75249317D01*
X162242589Y-75380589D01*
X162111317Y-75540547D01*
X162111315Y-75540550D01*
X162072643Y-75612898D01*
X162013769Y-75723043D01*
X161953699Y-75921067D01*
X161933417Y-76127000D01*
X161953699Y-76332932D01*
X161984821Y-76435528D01*
X161985444Y-76505395D01*
X161948195Y-76564508D01*
X161884901Y-76594099D01*
X161815657Y-76584772D01*
X161801063Y-76577061D01*
X161714311Y-76523551D01*
X161714300Y-76523546D01*
X161550652Y-76469319D01*
X161449654Y-76459000D01*
X161413000Y-76459000D01*
X161413000Y-77246500D01*
X160913000Y-77246500D01*
X160913000Y-76459000D01*
X160876361Y-76459000D01*
X160876343Y-76459001D01*
X160775347Y-76469319D01*
X160611699Y-76523546D01*
X160611688Y-76523551D01*
X160464965Y-76614052D01*
X160464961Y-76614055D01*
X160343054Y-76735962D01*
X160314038Y-76783005D01*
X160262090Y-76829729D01*
X160193127Y-76840950D01*
X160129045Y-76813106D01*
X160090190Y-76755037D01*
X160084500Y-76717907D01*
X160084500Y-76605105D01*
X160084501Y-76605100D01*
X160084500Y-76481887D01*
X160084500Y-76011394D01*
X160084500Y-75349894D01*
X160060463Y-75229048D01*
X160013311Y-75115214D01*
X160013310Y-75115213D01*
X160013307Y-75115207D01*
X159944858Y-75012767D01*
X159944855Y-75012763D01*
X159854637Y-74922545D01*
X159854606Y-74922516D01*
X159670818Y-74738728D01*
X159637333Y-74677405D01*
X159634499Y-74651047D01*
X159634499Y-74262330D01*
X159634498Y-74262313D01*
X159624174Y-74161247D01*
X159622350Y-74155742D01*
X159569908Y-73997484D01*
X159479340Y-73850650D01*
X159357350Y-73728660D01*
X159266129Y-73672395D01*
X159210518Y-73638093D01*
X159210513Y-73638091D01*
X159209069Y-73637612D01*
X159046753Y-73583826D01*
X159046751Y-73583825D01*
X158945678Y-73573500D01*
X158247330Y-73573500D01*
X158247312Y-73573501D01*
X158146247Y-73583825D01*
X157982484Y-73638092D01*
X157982481Y-73638093D01*
X157835648Y-73728661D01*
X157821325Y-73742984D01*
X157760001Y-73776468D01*
X157690309Y-73771482D01*
X157645965Y-73742982D01*
X157632038Y-73729055D01*
X157632034Y-73729052D01*
X157485311Y-73638551D01*
X157485300Y-73638546D01*
X157321652Y-73584319D01*
X157220654Y-73574000D01*
X157121500Y-73574000D01*
X157121500Y-76199000D01*
X157101815Y-76266039D01*
X157049011Y-76311794D01*
X156997500Y-76323000D01*
X155834001Y-76323000D01*
X155834001Y-76359654D01*
X155844319Y-76460652D01*
X155898546Y-76624300D01*
X155898551Y-76624311D01*
X155930374Y-76675903D01*
X155948815Y-76743295D01*
X155944757Y-76756224D01*
X155998203Y-76780632D01*
X156004681Y-76786664D01*
X156006681Y-76788664D01*
X156040166Y-76849987D01*
X156043000Y-76876345D01*
X156043000Y-77240500D01*
X156023315Y-77307539D01*
X155970511Y-77353294D01*
X155919000Y-77364500D01*
X155917000Y-77364500D01*
X155849961Y-77344815D01*
X155804206Y-77292011D01*
X155793000Y-77240500D01*
X155793000Y-76874345D01*
X155795744Y-76865000D01*
X155520155Y-76865000D01*
X155460627Y-76871401D01*
X155460620Y-76871403D01*
X155325913Y-76921645D01*
X155325906Y-76921649D01*
X155210812Y-77007809D01*
X155210809Y-77007812D01*
X155124649Y-77122906D01*
X155124645Y-77122913D01*
X155074403Y-77257620D01*
X155072620Y-77265168D01*
X155070315Y-77264623D01*
X155048084Y-77318302D01*
X154990693Y-77358153D01*
X154951529Y-77364500D01*
X153594993Y-77364500D01*
X153534575Y-77376518D01*
X153491347Y-77385116D01*
X153474150Y-77388537D01*
X153427177Y-77407995D01*
X153427175Y-77407996D01*
X153360316Y-77435688D01*
X153350231Y-77442428D01*
X153350230Y-77442429D01*
X153257872Y-77504140D01*
X153214309Y-77547703D01*
X153170746Y-77591267D01*
X153170743Y-77591270D01*
X152079270Y-78682743D01*
X152079267Y-78682746D01*
X152035703Y-78726309D01*
X151992140Y-78769872D01*
X151992100Y-78769933D01*
X151992070Y-78769957D01*
X151988278Y-78774579D01*
X151987401Y-78773859D01*
X151938486Y-78814737D01*
X151869161Y-78823442D01*
X151806134Y-78793285D01*
X151769417Y-78733841D01*
X151765000Y-78701039D01*
X151765000Y-75823000D01*
X155834000Y-75823000D01*
X156621500Y-75823000D01*
X156621500Y-74799000D01*
X155834001Y-74799000D01*
X155834001Y-74835654D01*
X155844319Y-74936652D01*
X155898546Y-75100300D01*
X155898551Y-75100311D01*
X155988354Y-75245903D01*
X156006795Y-75313295D01*
X155988354Y-75376097D01*
X155898551Y-75521688D01*
X155898546Y-75521699D01*
X155844319Y-75685347D01*
X155834000Y-75786345D01*
X155834000Y-75823000D01*
X151765000Y-75823000D01*
X151765000Y-74299000D01*
X155834000Y-74299000D01*
X156621500Y-74299000D01*
X156621500Y-73573999D01*
X156522360Y-73574000D01*
X156522344Y-73574001D01*
X156421347Y-73584319D01*
X156257699Y-73638546D01*
X156257688Y-73638551D01*
X156110965Y-73729052D01*
X156110961Y-73729055D01*
X155989055Y-73850961D01*
X155989052Y-73850965D01*
X155898551Y-73997688D01*
X155898546Y-73997699D01*
X155844319Y-74161347D01*
X155834000Y-74262345D01*
X155834000Y-74299000D01*
X151765000Y-74299000D01*
X151765000Y-73403000D01*
X151784685Y-73335961D01*
X151837489Y-73290206D01*
X151889000Y-73279000D01*
X164711317Y-73279000D01*
X164778356Y-73298685D01*
G37*
%TD.AperFunction*%
%TD*%
M02*
