M48
INCH,TZ
T1C0.0157
T2C0.0236
T3C0.0276
T4C0.0394
%
G90
G05
T1
X61050Y-29900
X62200Y-37850
X62300Y-36300
X62450Y-30800
X62600Y-31650
X62850Y-31000
X63950Y-37850
X64250Y-36300
X65000Y-37600
T3
X64169Y-29971
X64169Y-31723
T4
X60500Y-33650
X60500Y-34650
X60500Y-35650
X60500Y-36650
X62902Y-35100
X63902Y-35100
X65500Y-33654
X65500Y-34654
X65500Y-35654
X65500Y-36654
T2
G00X65212Y-29204
M15
G01X65488Y-29204
M16
G05
G00X65212Y-32491
M15
G01X65488Y-32491
M16
G05
M30
