%TF.GenerationSoftware,KiCad,Pcbnew,8.0.1*%
%TF.CreationDate,2024-04-23T06:28:50-07:00*%
%TF.ProjectId,OnOffController,4f6e4f66-6643-46f6-9e74-726f6c6c6572,rev?*%
%TF.SameCoordinates,Original*%
%TF.FileFunction,Copper,L1,Top*%
%TF.FilePolarity,Positive*%
%FSLAX46Y46*%
G04 Gerber Fmt 4.6, Leading zero omitted, Abs format (unit mm)*
G04 Created by KiCad (PCBNEW 8.0.1) date 2024-04-23 06:28:50*
%MOMM*%
%LPD*%
G01*
G04 APERTURE LIST*
G04 Aperture macros list*
%AMRoundRect*
0 Rectangle with rounded corners*
0 $1 Rounding radius*
0 $2 $3 $4 $5 $6 $7 $8 $9 X,Y pos of 4 corners*
0 Add a 4 corners polygon primitive as box body*
4,1,4,$2,$3,$4,$5,$6,$7,$8,$9,$2,$3,0*
0 Add four circle primitives for the rounded corners*
1,1,$1+$1,$2,$3*
1,1,$1+$1,$4,$5*
1,1,$1+$1,$6,$7*
1,1,$1+$1,$8,$9*
0 Add four rect primitives between the rounded corners*
20,1,$1+$1,$2,$3,$4,$5,0*
20,1,$1+$1,$4,$5,$6,$7,0*
20,1,$1+$1,$6,$7,$8,$9,0*
20,1,$1+$1,$8,$9,$2,$3,0*%
G04 Aperture macros list end*
%TA.AperFunction,EtchedComponent*%
%ADD10C,0.010000*%
%TD*%
%TA.AperFunction,ComponentPad*%
%ADD11R,1.700000X1.700000*%
%TD*%
%TA.AperFunction,ComponentPad*%
%ADD12O,1.700000X1.700000*%
%TD*%
%TA.AperFunction,SMDPad,CuDef*%
%ADD13RoundRect,0.250000X-0.450000X0.325000X-0.450000X-0.325000X0.450000X-0.325000X0.450000X0.325000X0*%
%TD*%
%TA.AperFunction,SMDPad,CuDef*%
%ADD14RoundRect,0.150000X-0.512500X-0.150000X0.512500X-0.150000X0.512500X0.150000X-0.512500X0.150000X0*%
%TD*%
%TA.AperFunction,SMDPad,CuDef*%
%ADD15RoundRect,0.250000X0.250000X1.500000X-0.250000X1.500000X-0.250000X-1.500000X0.250000X-1.500000X0*%
%TD*%
%TA.AperFunction,SMDPad,CuDef*%
%ADD16RoundRect,0.250001X0.499999X1.449999X-0.499999X1.449999X-0.499999X-1.449999X0.499999X-1.449999X0*%
%TD*%
%TA.AperFunction,SMDPad,CuDef*%
%ADD17RoundRect,0.150000X0.512500X0.150000X-0.512500X0.150000X-0.512500X-0.150000X0.512500X-0.150000X0*%
%TD*%
%TA.AperFunction,SMDPad,CuDef*%
%ADD18R,1.350000X0.400000*%
%TD*%
%TA.AperFunction,ComponentPad*%
%ADD19O,1.900000X1.010000*%
%TD*%
%TA.AperFunction,SMDPad,CuDef*%
%ADD20R,1.900000X1.800000*%
%TD*%
%TA.AperFunction,ComponentPad*%
%ADD21C,1.100000*%
%TD*%
%TA.AperFunction,SMDPad,CuDef*%
%ADD22R,0.889000X0.990600*%
%TD*%
%TA.AperFunction,SMDPad,CuDef*%
%ADD23R,1.701800X0.558800*%
%TD*%
%TA.AperFunction,SMDPad,CuDef*%
%ADD24RoundRect,0.225000X0.375000X-0.225000X0.375000X0.225000X-0.375000X0.225000X-0.375000X-0.225000X0*%
%TD*%
%TA.AperFunction,ViaPad*%
%ADD25C,0.800000*%
%TD*%
%TA.AperFunction,Conductor*%
%ADD26C,0.250000*%
%TD*%
G04 APERTURE END LIST*
D10*
%TO.C,J8*%
X166939500Y-82527000D02*
X166938500Y-82553000D01*
X166936500Y-82579000D01*
X166932500Y-82605000D01*
X166928500Y-82631000D01*
X166921500Y-82656000D01*
X166914500Y-82682000D01*
X166905500Y-82706000D01*
X166895500Y-82730000D01*
X166884500Y-82754000D01*
X166872500Y-82777000D01*
X166858500Y-82799000D01*
X166843500Y-82821000D01*
X166827500Y-82842000D01*
X166810500Y-82862000D01*
X166792500Y-82881000D01*
X166773500Y-82899000D01*
X166753500Y-82916000D01*
X166732500Y-82932000D01*
X166711500Y-82946000D01*
X166689500Y-82960000D01*
X166665500Y-82973000D01*
X166642500Y-82984000D01*
X166618500Y-82994000D01*
X166593500Y-83003000D01*
X166568500Y-83010000D01*
X166542500Y-83016000D01*
X166517500Y-83021000D01*
X166491500Y-83024000D01*
X166465500Y-83026000D01*
X166439500Y-83027000D01*
X165538500Y-83027000D01*
X165512500Y-83026000D01*
X165486500Y-83024000D01*
X165460500Y-83021000D01*
X165435500Y-83016000D01*
X165409500Y-83010000D01*
X165384500Y-83003000D01*
X165359500Y-82994000D01*
X165335500Y-82984000D01*
X165312500Y-82973000D01*
X165289500Y-82960000D01*
X165266500Y-82946000D01*
X165245500Y-82932000D01*
X165224500Y-82916000D01*
X165204500Y-82899000D01*
X165185500Y-82881000D01*
X165167500Y-82862000D01*
X165150500Y-82842000D01*
X165134500Y-82821000D01*
X165119500Y-82799000D01*
X165105500Y-82777000D01*
X165093500Y-82754000D01*
X165082500Y-82730000D01*
X165072500Y-82706000D01*
X165063500Y-82682000D01*
X165056500Y-82656000D01*
X165049500Y-82631000D01*
X165045500Y-82605000D01*
X165041500Y-82579000D01*
X165039500Y-82553000D01*
X165039500Y-82527000D01*
X165039000Y-80952000D01*
X165039500Y-80952000D01*
X166939500Y-80952000D01*
X166939500Y-82527000D01*
%TA.AperFunction,EtchedComponent*%
G36*
X166939500Y-82527000D02*
G01*
X166938500Y-82553000D01*
X166936500Y-82579000D01*
X166932500Y-82605000D01*
X166928500Y-82631000D01*
X166921500Y-82656000D01*
X166914500Y-82682000D01*
X166905500Y-82706000D01*
X166895500Y-82730000D01*
X166884500Y-82754000D01*
X166872500Y-82777000D01*
X166858500Y-82799000D01*
X166843500Y-82821000D01*
X166827500Y-82842000D01*
X166810500Y-82862000D01*
X166792500Y-82881000D01*
X166773500Y-82899000D01*
X166753500Y-82916000D01*
X166732500Y-82932000D01*
X166711500Y-82946000D01*
X166689500Y-82960000D01*
X166665500Y-82973000D01*
X166642500Y-82984000D01*
X166618500Y-82994000D01*
X166593500Y-83003000D01*
X166568500Y-83010000D01*
X166542500Y-83016000D01*
X166517500Y-83021000D01*
X166491500Y-83024000D01*
X166465500Y-83026000D01*
X166439500Y-83027000D01*
X165538500Y-83027000D01*
X165512500Y-83026000D01*
X165486500Y-83024000D01*
X165460500Y-83021000D01*
X165435500Y-83016000D01*
X165409500Y-83010000D01*
X165384500Y-83003000D01*
X165359500Y-82994000D01*
X165335500Y-82984000D01*
X165312500Y-82973000D01*
X165289500Y-82960000D01*
X165266500Y-82946000D01*
X165245500Y-82932000D01*
X165224500Y-82916000D01*
X165204500Y-82899000D01*
X165185500Y-82881000D01*
X165167500Y-82862000D01*
X165150500Y-82842000D01*
X165134500Y-82821000D01*
X165119500Y-82799000D01*
X165105500Y-82777000D01*
X165093500Y-82754000D01*
X165082500Y-82730000D01*
X165072500Y-82706000D01*
X165063500Y-82682000D01*
X165056500Y-82656000D01*
X165049500Y-82631000D01*
X165045500Y-82605000D01*
X165041500Y-82579000D01*
X165039500Y-82553000D01*
X165039500Y-82527000D01*
X165039000Y-80952000D01*
X165039500Y-80952000D01*
X166939500Y-80952000D01*
X166939500Y-82527000D01*
G37*
%TD.AperFunction*%
X166465500Y-73678000D02*
X166491500Y-73680000D01*
X166517500Y-73683000D01*
X166542500Y-73688000D01*
X166568500Y-73694000D01*
X166593500Y-73701000D01*
X166618500Y-73710000D01*
X166642500Y-73720000D01*
X166665500Y-73731000D01*
X166689500Y-73744000D01*
X166711500Y-73758000D01*
X166732500Y-73772000D01*
X166753500Y-73788000D01*
X166773500Y-73805000D01*
X166792500Y-73823000D01*
X166810500Y-73842000D01*
X166827500Y-73862000D01*
X166843500Y-73883000D01*
X166858500Y-73905000D01*
X166872500Y-73927000D01*
X166884500Y-73950000D01*
X166895500Y-73974000D01*
X166905500Y-73998000D01*
X166914500Y-74022000D01*
X166921500Y-74048000D01*
X166928500Y-74073000D01*
X166932500Y-74099000D01*
X166936500Y-74125000D01*
X166938500Y-74151000D01*
X166939500Y-74177000D01*
X166939000Y-75752000D01*
X165039500Y-75752000D01*
X165039500Y-74177000D01*
X165039500Y-74151000D01*
X165041500Y-74125000D01*
X165045500Y-74099000D01*
X165049500Y-74073000D01*
X165056500Y-74048000D01*
X165063500Y-74022000D01*
X165072500Y-73998000D01*
X165082500Y-73974000D01*
X165093500Y-73950000D01*
X165105500Y-73927000D01*
X165119500Y-73905000D01*
X165134500Y-73883000D01*
X165150500Y-73862000D01*
X165167500Y-73842000D01*
X165185500Y-73823000D01*
X165204500Y-73805000D01*
X165224500Y-73788000D01*
X165245500Y-73772000D01*
X165266500Y-73758000D01*
X165289500Y-73744000D01*
X165312500Y-73731000D01*
X165335500Y-73720000D01*
X165359500Y-73710000D01*
X165384500Y-73701000D01*
X165409500Y-73694000D01*
X165435500Y-73688000D01*
X165460500Y-73683000D01*
X165486500Y-73680000D01*
X165512500Y-73678000D01*
X165538500Y-73677000D01*
X166439500Y-73677000D01*
X166465500Y-73678000D01*
%TA.AperFunction,EtchedComponent*%
G36*
X166465500Y-73678000D02*
G01*
X166491500Y-73680000D01*
X166517500Y-73683000D01*
X166542500Y-73688000D01*
X166568500Y-73694000D01*
X166593500Y-73701000D01*
X166618500Y-73710000D01*
X166642500Y-73720000D01*
X166665500Y-73731000D01*
X166689500Y-73744000D01*
X166711500Y-73758000D01*
X166732500Y-73772000D01*
X166753500Y-73788000D01*
X166773500Y-73805000D01*
X166792500Y-73823000D01*
X166810500Y-73842000D01*
X166827500Y-73862000D01*
X166843500Y-73883000D01*
X166858500Y-73905000D01*
X166872500Y-73927000D01*
X166884500Y-73950000D01*
X166895500Y-73974000D01*
X166905500Y-73998000D01*
X166914500Y-74022000D01*
X166921500Y-74048000D01*
X166928500Y-74073000D01*
X166932500Y-74099000D01*
X166936500Y-74125000D01*
X166938500Y-74151000D01*
X166939500Y-74177000D01*
X166939000Y-75752000D01*
X165039500Y-75752000D01*
X165039500Y-74177000D01*
X165039500Y-74151000D01*
X165041500Y-74125000D01*
X165045500Y-74099000D01*
X165049500Y-74073000D01*
X165056500Y-74048000D01*
X165063500Y-74022000D01*
X165072500Y-73998000D01*
X165082500Y-73974000D01*
X165093500Y-73950000D01*
X165105500Y-73927000D01*
X165119500Y-73905000D01*
X165134500Y-73883000D01*
X165150500Y-73862000D01*
X165167500Y-73842000D01*
X165185500Y-73823000D01*
X165204500Y-73805000D01*
X165224500Y-73788000D01*
X165245500Y-73772000D01*
X165266500Y-73758000D01*
X165289500Y-73744000D01*
X165312500Y-73731000D01*
X165335500Y-73720000D01*
X165359500Y-73710000D01*
X165384500Y-73701000D01*
X165409500Y-73694000D01*
X165435500Y-73688000D01*
X165460500Y-73683000D01*
X165486500Y-73680000D01*
X165512500Y-73678000D01*
X165538500Y-73677000D01*
X166439500Y-73677000D01*
X166465500Y-73678000D01*
G37*
%TD.AperFunction*%
%TD*%
D11*
%TO.P,J2,1,Pin_1*%
%TO.N,Net-(J2-Pin_1)*%
X162311000Y-89154000D03*
D12*
%TO.P,J2,2,Pin_2*%
%TO.N,GND*%
X159771000Y-89154000D03*
%TD*%
D13*
%TO.P,D1,1,K*%
%TO.N,Net-(D1-K)*%
X156845000Y-89780000D03*
%TO.P,D1,2,A*%
%TO.N,Net-(D1-A)*%
X156845000Y-91830000D03*
%TD*%
D14*
%TO.P,U2,1,STAT*%
%TO.N,Net-(D1-K)*%
X161295500Y-93538000D03*
%TO.P,U2,2,V_{SS}*%
%TO.N,GND*%
X161295500Y-94488000D03*
%TO.P,U2,3,V_{BAT}*%
%TO.N,VDC*%
X161295500Y-95438000D03*
%TO.P,U2,4,V_{DD}*%
%TO.N,VBUS*%
X163570500Y-95438000D03*
%TO.P,U2,5,PROG*%
%TO.N,Net-(U2-PROG)*%
X163570500Y-93538000D03*
%TD*%
D15*
%TO.P,J1,1,1*%
%TO.N,VDC*%
X157258000Y-81188000D03*
%TO.P,J1,2,2*%
%TO.N,GND*%
X155258000Y-81188000D03*
D16*
%TO.P,J1,MP*%
%TO.N,N/C*%
X159608000Y-75438000D03*
X152908000Y-75438000D03*
%TD*%
D11*
%TO.P,J4,1,Pin_1*%
%TO.N,/PB_OUT*%
X166370000Y-85481000D03*
D12*
%TO.P,J4,2,Pin_2*%
%TO.N,/PS_HOLD*%
X166370000Y-88021000D03*
%TO.P,J4,3,Pin_3*%
%TO.N,/BAT_SENSE*%
X166370000Y-90561000D03*
%TO.P,J4,4,Pin_4*%
%TO.N,GND*%
X166370000Y-93101000D03*
%TD*%
D17*
%TO.P,U3,1,IN*%
%TO.N,VBUS*%
X158993000Y-95372000D03*
%TO.P,U3,2,GND*%
%TO.N,GND*%
X158993000Y-94422000D03*
%TO.P,U3,3,EN*%
%TO.N,/EN_DIV*%
X158993000Y-93472000D03*
%TO.P,U3,4,ADJ*%
%TO.N,unconnected-(U3-ADJ-Pad4)*%
X156718000Y-93472000D03*
%TO.P,U3,5,OUT*%
%TO.N,+3V3*%
X156718000Y-95372000D03*
%TD*%
D18*
%TO.P,J8,1,VBUS*%
%TO.N,VBUS*%
X163314000Y-79652000D03*
%TO.P,J8,2,D-*%
%TO.N,unconnected-(J8-D--Pad2)*%
X163314000Y-79002000D03*
%TO.P,J8,3,D+*%
%TO.N,unconnected-(J8-D+-Pad3)*%
X163314000Y-78352000D03*
%TO.P,J8,4,ID*%
%TO.N,unconnected-(J8-ID-Pad4)*%
X163314000Y-77702000D03*
%TO.P,J8,5,GND*%
%TO.N,GND*%
X163314000Y-77052000D03*
D19*
%TO.P,J8,S1,SHIELD*%
%TO.N,unconnected-(J8-SHIELD-PadS1)*%
X165989000Y-82527000D03*
D20*
%TO.P,J8,S2,SHIELD__1*%
%TO.N,unconnected-(J8-SHIELD__1-PadS2)*%
X165989000Y-79502000D03*
%TO.P,J8,S3,SHIELD__2*%
%TO.N,unconnected-(J8-SHIELD__2-PadS3)*%
X165989000Y-77202000D03*
D19*
%TO.P,J8,S4,SHIELD__3*%
%TO.N,unconnected-(J8-SHIELD__3-PadS4)*%
X165989000Y-74177000D03*
D21*
%TO.P,J8,S5,SHIELD__4*%
%TO.N,unconnected-(J8-SHIELD__4-PadS5)*%
X162989000Y-80577000D03*
%TO.P,J8,S6,SHIELD__5*%
%TO.N,unconnected-(J8-SHIELD__5-PadS6)*%
X162989000Y-76127000D03*
%TD*%
D22*
%TO.P,SW1,1,1*%
%TO.N,GND*%
X159113002Y-84543999D03*
%TO.P,SW1,2,2*%
%TO.N,Net-(J2-Pin_1)*%
X163212998Y-84543999D03*
%TO.P,SW1,3,3*%
%TO.N,GND*%
X159113002Y-86144001D03*
%TO.P,SW1,4,4*%
%TO.N,Net-(J2-Pin_1)*%
X163212998Y-86144001D03*
D23*
%TO.P,SW1,5,5*%
%TO.N,unconnected-(SW1-Pad5)*%
X161163000Y-86769001D03*
%TD*%
D11*
%TO.P,J3,1,Pin_1*%
%TO.N,/RST*%
X153670000Y-85471000D03*
D12*
%TO.P,J3,2,Pin_2*%
%TO.N,/INT*%
X153670000Y-88011000D03*
%TO.P,J3,3,Pin_3*%
%TO.N,/EN_DIV*%
X153670000Y-90551000D03*
%TO.P,J3,4,Pin_4*%
%TO.N,+3V3*%
X153670000Y-93091000D03*
%TD*%
D24*
%TO.P,D2,1,K*%
%TO.N,VBUS*%
X156718000Y-88138000D03*
%TO.P,D2,2,A*%
%TO.N,VDC*%
X156718000Y-84838000D03*
%TD*%
D25*
%TO.N,VDC*%
X162433000Y-96139000D03*
%TO.N,GND*%
X155067000Y-75946000D03*
%TO.N,VBUS*%
X157988000Y-96139000D03*
X165100000Y-95504000D03*
%TO.N,Net-(D1-A)*%
X158242000Y-92202000D03*
%TO.N,Net-(U2-PROG)*%
X163195000Y-92202000D03*
%TO.N,Net-(J2-Pin_1)*%
X159004000Y-80391000D03*
X158623000Y-78232000D03*
%TO.N,/PS_HOLD*%
X159639000Y-78740000D03*
%TD*%
D26*
%TO.N,VDC*%
X152045000Y-87974299D02*
X153373299Y-86646000D01*
X161295500Y-95438000D02*
X161732000Y-95438000D01*
X156718000Y-81728000D02*
X157258000Y-81188000D01*
X159996500Y-96864000D02*
X154774604Y-96864000D01*
X154910000Y-86646000D02*
X156718000Y-84838000D01*
X161422500Y-95438000D02*
X161859000Y-95438000D01*
X152045000Y-94134396D02*
X152045000Y-87974299D01*
X154774604Y-96864000D02*
X152045000Y-94134396D01*
X161732000Y-95438000D02*
X162433000Y-96139000D01*
X161295500Y-95565000D02*
X159996500Y-96864000D01*
X153373299Y-86646000D02*
X154910000Y-86646000D01*
X156718000Y-84838000D02*
X156718000Y-81728000D01*
X161295500Y-95438000D02*
X161295500Y-95565000D01*
%TO.N,GND*%
X163314000Y-77052000D02*
X162676563Y-77052000D01*
X165608000Y-84201000D02*
X167440000Y-84201000D01*
X164709000Y-77522000D02*
X164709000Y-83302000D01*
X164983000Y-94488000D02*
X161422500Y-94488000D01*
X162410000Y-91793000D02*
X162410000Y-93884751D01*
X159771000Y-89154000D02*
X162410000Y-91793000D01*
X161806751Y-94488000D02*
X162410000Y-93884751D01*
X161295500Y-94488000D02*
X161806751Y-94488000D01*
X155067000Y-81124000D02*
X155067000Y-75946000D01*
X167545000Y-91926000D02*
X166370000Y-93101000D01*
X166370000Y-93101000D02*
X164983000Y-94488000D01*
X167545000Y-84306000D02*
X167545000Y-91926000D01*
X159113002Y-88496002D02*
X159771000Y-89154000D01*
X155258000Y-81315000D02*
X155067000Y-81124000D01*
X157600000Y-73413000D02*
X155067000Y-75946000D01*
X164239000Y-77052000D02*
X164709000Y-77522000D01*
X162676563Y-77052000D02*
X162114000Y-76489437D01*
X158993000Y-94422000D02*
X161356500Y-94422000D01*
X163314000Y-77052000D02*
X164239000Y-77052000D01*
X160346172Y-73413000D02*
X157600000Y-73413000D01*
X159113002Y-84543999D02*
X159113002Y-86144001D01*
X164709000Y-83302000D02*
X165608000Y-84201000D01*
X161356500Y-94422000D02*
X161422500Y-94488000D01*
X159113002Y-86144001D02*
X159113002Y-88496002D01*
X162114000Y-75180828D02*
X160346172Y-73413000D01*
X167440000Y-84201000D02*
X167545000Y-84306000D01*
X162114000Y-76489437D02*
X162114000Y-75180828D01*
X161422500Y-94488000D02*
X161806751Y-94488000D01*
%TO.N,VBUS*%
X153373299Y-89186000D02*
X155670000Y-89186000D01*
X154686000Y-96139000D02*
X157988000Y-96139000D01*
X161576305Y-79652000D02*
X163314000Y-79652000D01*
X157988000Y-96139000D02*
X158226000Y-96139000D01*
X158083000Y-85122000D02*
X158083000Y-78844305D01*
X158322695Y-77507000D02*
X159431305Y-77507000D01*
X159431305Y-77507000D02*
X161576305Y-79652000D01*
X158226000Y-96139000D02*
X158993000Y-95372000D01*
X165034000Y-95438000D02*
X165100000Y-95504000D01*
X152495000Y-93948000D02*
X152495000Y-90064299D01*
X152495000Y-90064299D02*
X153373299Y-89186000D01*
X156718000Y-86487000D02*
X158083000Y-85122000D01*
X163570500Y-95438000D02*
X165034000Y-95438000D01*
X158083000Y-78844305D02*
X157861000Y-78622305D01*
X157861000Y-78622305D02*
X157861000Y-77968695D01*
X154686000Y-96139000D02*
X152495000Y-93948000D01*
X155670000Y-89186000D02*
X156718000Y-88138000D01*
X157861000Y-77968695D02*
X158322695Y-77507000D01*
X156718000Y-88138000D02*
X156718000Y-86487000D01*
%TO.N,+3V3*%
X155951000Y-95372000D02*
X153670000Y-93091000D01*
X156718000Y-95372000D02*
X155951000Y-95372000D01*
%TO.N,Net-(D1-K)*%
X160603000Y-93538000D02*
X156845000Y-89780000D01*
X161422500Y-93538000D02*
X160603000Y-93538000D01*
%TO.N,Net-(D1-A)*%
X157870000Y-91830000D02*
X158242000Y-92202000D01*
X156845000Y-91830000D02*
X157870000Y-91830000D01*
%TO.N,Net-(U2-PROG)*%
X163697500Y-93538000D02*
X163697500Y-92704500D01*
X163697500Y-92704500D02*
X163195000Y-92202000D01*
%TO.N,/EN_DIV*%
X155849000Y-92730000D02*
X157500000Y-92730000D01*
X153670000Y-90551000D02*
X155849000Y-92730000D01*
X158993000Y-93472000D02*
X158242000Y-93472000D01*
X158242000Y-93472000D02*
X157500000Y-92730000D01*
%TO.N,Net-(J2-Pin_1)*%
X159004000Y-80391000D02*
X163156999Y-84543999D01*
X163156999Y-84543999D02*
X163212998Y-84543999D01*
X163212998Y-86144001D02*
X163212998Y-88252002D01*
X159004000Y-79248000D02*
X158623000Y-78867000D01*
X163212998Y-88252002D02*
X162311000Y-89154000D01*
X163212998Y-84543999D02*
X163212998Y-86144001D01*
X158623000Y-78867000D02*
X158623000Y-78359000D01*
X159004000Y-80391000D02*
X159004000Y-79248000D01*
%TO.N,/PS_HOLD*%
X163982498Y-83083498D02*
X163982498Y-85633498D01*
X163982498Y-85633498D02*
X166370000Y-88021000D01*
X159639000Y-78740000D02*
X163982498Y-83083498D01*
%TD*%
%TA.AperFunction,Conductor*%
%TO.N,GND*%
G36*
X168218039Y-73298685D02*
G01*
X168263794Y-73351489D01*
X168275000Y-73403000D01*
X168275000Y-96904000D01*
X168255315Y-96971039D01*
X168202511Y-97016794D01*
X168151000Y-97028000D01*
X163121885Y-97028000D01*
X163054846Y-97008315D01*
X163009091Y-96955511D01*
X162999147Y-96886353D01*
X163028172Y-96822797D01*
X163038817Y-96811947D01*
X163038868Y-96811889D01*
X163038871Y-96811888D01*
X163165533Y-96671216D01*
X163260179Y-96507284D01*
X163306364Y-96365142D01*
X163319673Y-96324182D01*
X163359111Y-96266506D01*
X163423469Y-96239308D01*
X163437604Y-96238500D01*
X164148686Y-96238500D01*
X164148694Y-96238500D01*
X164185569Y-96235598D01*
X164185571Y-96235597D01*
X164185573Y-96235597D01*
X164227191Y-96223505D01*
X164343398Y-96189744D01*
X164366134Y-96176297D01*
X164433856Y-96159113D01*
X164500119Y-96181271D01*
X164502142Y-96182710D01*
X164647265Y-96288148D01*
X164647270Y-96288151D01*
X164820192Y-96365142D01*
X164820197Y-96365144D01*
X165005354Y-96404500D01*
X165005355Y-96404500D01*
X165194644Y-96404500D01*
X165194646Y-96404500D01*
X165379803Y-96365144D01*
X165552730Y-96288151D01*
X165705871Y-96176888D01*
X165832533Y-96036216D01*
X165927179Y-95872284D01*
X165985674Y-95692256D01*
X166005460Y-95504000D01*
X165985674Y-95315744D01*
X165927179Y-95135716D01*
X165832533Y-94971784D01*
X165705871Y-94831112D01*
X165705870Y-94831111D01*
X165552734Y-94719851D01*
X165552729Y-94719848D01*
X165379807Y-94642857D01*
X165379802Y-94642855D01*
X165234001Y-94611865D01*
X165194646Y-94603500D01*
X165005354Y-94603500D01*
X164972897Y-94610398D01*
X164820197Y-94642855D01*
X164820192Y-94642857D01*
X164647271Y-94719848D01*
X164602297Y-94752523D01*
X164536491Y-94776001D01*
X164468437Y-94760174D01*
X164466294Y-94758935D01*
X164343400Y-94686257D01*
X164343393Y-94686254D01*
X164185573Y-94640402D01*
X164185567Y-94640401D01*
X164148701Y-94637500D01*
X164148694Y-94637500D01*
X162992306Y-94637500D01*
X162992298Y-94637500D01*
X162955432Y-94640401D01*
X162955426Y-94640402D01*
X162797606Y-94686254D01*
X162797603Y-94686255D01*
X162656137Y-94769917D01*
X162649969Y-94774702D01*
X162648664Y-94773019D01*
X162596954Y-94801246D01*
X162527263Y-94796251D01*
X162479558Y-94764247D01*
X162455296Y-94738000D01*
X162189815Y-94738000D01*
X162126694Y-94720732D01*
X162104266Y-94707468D01*
X162068398Y-94686256D01*
X162068397Y-94686255D01*
X162068396Y-94686255D01*
X162068393Y-94686254D01*
X161910573Y-94640402D01*
X161910567Y-94640401D01*
X161873701Y-94637500D01*
X161873694Y-94637500D01*
X160717306Y-94637500D01*
X160717298Y-94637500D01*
X160680432Y-94640401D01*
X160680426Y-94640402D01*
X160522606Y-94686254D01*
X160522603Y-94686255D01*
X160464306Y-94720732D01*
X160401185Y-94738000D01*
X160207362Y-94738000D01*
X160140323Y-94718315D01*
X160119681Y-94701681D01*
X160090000Y-94672000D01*
X159887315Y-94672000D01*
X159824194Y-94654732D01*
X159765896Y-94620255D01*
X159765893Y-94620254D01*
X159608073Y-94574402D01*
X159608067Y-94574401D01*
X159571201Y-94571500D01*
X159571194Y-94571500D01*
X158414806Y-94571500D01*
X158414798Y-94571500D01*
X158377932Y-94574401D01*
X158377926Y-94574402D01*
X158220106Y-94620254D01*
X158220103Y-94620255D01*
X158161806Y-94654732D01*
X158098685Y-94672000D01*
X157833204Y-94672000D01*
X157808940Y-94698248D01*
X157748979Y-94734114D01*
X157679145Y-94731869D01*
X157639487Y-94707468D01*
X157638531Y-94708702D01*
X157632362Y-94703917D01*
X157490896Y-94620255D01*
X157490893Y-94620254D01*
X157333073Y-94574402D01*
X157333067Y-94574401D01*
X157296201Y-94571500D01*
X157296194Y-94571500D01*
X156139806Y-94571500D01*
X156139792Y-94571500D01*
X156099714Y-94574654D01*
X156031337Y-94560288D01*
X156002307Y-94538717D01*
X155923274Y-94459684D01*
X155889789Y-94398361D01*
X155894773Y-94328669D01*
X155936645Y-94272736D01*
X156002109Y-94248319D01*
X156045548Y-94252926D01*
X156102931Y-94269598D01*
X156139806Y-94272500D01*
X156139814Y-94272500D01*
X157296186Y-94272500D01*
X157296194Y-94272500D01*
X157333069Y-94269598D01*
X157333071Y-94269597D01*
X157333073Y-94269597D01*
X157406311Y-94248319D01*
X157490898Y-94223744D01*
X157632365Y-94140081D01*
X157632370Y-94140075D01*
X157638531Y-94135298D01*
X157639839Y-94136984D01*
X157691509Y-94108761D01*
X157761201Y-94113735D01*
X157808941Y-94145752D01*
X157833204Y-94172000D01*
X158098685Y-94172000D01*
X158161806Y-94189268D01*
X158220102Y-94223744D01*
X158261724Y-94235836D01*
X158377926Y-94269597D01*
X158377929Y-94269597D01*
X158377931Y-94269598D01*
X158414806Y-94272500D01*
X158414814Y-94272500D01*
X159571186Y-94272500D01*
X159571194Y-94272500D01*
X159608069Y-94269598D01*
X159608071Y-94269597D01*
X159608073Y-94269597D01*
X159681311Y-94248319D01*
X159765898Y-94223744D01*
X159824194Y-94189268D01*
X159887315Y-94172000D01*
X160081138Y-94172000D01*
X160148177Y-94191685D01*
X160168819Y-94208319D01*
X160198500Y-94238000D01*
X160401185Y-94238000D01*
X160464306Y-94255268D01*
X160522602Y-94289744D01*
X160564224Y-94301836D01*
X160680426Y-94335597D01*
X160680429Y-94335597D01*
X160680431Y-94335598D01*
X160717306Y-94338500D01*
X160717314Y-94338500D01*
X161873686Y-94338500D01*
X161873694Y-94338500D01*
X161910569Y-94335598D01*
X161910571Y-94335597D01*
X161910573Y-94335597D01*
X161952191Y-94323505D01*
X162068398Y-94289744D01*
X162126694Y-94255268D01*
X162189815Y-94238000D01*
X162455294Y-94238000D01*
X162479557Y-94211752D01*
X162539518Y-94175885D01*
X162609352Y-94178129D01*
X162649012Y-94202530D01*
X162649969Y-94201298D01*
X162656132Y-94206078D01*
X162656135Y-94206081D01*
X162797602Y-94289744D01*
X162839224Y-94301836D01*
X162955426Y-94335597D01*
X162955429Y-94335597D01*
X162955431Y-94335598D01*
X162992306Y-94338500D01*
X162992314Y-94338500D01*
X164148686Y-94338500D01*
X164148694Y-94338500D01*
X164185569Y-94335598D01*
X164185571Y-94335597D01*
X164185573Y-94335597D01*
X164227191Y-94323505D01*
X164343398Y-94289744D01*
X164484865Y-94206081D01*
X164601081Y-94089865D01*
X164684744Y-93948398D01*
X164730598Y-93790569D01*
X164733500Y-93753694D01*
X164733500Y-93322306D01*
X164730598Y-93285431D01*
X164730547Y-93285257D01*
X164696140Y-93166826D01*
X164684744Y-93127602D01*
X164601081Y-92986135D01*
X164601079Y-92986133D01*
X164601076Y-92986129D01*
X164484870Y-92869923D01*
X164484867Y-92869921D01*
X164484865Y-92869919D01*
X164438793Y-92842672D01*
X164383878Y-92810195D01*
X164336195Y-92759125D01*
X164323000Y-92703463D01*
X164323000Y-92642894D01*
X164319173Y-92623656D01*
X164298963Y-92522049D01*
X164262373Y-92433714D01*
X164258109Y-92423420D01*
X164251814Y-92408221D01*
X164251813Y-92408220D01*
X164251811Y-92408214D01*
X164239812Y-92390256D01*
X164183358Y-92305766D01*
X164183355Y-92305763D01*
X164133961Y-92256370D01*
X164100475Y-92195047D01*
X164098323Y-92181668D01*
X164080674Y-92013744D01*
X164022179Y-91833716D01*
X163927533Y-91669784D01*
X163800871Y-91529112D01*
X163800870Y-91529111D01*
X163647734Y-91417851D01*
X163647729Y-91417848D01*
X163474807Y-91340857D01*
X163474802Y-91340855D01*
X163329001Y-91309865D01*
X163289646Y-91301500D01*
X163100354Y-91301500D01*
X163067897Y-91308398D01*
X162915197Y-91340855D01*
X162915192Y-91340857D01*
X162742270Y-91417848D01*
X162742265Y-91417851D01*
X162589129Y-91529111D01*
X162462466Y-91669785D01*
X162367821Y-91833715D01*
X162367818Y-91833722D01*
X162335600Y-91932880D01*
X162309326Y-92013744D01*
X162289540Y-92202000D01*
X162309326Y-92390256D01*
X162309327Y-92390259D01*
X162367818Y-92570277D01*
X162367821Y-92570284D01*
X162462467Y-92734216D01*
X162509324Y-92786256D01*
X162539784Y-92820085D01*
X162570014Y-92883076D01*
X162561389Y-92952412D01*
X162543356Y-92978932D01*
X162544699Y-92979974D01*
X162539913Y-92986143D01*
X162539729Y-92986455D01*
X162539520Y-92986649D01*
X162535136Y-92992302D01*
X162534223Y-92991594D01*
X162488657Y-93034136D01*
X162419915Y-93046637D01*
X162355327Y-93019988D01*
X162331143Y-92992078D01*
X162330861Y-92992298D01*
X162326823Y-92987092D01*
X162326271Y-92986455D01*
X162326085Y-92986140D01*
X162326076Y-92986129D01*
X162209870Y-92869923D01*
X162209862Y-92869917D01*
X162108877Y-92810195D01*
X162068398Y-92786256D01*
X162068397Y-92786255D01*
X162068396Y-92786255D01*
X162068393Y-92786254D01*
X161910573Y-92740402D01*
X161910567Y-92740401D01*
X161873701Y-92737500D01*
X161873694Y-92737500D01*
X160738453Y-92737500D01*
X160671414Y-92717815D01*
X160650772Y-92701181D01*
X158081818Y-90132227D01*
X158048333Y-90070904D01*
X158045499Y-90044546D01*
X158045499Y-89404998D01*
X158045498Y-89404981D01*
X158034999Y-89302203D01*
X158034998Y-89302200D01*
X157997628Y-89189425D01*
X157979814Y-89135666D01*
X157887712Y-88986344D01*
X157763656Y-88862288D01*
X157758549Y-88857181D01*
X157759866Y-88855863D01*
X157725003Y-88806633D01*
X157721861Y-88736834D01*
X157736751Y-88701286D01*
X157755003Y-88671697D01*
X157808349Y-88510708D01*
X157818500Y-88411345D01*
X157818499Y-87864656D01*
X157818044Y-87860206D01*
X157808349Y-87765292D01*
X157808348Y-87765289D01*
X157781785Y-87685126D01*
X157755003Y-87604303D01*
X157754999Y-87604297D01*
X157754998Y-87604294D01*
X157665970Y-87459959D01*
X157665967Y-87459955D01*
X157546043Y-87340031D01*
X157402402Y-87251431D01*
X157355678Y-87199483D01*
X157343500Y-87145893D01*
X157343500Y-86797452D01*
X157363185Y-86730413D01*
X157379819Y-86709771D01*
X157695589Y-86394001D01*
X158168502Y-86394001D01*
X158168502Y-86687145D01*
X158174903Y-86746673D01*
X158174905Y-86746680D01*
X158225147Y-86881387D01*
X158225151Y-86881394D01*
X158311311Y-86996488D01*
X158311314Y-86996491D01*
X158426408Y-87082651D01*
X158426415Y-87082655D01*
X158561122Y-87132897D01*
X158561129Y-87132899D01*
X158620657Y-87139300D01*
X158620674Y-87139301D01*
X158863002Y-87139301D01*
X158863002Y-86394001D01*
X158168502Y-86394001D01*
X157695589Y-86394001D01*
X158159271Y-85930320D01*
X158220594Y-85896835D01*
X158246952Y-85894001D01*
X158863002Y-85894001D01*
X158863002Y-83548699D01*
X159363002Y-83548699D01*
X159363002Y-84293999D01*
X160057502Y-84293999D01*
X160057502Y-84000871D01*
X160057501Y-84000854D01*
X160051100Y-83941326D01*
X160051098Y-83941319D01*
X160000856Y-83806612D01*
X160000852Y-83806605D01*
X159914692Y-83691511D01*
X159914689Y-83691508D01*
X159799595Y-83605348D01*
X159799588Y-83605344D01*
X159664881Y-83555102D01*
X159664874Y-83555100D01*
X159605346Y-83548699D01*
X159363002Y-83548699D01*
X158863002Y-83548699D01*
X158832500Y-83548699D01*
X158765461Y-83529014D01*
X158719706Y-83476210D01*
X158708500Y-83424699D01*
X158708500Y-81401934D01*
X158728185Y-81334895D01*
X158780989Y-81289140D01*
X158850147Y-81279196D01*
X158858275Y-81280643D01*
X158909354Y-81291500D01*
X158968548Y-81291500D01*
X159035587Y-81311185D01*
X159056229Y-81327819D01*
X162231679Y-84503270D01*
X162265164Y-84564593D01*
X162267998Y-84590951D01*
X162267998Y-85087169D01*
X162267999Y-85087175D01*
X162274406Y-85146782D01*
X162324701Y-85281630D01*
X162326310Y-85284576D01*
X162327023Y-85287854D01*
X162327801Y-85289940D01*
X162327501Y-85290051D01*
X162341160Y-85352849D01*
X162326310Y-85403424D01*
X162324701Y-85406369D01*
X162274406Y-85541218D01*
X162267999Y-85600817D01*
X162267998Y-85600836D01*
X162267998Y-85873439D01*
X162248313Y-85940478D01*
X162195509Y-85986233D01*
X162129156Y-85995773D01*
X162129096Y-85996339D01*
X162126880Y-85996100D01*
X162126351Y-85996177D01*
X162124728Y-85995869D01*
X162061783Y-85989102D01*
X162061781Y-85989101D01*
X162061773Y-85989101D01*
X162061764Y-85989101D01*
X160264229Y-85989101D01*
X160264223Y-85989102D01*
X160196904Y-85996339D01*
X160196601Y-85993521D01*
X160140207Y-85990478D01*
X160083550Y-85949591D01*
X160057992Y-85884564D01*
X160057502Y-85873556D01*
X160057502Y-85600873D01*
X160057501Y-85600856D01*
X160051100Y-85541328D01*
X160051099Y-85541324D01*
X160000852Y-85406608D01*
X159999117Y-85403430D01*
X159998346Y-85399889D01*
X159997755Y-85398303D01*
X159997983Y-85398217D01*
X159984263Y-85335158D01*
X159999117Y-85284570D01*
X160000852Y-85281391D01*
X160051099Y-85146675D01*
X160051100Y-85146671D01*
X160057501Y-85087143D01*
X160057502Y-85087126D01*
X160057502Y-84793999D01*
X159363002Y-84793999D01*
X159363002Y-87139301D01*
X159605330Y-87139301D01*
X159605346Y-87139300D01*
X159664874Y-87132899D01*
X159664878Y-87132898D01*
X159675599Y-87128900D01*
X159745291Y-87123916D01*
X159806614Y-87157400D01*
X159835115Y-87201749D01*
X159868302Y-87290729D01*
X159868306Y-87290736D01*
X159954552Y-87405945D01*
X159954555Y-87405948D01*
X160069764Y-87492194D01*
X160069771Y-87492198D01*
X160204617Y-87542492D01*
X160204616Y-87542492D01*
X160211544Y-87543236D01*
X160264227Y-87548901D01*
X162061772Y-87548900D01*
X162121383Y-87542492D01*
X162256231Y-87492197D01*
X162371446Y-87405947D01*
X162371448Y-87405943D01*
X162375817Y-87401576D01*
X162437140Y-87368091D01*
X162506832Y-87373075D01*
X162562765Y-87414947D01*
X162587182Y-87480411D01*
X162587498Y-87489257D01*
X162587498Y-87679500D01*
X162567813Y-87746539D01*
X162515009Y-87792294D01*
X162463498Y-87803500D01*
X161413129Y-87803500D01*
X161413123Y-87803501D01*
X161353516Y-87809908D01*
X161218671Y-87860202D01*
X161218664Y-87860206D01*
X161103455Y-87946452D01*
X161103452Y-87946455D01*
X161017206Y-88061664D01*
X161017202Y-88061671D01*
X160967997Y-88193598D01*
X160926126Y-88249532D01*
X160860661Y-88273949D01*
X160792388Y-88259097D01*
X160764134Y-88237946D01*
X160642082Y-88115894D01*
X160448578Y-87980399D01*
X160234492Y-87880570D01*
X160234486Y-87880567D01*
X160021000Y-87823364D01*
X160021000Y-88720988D01*
X159963993Y-88688075D01*
X159836826Y-88654000D01*
X159705174Y-88654000D01*
X159578007Y-88688075D01*
X159521000Y-88720988D01*
X159521000Y-87823364D01*
X159520999Y-87823364D01*
X159307513Y-87880567D01*
X159307507Y-87880570D01*
X159093422Y-87980399D01*
X159093420Y-87980400D01*
X158899926Y-88115886D01*
X158899920Y-88115891D01*
X158732891Y-88282920D01*
X158732886Y-88282926D01*
X158597400Y-88476420D01*
X158597399Y-88476422D01*
X158497570Y-88690507D01*
X158497567Y-88690513D01*
X158440364Y-88903999D01*
X158440364Y-88904000D01*
X159337988Y-88904000D01*
X159305075Y-88961007D01*
X159271000Y-89088174D01*
X159271000Y-89219826D01*
X159305075Y-89346993D01*
X159337988Y-89404000D01*
X158440364Y-89404000D01*
X158497567Y-89617486D01*
X158497570Y-89617492D01*
X158597399Y-89831578D01*
X158732894Y-90025082D01*
X158899917Y-90192105D01*
X159093421Y-90327600D01*
X159307507Y-90427429D01*
X159307516Y-90427433D01*
X159521000Y-90484634D01*
X159521000Y-89587012D01*
X159578007Y-89619925D01*
X159705174Y-89654000D01*
X159836826Y-89654000D01*
X159963993Y-89619925D01*
X160021000Y-89587012D01*
X160021000Y-90484633D01*
X160234483Y-90427433D01*
X160234492Y-90427429D01*
X160448578Y-90327600D01*
X160642078Y-90192108D01*
X160764133Y-90070053D01*
X160825456Y-90036568D01*
X160895148Y-90041552D01*
X160951082Y-90083423D01*
X160967997Y-90114401D01*
X161017202Y-90246328D01*
X161017206Y-90246335D01*
X161103452Y-90361544D01*
X161103455Y-90361547D01*
X161218664Y-90447793D01*
X161218671Y-90447797D01*
X161353517Y-90498091D01*
X161353516Y-90498091D01*
X161360444Y-90498835D01*
X161413127Y-90504500D01*
X163208872Y-90504499D01*
X163268483Y-90498091D01*
X163403331Y-90447796D01*
X163518546Y-90361546D01*
X163604796Y-90246331D01*
X163655091Y-90111483D01*
X163661500Y-90051873D01*
X163661499Y-88739453D01*
X163681184Y-88672415D01*
X163697826Y-88651765D01*
X163697853Y-88651737D01*
X163698856Y-88650735D01*
X163767309Y-88548288D01*
X163767310Y-88548287D01*
X163767311Y-88548284D01*
X163767313Y-88548281D01*
X163767314Y-88548279D01*
X163814458Y-88434461D01*
X163814458Y-88434459D01*
X163814461Y-88434453D01*
X163814495Y-88434285D01*
X163827364Y-88369586D01*
X163837138Y-88320450D01*
X163837139Y-88320450D01*
X163837139Y-88320440D01*
X163838498Y-88313609D01*
X163838498Y-88190395D01*
X163838498Y-87190159D01*
X163858183Y-87123120D01*
X163893851Y-87089911D01*
X163892729Y-87088413D01*
X163973864Y-87027674D01*
X164015044Y-86996847D01*
X164101294Y-86881632D01*
X164101295Y-86881627D01*
X164105545Y-86873847D01*
X164107338Y-86874826D01*
X164142212Y-86828229D01*
X164207674Y-86803804D01*
X164275948Y-86818647D01*
X164304216Y-86839806D01*
X165029762Y-87565352D01*
X165063247Y-87626675D01*
X165061856Y-87685126D01*
X165034938Y-87785586D01*
X165034936Y-87785596D01*
X165014341Y-88020999D01*
X165014341Y-88021000D01*
X165034936Y-88256403D01*
X165034938Y-88256413D01*
X165096094Y-88484655D01*
X165096096Y-88484659D01*
X165096097Y-88484663D01*
X165190950Y-88688075D01*
X165195965Y-88698830D01*
X165195967Y-88698834D01*
X165331501Y-88892395D01*
X165331506Y-88892402D01*
X165498597Y-89059493D01*
X165498603Y-89059498D01*
X165684158Y-89189425D01*
X165727783Y-89244002D01*
X165734977Y-89313500D01*
X165703454Y-89375855D01*
X165684158Y-89392575D01*
X165498597Y-89522505D01*
X165331505Y-89689597D01*
X165195965Y-89883169D01*
X165195964Y-89883171D01*
X165096098Y-90097335D01*
X165096094Y-90097344D01*
X165034938Y-90325586D01*
X165034936Y-90325596D01*
X165014341Y-90560999D01*
X165014341Y-90561000D01*
X165034936Y-90796403D01*
X165034938Y-90796413D01*
X165096094Y-91024655D01*
X165096096Y-91024659D01*
X165096097Y-91024663D01*
X165101544Y-91036344D01*
X165195965Y-91238830D01*
X165195967Y-91238834D01*
X165275350Y-91352204D01*
X165328965Y-91428774D01*
X165331501Y-91432395D01*
X165331506Y-91432402D01*
X165498597Y-91599493D01*
X165498603Y-91599498D01*
X165684594Y-91729730D01*
X165728219Y-91784307D01*
X165735413Y-91853805D01*
X165703890Y-91916160D01*
X165684595Y-91932880D01*
X165498922Y-92062890D01*
X165498920Y-92062891D01*
X165331891Y-92229920D01*
X165331886Y-92229926D01*
X165196400Y-92423420D01*
X165196399Y-92423422D01*
X165096570Y-92637507D01*
X165096567Y-92637513D01*
X165039364Y-92850999D01*
X165039364Y-92851000D01*
X165936988Y-92851000D01*
X165904075Y-92908007D01*
X165870000Y-93035174D01*
X165870000Y-93166826D01*
X165904075Y-93293993D01*
X165936988Y-93351000D01*
X165039364Y-93351000D01*
X165096567Y-93564486D01*
X165096570Y-93564492D01*
X165196399Y-93778578D01*
X165331894Y-93972082D01*
X165498917Y-94139105D01*
X165692421Y-94274600D01*
X165906507Y-94374429D01*
X165906516Y-94374433D01*
X166120000Y-94431634D01*
X166120000Y-93534012D01*
X166177007Y-93566925D01*
X166304174Y-93601000D01*
X166435826Y-93601000D01*
X166562993Y-93566925D01*
X166620000Y-93534012D01*
X166620000Y-94431633D01*
X166833483Y-94374433D01*
X166833492Y-94374429D01*
X167047578Y-94274600D01*
X167241082Y-94139105D01*
X167408105Y-93972082D01*
X167543600Y-93778578D01*
X167643429Y-93564492D01*
X167643432Y-93564486D01*
X167700636Y-93351000D01*
X166803012Y-93351000D01*
X166835925Y-93293993D01*
X166870000Y-93166826D01*
X166870000Y-93035174D01*
X166835925Y-92908007D01*
X166803012Y-92851000D01*
X167700636Y-92851000D01*
X167700635Y-92850999D01*
X167643432Y-92637513D01*
X167643429Y-92637507D01*
X167543600Y-92423422D01*
X167543599Y-92423420D01*
X167408113Y-92229926D01*
X167408108Y-92229920D01*
X167241078Y-92062890D01*
X167055405Y-91932879D01*
X167011780Y-91878302D01*
X167004588Y-91808804D01*
X167036110Y-91746449D01*
X167055406Y-91729730D01*
X167241401Y-91599495D01*
X167408495Y-91432401D01*
X167544035Y-91238830D01*
X167643903Y-91024663D01*
X167705063Y-90796408D01*
X167725659Y-90561000D01*
X167705063Y-90325592D01*
X167643903Y-90097337D01*
X167544035Y-89883171D01*
X167507910Y-89831578D01*
X167408494Y-89689597D01*
X167241402Y-89522506D01*
X167241396Y-89522501D01*
X167055842Y-89392575D01*
X167012217Y-89337998D01*
X167005023Y-89268500D01*
X167036546Y-89206145D01*
X167055842Y-89189425D01*
X167132615Y-89135668D01*
X167241401Y-89059495D01*
X167408495Y-88892401D01*
X167544035Y-88698830D01*
X167643903Y-88484663D01*
X167705063Y-88256408D01*
X167725659Y-88021000D01*
X167705063Y-87785592D01*
X167643903Y-87557337D01*
X167544035Y-87343171D01*
X167541836Y-87340031D01*
X167408496Y-87149600D01*
X167348807Y-87089911D01*
X167286567Y-87027671D01*
X167253084Y-86966351D01*
X167258068Y-86896659D01*
X167299939Y-86840725D01*
X167330915Y-86823810D01*
X167462331Y-86774796D01*
X167577546Y-86688546D01*
X167663796Y-86573331D01*
X167714091Y-86438483D01*
X167720500Y-86378873D01*
X167720499Y-84583128D01*
X167714091Y-84523517D01*
X167710361Y-84513517D01*
X167663797Y-84388671D01*
X167663793Y-84388664D01*
X167577547Y-84273455D01*
X167577544Y-84273452D01*
X167462335Y-84187206D01*
X167462328Y-84187202D01*
X167327482Y-84136908D01*
X167327483Y-84136908D01*
X167267883Y-84130501D01*
X167267881Y-84130500D01*
X167267873Y-84130500D01*
X167267864Y-84130500D01*
X165472129Y-84130500D01*
X165472123Y-84130501D01*
X165412516Y-84136908D01*
X165277671Y-84187202D01*
X165277664Y-84187206D01*
X165162455Y-84273452D01*
X165162452Y-84273455D01*
X165076206Y-84388664D01*
X165076202Y-84388671D01*
X165025908Y-84523517D01*
X165020575Y-84573127D01*
X165019501Y-84583123D01*
X165019500Y-84583135D01*
X165019500Y-85486547D01*
X164999815Y-85553586D01*
X164947011Y-85599341D01*
X164877853Y-85609285D01*
X164814297Y-85580260D01*
X164807819Y-85574228D01*
X164644317Y-85410726D01*
X164610832Y-85349403D01*
X164607998Y-85323045D01*
X164607998Y-83324554D01*
X164627683Y-83257515D01*
X164680487Y-83211760D01*
X164749645Y-83201816D01*
X164813201Y-83230841D01*
X164819679Y-83236873D01*
X164834404Y-83251598D01*
X164853399Y-83269593D01*
X164873863Y-83287960D01*
X164873875Y-83287970D01*
X164893875Y-83304970D01*
X164915115Y-83322068D01*
X164922623Y-83327788D01*
X164936110Y-83338065D01*
X164962326Y-83356763D01*
X164974926Y-83365162D01*
X164983326Y-83370762D01*
X165001067Y-83382068D01*
X165014867Y-83390468D01*
X165024073Y-83396072D01*
X165037198Y-83403772D01*
X165038305Y-83404422D01*
X165061305Y-83417422D01*
X165092242Y-83433540D01*
X165115242Y-83444540D01*
X165139154Y-83455231D01*
X165163154Y-83465231D01*
X165186584Y-83474323D01*
X165211584Y-83483323D01*
X165246854Y-83494593D01*
X165271854Y-83501593D01*
X165294709Y-83507427D01*
X165320709Y-83513427D01*
X165320751Y-83513436D01*
X165335358Y-83516581D01*
X165335382Y-83516585D01*
X165335383Y-83516586D01*
X165360383Y-83521586D01*
X165401984Y-83528135D01*
X165427984Y-83531135D01*
X165447346Y-83532996D01*
X165473346Y-83534996D01*
X165492880Y-83536123D01*
X165492885Y-83536123D01*
X165492899Y-83536124D01*
X165508042Y-83536706D01*
X165518880Y-83537123D01*
X165536254Y-83537456D01*
X165538496Y-83537500D01*
X165538500Y-83537500D01*
X166439504Y-83537500D01*
X166441683Y-83537458D01*
X166459120Y-83537123D01*
X166472120Y-83536623D01*
X166485100Y-83536124D01*
X166485111Y-83536123D01*
X166485120Y-83536123D01*
X166504654Y-83534996D01*
X166530654Y-83532996D01*
X166550016Y-83531135D01*
X166576016Y-83528135D01*
X166617617Y-83521586D01*
X166642617Y-83516586D01*
X166642630Y-83516583D01*
X166642641Y-83516581D01*
X166648387Y-83515343D01*
X166657291Y-83513427D01*
X166683291Y-83507427D01*
X166706146Y-83501593D01*
X166731146Y-83494593D01*
X166766416Y-83483323D01*
X166791416Y-83474323D01*
X166814846Y-83465231D01*
X166838846Y-83455231D01*
X166862758Y-83444540D01*
X166885758Y-83433540D01*
X166908643Y-83421879D01*
X166932643Y-83408879D01*
X166963575Y-83390689D01*
X166985575Y-83376689D01*
X166994674Y-83370762D01*
X167015674Y-83356762D01*
X167041885Y-83338068D01*
X167062885Y-83322068D01*
X167084125Y-83304970D01*
X167104125Y-83287970D01*
X167124594Y-83269599D01*
X167143594Y-83251599D01*
X167163099Y-83232094D01*
X167181099Y-83213094D01*
X167199470Y-83192625D01*
X167216470Y-83172625D01*
X167233568Y-83151385D01*
X167249568Y-83130385D01*
X167265289Y-83108583D01*
X167280289Y-83086583D01*
X167289189Y-83073075D01*
X167303189Y-83051075D01*
X167325102Y-83013140D01*
X167337102Y-82990140D01*
X167348578Y-82966702D01*
X167359578Y-82942702D01*
X167362094Y-82936947D01*
X167366712Y-82926391D01*
X167366731Y-82926346D01*
X167376731Y-82902346D01*
X167383496Y-82885249D01*
X167392496Y-82861249D01*
X167407447Y-82814716D01*
X167413644Y-82791699D01*
X167413974Y-82790498D01*
X167414894Y-82787213D01*
X167420093Y-82768646D01*
X167433064Y-82708625D01*
X167441064Y-82656625D01*
X167445496Y-82618154D01*
X167447496Y-82592154D01*
X167448623Y-82572620D01*
X167449623Y-82546620D01*
X167450000Y-82527000D01*
X167450000Y-80952000D01*
X167444804Y-80879348D01*
X167403867Y-80739931D01*
X167401528Y-80736292D01*
X167400310Y-80732144D01*
X167400181Y-80731860D01*
X167400221Y-80731841D01*
X167381844Y-80669254D01*
X167389660Y-80625925D01*
X167433091Y-80509483D01*
X167439500Y-80449873D01*
X167439499Y-78554128D01*
X167433091Y-78494517D01*
X167396096Y-78395330D01*
X167391113Y-78325642D01*
X167396092Y-78308680D01*
X167433091Y-78209483D01*
X167439500Y-78149873D01*
X167439499Y-76254128D01*
X167433091Y-76194517D01*
X167407908Y-76126999D01*
X167389662Y-76078078D01*
X167384678Y-76008387D01*
X167401533Y-75967700D01*
X167403867Y-75964069D01*
X167444804Y-75824652D01*
X167444804Y-75808244D01*
X167449487Y-75792293D01*
X167449500Y-75752162D01*
X167450000Y-74177162D01*
X167449623Y-74157380D01*
X167449622Y-74157371D01*
X167449622Y-74157336D01*
X167448624Y-74131394D01*
X167447498Y-74111875D01*
X167447496Y-74111843D01*
X167445496Y-74085846D01*
X167441064Y-74047375D01*
X167433064Y-73995375D01*
X167420093Y-73935354D01*
X167413925Y-73913326D01*
X167413657Y-73912350D01*
X167407447Y-73889284D01*
X167392496Y-73842751D01*
X167383496Y-73818751D01*
X167376731Y-73801654D01*
X167366731Y-73777654D01*
X167366712Y-73777608D01*
X167359596Y-73761339D01*
X167359594Y-73761335D01*
X167359578Y-73761298D01*
X167348578Y-73737298D01*
X167337102Y-73713860D01*
X167325102Y-73690860D01*
X167303189Y-73652925D01*
X167303183Y-73652915D01*
X167289205Y-73630949D01*
X167280285Y-73617411D01*
X167278144Y-73614271D01*
X167265289Y-73595417D01*
X167249568Y-73573615D01*
X167233568Y-73552615D01*
X167216470Y-73531375D01*
X167199470Y-73511375D01*
X167199460Y-73511363D01*
X167181094Y-73490899D01*
X167178612Y-73488280D01*
X167146796Y-73426075D01*
X167153661Y-73356543D01*
X167197029Y-73301761D01*
X167263129Y-73279122D01*
X167268630Y-73279000D01*
X168151000Y-73279000D01*
X168218039Y-73298685D01*
G37*
%TD.AperFunction*%
%TA.AperFunction,Conductor*%
G36*
X158523311Y-73298685D02*
G01*
X158569066Y-73351489D01*
X158579010Y-73420647D01*
X158549985Y-73484203D01*
X158543953Y-73490681D01*
X158515289Y-73519344D01*
X158515286Y-73519348D01*
X158423187Y-73668662D01*
X158423186Y-73668664D01*
X158368001Y-73835203D01*
X158368000Y-73835204D01*
X158357500Y-73937984D01*
X158357500Y-76760558D01*
X158337815Y-76827597D01*
X158285011Y-76873352D01*
X158257691Y-76882175D01*
X158200666Y-76893518D01*
X158157438Y-76902116D01*
X158140241Y-76905537D01*
X158026411Y-76952687D01*
X157953359Y-77001500D01*
X157953358Y-77001501D01*
X157923958Y-77021144D01*
X157923957Y-77021145D01*
X157462269Y-77482835D01*
X157375144Y-77569959D01*
X157375138Y-77569967D01*
X157306690Y-77672403D01*
X157306688Y-77672408D01*
X157259540Y-77786233D01*
X157259535Y-77786249D01*
X157235769Y-77905735D01*
X157235761Y-77905776D01*
X157235500Y-77907085D01*
X157235500Y-78683916D01*
X157238685Y-78699928D01*
X157238685Y-78699930D01*
X157238686Y-78699930D01*
X157256464Y-78789310D01*
X157250235Y-78858901D01*
X157207372Y-78914078D01*
X157141482Y-78937322D01*
X157134847Y-78937500D01*
X156957999Y-78937500D01*
X156957980Y-78937501D01*
X156855203Y-78948000D01*
X156855200Y-78948001D01*
X156688668Y-79003185D01*
X156688663Y-79003187D01*
X156539342Y-79095289D01*
X156415288Y-79219343D01*
X156415285Y-79219347D01*
X156363244Y-79303719D01*
X156311296Y-79350444D01*
X156242334Y-79361665D01*
X156178252Y-79333822D01*
X156152167Y-79303719D01*
X156100315Y-79219654D01*
X155976345Y-79095684D01*
X155827124Y-79003643D01*
X155827119Y-79003641D01*
X155660697Y-78948494D01*
X155660690Y-78948493D01*
X155557986Y-78938000D01*
X155508000Y-78938000D01*
X155508000Y-83437999D01*
X155557972Y-83437999D01*
X155557986Y-83437998D01*
X155660697Y-83427505D01*
X155827119Y-83372358D01*
X155827126Y-83372355D01*
X155903402Y-83325307D01*
X155970795Y-83306866D01*
X156037458Y-83327788D01*
X156082228Y-83381430D01*
X156092500Y-83430845D01*
X156092500Y-83845893D01*
X156072815Y-83912932D01*
X156033598Y-83951431D01*
X155889956Y-84040031D01*
X155770032Y-84159955D01*
X155770029Y-84159959D01*
X155681001Y-84304294D01*
X155680996Y-84304305D01*
X155627651Y-84465290D01*
X155617500Y-84564647D01*
X155617500Y-85002547D01*
X155597815Y-85069586D01*
X155581181Y-85090228D01*
X155232180Y-85439229D01*
X155170857Y-85472714D01*
X155101165Y-85467730D01*
X155045232Y-85425858D01*
X155020815Y-85360394D01*
X155020499Y-85351548D01*
X155020499Y-84573129D01*
X155020498Y-84573123D01*
X155020497Y-84573116D01*
X155014091Y-84513517D01*
X154996104Y-84465292D01*
X154963797Y-84378671D01*
X154963793Y-84378664D01*
X154877547Y-84263455D01*
X154877544Y-84263452D01*
X154762335Y-84177206D01*
X154762328Y-84177202D01*
X154627482Y-84126908D01*
X154627483Y-84126908D01*
X154567883Y-84120501D01*
X154567881Y-84120500D01*
X154567873Y-84120500D01*
X154567864Y-84120500D01*
X152772129Y-84120500D01*
X152772123Y-84120501D01*
X152712516Y-84126908D01*
X152577671Y-84177202D01*
X152577664Y-84177206D01*
X152462455Y-84263452D01*
X152462452Y-84263455D01*
X152376206Y-84378664D01*
X152376202Y-84378671D01*
X152325908Y-84513517D01*
X152320411Y-84564655D01*
X152319501Y-84573123D01*
X152319500Y-84573135D01*
X152319500Y-86368870D01*
X152319501Y-86368876D01*
X152325908Y-86428483D01*
X152376202Y-86563327D01*
X152376203Y-86563328D01*
X152376204Y-86563331D01*
X152395369Y-86588932D01*
X152419786Y-86654393D01*
X152404935Y-86722667D01*
X152383783Y-86750923D01*
X151976681Y-87158026D01*
X151915358Y-87191511D01*
X151845667Y-87186527D01*
X151789733Y-87144656D01*
X151765316Y-87079191D01*
X151765000Y-87070345D01*
X151765000Y-81438000D01*
X154258001Y-81438000D01*
X154258001Y-82737986D01*
X154268494Y-82840697D01*
X154323641Y-83007119D01*
X154323643Y-83007124D01*
X154415684Y-83156345D01*
X154539654Y-83280315D01*
X154688875Y-83372356D01*
X154688880Y-83372358D01*
X154855302Y-83427505D01*
X154855309Y-83427506D01*
X154958019Y-83437999D01*
X155007999Y-83437998D01*
X155008000Y-83437998D01*
X155008000Y-81438000D01*
X154258001Y-81438000D01*
X151765000Y-81438000D01*
X151765000Y-80938000D01*
X154258000Y-80938000D01*
X155008000Y-80938000D01*
X155008000Y-78938000D01*
X155007999Y-78937999D01*
X154958029Y-78938000D01*
X154958011Y-78938001D01*
X154855302Y-78948494D01*
X154688880Y-79003641D01*
X154688875Y-79003643D01*
X154539654Y-79095684D01*
X154415684Y-79219654D01*
X154323643Y-79368875D01*
X154323641Y-79368880D01*
X154268494Y-79535302D01*
X154268493Y-79535309D01*
X154258000Y-79638013D01*
X154258000Y-80938000D01*
X151765000Y-80938000D01*
X151765000Y-77595348D01*
X151784685Y-77528309D01*
X151837489Y-77482554D01*
X151906647Y-77472610D01*
X151954094Y-77489808D01*
X152088666Y-77572814D01*
X152255203Y-77627999D01*
X152357992Y-77638500D01*
X152357997Y-77638500D01*
X153458003Y-77638500D01*
X153458008Y-77638500D01*
X153560797Y-77627999D01*
X153727334Y-77572814D01*
X153876655Y-77480711D01*
X154000711Y-77356655D01*
X154092814Y-77207334D01*
X154147999Y-77040797D01*
X154158500Y-76938008D01*
X154158500Y-73937992D01*
X154147999Y-73835203D01*
X154092814Y-73668666D01*
X154061199Y-73617411D01*
X154000713Y-73519348D01*
X154000710Y-73519344D01*
X153972047Y-73490681D01*
X153938562Y-73429358D01*
X153943546Y-73359666D01*
X153985418Y-73303733D01*
X154050882Y-73279316D01*
X154059728Y-73279000D01*
X158456272Y-73279000D01*
X158523311Y-73298685D01*
G37*
%TD.AperFunction*%
%TA.AperFunction,Conductor*%
G36*
X164473925Y-80204737D02*
G01*
X164523331Y-80254141D01*
X164538500Y-80313569D01*
X164538500Y-80449870D01*
X164538501Y-80449876D01*
X164544908Y-80509483D01*
X164590199Y-80630913D01*
X164595183Y-80700605D01*
X164586828Y-80725721D01*
X164549133Y-80808329D01*
X164549133Y-80808330D01*
X164549133Y-80808331D01*
X164528524Y-80952000D01*
X164528500Y-80952165D01*
X164528974Y-82445983D01*
X164509311Y-82513028D01*
X164456521Y-82558800D01*
X164387366Y-82568765D01*
X164323801Y-82539761D01*
X164317293Y-82533703D01*
X163473946Y-81690356D01*
X163440461Y-81629033D01*
X163445445Y-81559341D01*
X163487317Y-81503408D01*
X163503167Y-81493321D01*
X163575450Y-81454685D01*
X163735410Y-81323410D01*
X163866685Y-81163450D01*
X163964232Y-80980954D01*
X164024300Y-80782934D01*
X164044583Y-80577000D01*
X164033840Y-80467926D01*
X164046859Y-80399281D01*
X164094924Y-80348571D01*
X164113910Y-80339591D01*
X164231328Y-80295797D01*
X164231327Y-80295797D01*
X164231331Y-80295796D01*
X164340192Y-80214302D01*
X164405652Y-80189886D01*
X164473925Y-80204737D01*
G37*
%TD.AperFunction*%
%TA.AperFunction,Conductor*%
G36*
X164776409Y-73298685D02*
G01*
X164822164Y-73351489D01*
X164832108Y-73420647D01*
X164803083Y-73484203D01*
X164799388Y-73488280D01*
X164796905Y-73490899D01*
X164778539Y-73511363D01*
X164761526Y-73531380D01*
X164744434Y-73552611D01*
X164728437Y-73573608D01*
X164712701Y-73595431D01*
X164697714Y-73617411D01*
X164688794Y-73630949D01*
X164674816Y-73652915D01*
X164652895Y-73690863D01*
X164640900Y-73713854D01*
X164629427Y-73737286D01*
X164618403Y-73761339D01*
X164611287Y-73777608D01*
X164601264Y-73801667D01*
X164594505Y-73818747D01*
X164585500Y-73842760D01*
X164585497Y-73842770D01*
X164570552Y-73889285D01*
X164564385Y-73912193D01*
X164564057Y-73913390D01*
X164557905Y-73935359D01*
X164544941Y-73995351D01*
X164544936Y-73995375D01*
X164544935Y-73995383D01*
X164536934Y-74047386D01*
X164532506Y-74085827D01*
X164532504Y-74085846D01*
X164531104Y-74104038D01*
X164530504Y-74111843D01*
X164529000Y-74151010D01*
X164529000Y-75752002D01*
X164534195Y-75824652D01*
X164559986Y-75912485D01*
X164575133Y-75964069D01*
X164575135Y-75964072D01*
X164576842Y-75966728D01*
X164577730Y-75969754D01*
X164578818Y-75972136D01*
X164578475Y-75972292D01*
X164596522Y-76033769D01*
X164588704Y-76077093D01*
X164544909Y-76194514D01*
X164544908Y-76194516D01*
X164540386Y-76236585D01*
X164538501Y-76254123D01*
X164538500Y-76254135D01*
X164538500Y-76391053D01*
X164518815Y-76458092D01*
X164466011Y-76503847D01*
X164396853Y-76513791D01*
X164340189Y-76490319D01*
X164231093Y-76408649D01*
X164231088Y-76408646D01*
X164113858Y-76364922D01*
X164057925Y-76323050D01*
X164033508Y-76257586D01*
X164033788Y-76236592D01*
X164044583Y-76127000D01*
X164024300Y-75921066D01*
X163964232Y-75723046D01*
X163866685Y-75540550D01*
X163814702Y-75477209D01*
X163735410Y-75380589D01*
X163575452Y-75249317D01*
X163575453Y-75249317D01*
X163575450Y-75249315D01*
X163392954Y-75151768D01*
X163194934Y-75091700D01*
X163194932Y-75091699D01*
X163194934Y-75091699D01*
X162989000Y-75071417D01*
X162783067Y-75091699D01*
X162585043Y-75151769D01*
X162474898Y-75210643D01*
X162402550Y-75249315D01*
X162402548Y-75249316D01*
X162402547Y-75249317D01*
X162242589Y-75380589D01*
X162111317Y-75540547D01*
X162013769Y-75723043D01*
X161953699Y-75921067D01*
X161933417Y-76127000D01*
X161953699Y-76332932D01*
X161953700Y-76332934D01*
X162005545Y-76503847D01*
X162013769Y-76530956D01*
X162111316Y-76713451D01*
X162111417Y-76713574D01*
X162111451Y-76713654D01*
X162114702Y-76718520D01*
X162113779Y-76719136D01*
X162138733Y-76777882D01*
X162138837Y-76800828D01*
X162139178Y-76800847D01*
X162139000Y-76804172D01*
X162139000Y-76852000D01*
X162172134Y-76852000D01*
X162239173Y-76871685D01*
X162250799Y-76880147D01*
X162311588Y-76930035D01*
X162350922Y-76987780D01*
X162352793Y-77057625D01*
X162316606Y-77117393D01*
X162307241Y-77125149D01*
X162281454Y-77144454D01*
X162238141Y-77202312D01*
X162182209Y-77244182D01*
X162139027Y-77251972D01*
X162139000Y-77252000D01*
X162139000Y-77299844D01*
X162145619Y-77361398D01*
X162145620Y-77387909D01*
X162144909Y-77394514D01*
X162144909Y-77394517D01*
X162138500Y-77454127D01*
X162138500Y-77454134D01*
X162138500Y-77454135D01*
X162138500Y-77949870D01*
X162138501Y-77949879D01*
X162145367Y-78013751D01*
X162145367Y-78040257D01*
X162144909Y-78044516D01*
X162144909Y-78044517D01*
X162138500Y-78104127D01*
X162138500Y-78104132D01*
X162138500Y-78104133D01*
X162138500Y-78599870D01*
X162138501Y-78599879D01*
X162145367Y-78663751D01*
X162145367Y-78690257D01*
X162144909Y-78694516D01*
X162144909Y-78694517D01*
X162138500Y-78754127D01*
X162138500Y-78858901D01*
X162138501Y-78902499D01*
X162118817Y-78969539D01*
X162066013Y-79015294D01*
X162014501Y-79026500D01*
X161886757Y-79026500D01*
X161819718Y-79006815D01*
X161799076Y-78990181D01*
X160510005Y-77701110D01*
X160476520Y-77639787D01*
X160481504Y-77570095D01*
X160523376Y-77514162D01*
X160532577Y-77507898D01*
X160576655Y-77480711D01*
X160700711Y-77356655D01*
X160792814Y-77207334D01*
X160847999Y-77040797D01*
X160858500Y-76938008D01*
X160858500Y-73937992D01*
X160847999Y-73835203D01*
X160792814Y-73668666D01*
X160761199Y-73617411D01*
X160700713Y-73519348D01*
X160700710Y-73519344D01*
X160672047Y-73490681D01*
X160638562Y-73429358D01*
X160643546Y-73359666D01*
X160685418Y-73303733D01*
X160750882Y-73279316D01*
X160759728Y-73279000D01*
X164709370Y-73279000D01*
X164776409Y-73298685D01*
G37*
%TD.AperFunction*%
%TD*%
M02*
