%TF.GenerationSoftware,KiCad,Pcbnew,8.0.1*%
%TF.CreationDate,2024-04-23T06:28:50-07:00*%
%TF.ProjectId,OnOffController,4f6e4f66-6643-46f6-9e74-726f6c6c6572,rev?*%
%TF.SameCoordinates,Original*%
%TF.FileFunction,Paste,Top*%
%TF.FilePolarity,Positive*%
%FSLAX46Y46*%
G04 Gerber Fmt 4.6, Leading zero omitted, Abs format (unit mm)*
G04 Created by KiCad (PCBNEW 8.0.1) date 2024-04-23 06:28:50*
%MOMM*%
%LPD*%
G01*
G04 APERTURE LIST*
G04 Aperture macros list*
%AMRoundRect*
0 Rectangle with rounded corners*
0 $1 Rounding radius*
0 $2 $3 $4 $5 $6 $7 $8 $9 X,Y pos of 4 corners*
0 Add a 4 corners polygon primitive as box body*
4,1,4,$2,$3,$4,$5,$6,$7,$8,$9,$2,$3,0*
0 Add four circle primitives for the rounded corners*
1,1,$1+$1,$2,$3*
1,1,$1+$1,$4,$5*
1,1,$1+$1,$6,$7*
1,1,$1+$1,$8,$9*
0 Add four rect primitives between the rounded corners*
20,1,$1+$1,$2,$3,$4,$5,0*
20,1,$1+$1,$4,$5,$6,$7,0*
20,1,$1+$1,$6,$7,$8,$9,0*
20,1,$1+$1,$8,$9,$2,$3,0*%
G04 Aperture macros list end*
%ADD10C,0.010000*%
%ADD11RoundRect,0.250000X-0.450000X0.325000X-0.450000X-0.325000X0.450000X-0.325000X0.450000X0.325000X0*%
%ADD12RoundRect,0.150000X-0.512500X-0.150000X0.512500X-0.150000X0.512500X0.150000X-0.512500X0.150000X0*%
%ADD13RoundRect,0.250000X0.250000X1.500000X-0.250000X1.500000X-0.250000X-1.500000X0.250000X-1.500000X0*%
%ADD14RoundRect,0.250001X0.499999X1.449999X-0.499999X1.449999X-0.499999X-1.449999X0.499999X-1.449999X0*%
%ADD15RoundRect,0.150000X0.512500X0.150000X-0.512500X0.150000X-0.512500X-0.150000X0.512500X-0.150000X0*%
%ADD16R,1.350000X0.400000*%
%ADD17R,1.900000X1.800000*%
%ADD18R,0.889000X0.990600*%
%ADD19R,1.701800X0.558800*%
%ADD20RoundRect,0.225000X0.375000X-0.225000X0.375000X0.225000X-0.375000X0.225000X-0.375000X-0.225000X0*%
G04 APERTURE END LIST*
D10*
%TO.C,J8*%
X166939500Y-82527000D02*
X166938500Y-82553000D01*
X166936500Y-82579000D01*
X166932500Y-82605000D01*
X166928500Y-82631000D01*
X166921500Y-82656000D01*
X166914500Y-82682000D01*
X166905500Y-82706000D01*
X166895500Y-82730000D01*
X166884500Y-82754000D01*
X166872500Y-82777000D01*
X166858500Y-82799000D01*
X166843500Y-82821000D01*
X166827500Y-82842000D01*
X166810500Y-82862000D01*
X166792500Y-82881000D01*
X166773500Y-82899000D01*
X166753500Y-82916000D01*
X166732500Y-82932000D01*
X166711500Y-82946000D01*
X166689500Y-82960000D01*
X166665500Y-82973000D01*
X166642500Y-82984000D01*
X166618500Y-82994000D01*
X166593500Y-83003000D01*
X166568500Y-83010000D01*
X166542500Y-83016000D01*
X166517500Y-83021000D01*
X166491500Y-83024000D01*
X166465500Y-83026000D01*
X166439500Y-83027000D01*
X165538500Y-83027000D01*
X165512500Y-83026000D01*
X165486500Y-83024000D01*
X165460500Y-83021000D01*
X165435500Y-83016000D01*
X165409500Y-83010000D01*
X165384500Y-83003000D01*
X165359500Y-82994000D01*
X165335500Y-82984000D01*
X165312500Y-82973000D01*
X165289500Y-82960000D01*
X165266500Y-82946000D01*
X165245500Y-82932000D01*
X165224500Y-82916000D01*
X165204500Y-82899000D01*
X165185500Y-82881000D01*
X165167500Y-82862000D01*
X165150500Y-82842000D01*
X165134500Y-82821000D01*
X165119500Y-82799000D01*
X165105500Y-82777000D01*
X165093500Y-82754000D01*
X165082500Y-82730000D01*
X165072500Y-82706000D01*
X165063500Y-82682000D01*
X165056500Y-82656000D01*
X165049500Y-82631000D01*
X165045500Y-82605000D01*
X165041500Y-82579000D01*
X165039500Y-82553000D01*
X165039500Y-82527000D01*
X165039000Y-80952000D01*
X165039500Y-80952000D01*
X166939500Y-80952000D01*
X166939500Y-82527000D01*
G36*
X166939500Y-82527000D02*
G01*
X166938500Y-82553000D01*
X166936500Y-82579000D01*
X166932500Y-82605000D01*
X166928500Y-82631000D01*
X166921500Y-82656000D01*
X166914500Y-82682000D01*
X166905500Y-82706000D01*
X166895500Y-82730000D01*
X166884500Y-82754000D01*
X166872500Y-82777000D01*
X166858500Y-82799000D01*
X166843500Y-82821000D01*
X166827500Y-82842000D01*
X166810500Y-82862000D01*
X166792500Y-82881000D01*
X166773500Y-82899000D01*
X166753500Y-82916000D01*
X166732500Y-82932000D01*
X166711500Y-82946000D01*
X166689500Y-82960000D01*
X166665500Y-82973000D01*
X166642500Y-82984000D01*
X166618500Y-82994000D01*
X166593500Y-83003000D01*
X166568500Y-83010000D01*
X166542500Y-83016000D01*
X166517500Y-83021000D01*
X166491500Y-83024000D01*
X166465500Y-83026000D01*
X166439500Y-83027000D01*
X165538500Y-83027000D01*
X165512500Y-83026000D01*
X165486500Y-83024000D01*
X165460500Y-83021000D01*
X165435500Y-83016000D01*
X165409500Y-83010000D01*
X165384500Y-83003000D01*
X165359500Y-82994000D01*
X165335500Y-82984000D01*
X165312500Y-82973000D01*
X165289500Y-82960000D01*
X165266500Y-82946000D01*
X165245500Y-82932000D01*
X165224500Y-82916000D01*
X165204500Y-82899000D01*
X165185500Y-82881000D01*
X165167500Y-82862000D01*
X165150500Y-82842000D01*
X165134500Y-82821000D01*
X165119500Y-82799000D01*
X165105500Y-82777000D01*
X165093500Y-82754000D01*
X165082500Y-82730000D01*
X165072500Y-82706000D01*
X165063500Y-82682000D01*
X165056500Y-82656000D01*
X165049500Y-82631000D01*
X165045500Y-82605000D01*
X165041500Y-82579000D01*
X165039500Y-82553000D01*
X165039500Y-82527000D01*
X165039000Y-80952000D01*
X165039500Y-80952000D01*
X166939500Y-80952000D01*
X166939500Y-82527000D01*
G37*
X166465500Y-73678000D02*
X166491500Y-73680000D01*
X166517500Y-73683000D01*
X166542500Y-73688000D01*
X166568500Y-73694000D01*
X166593500Y-73701000D01*
X166618500Y-73710000D01*
X166642500Y-73720000D01*
X166665500Y-73731000D01*
X166689500Y-73744000D01*
X166711500Y-73758000D01*
X166732500Y-73772000D01*
X166753500Y-73788000D01*
X166773500Y-73805000D01*
X166792500Y-73823000D01*
X166810500Y-73842000D01*
X166827500Y-73862000D01*
X166843500Y-73883000D01*
X166858500Y-73905000D01*
X166872500Y-73927000D01*
X166884500Y-73950000D01*
X166895500Y-73974000D01*
X166905500Y-73998000D01*
X166914500Y-74022000D01*
X166921500Y-74048000D01*
X166928500Y-74073000D01*
X166932500Y-74099000D01*
X166936500Y-74125000D01*
X166938500Y-74151000D01*
X166939500Y-74177000D01*
X166939000Y-75752000D01*
X165039500Y-75752000D01*
X165039500Y-74177000D01*
X165039500Y-74151000D01*
X165041500Y-74125000D01*
X165045500Y-74099000D01*
X165049500Y-74073000D01*
X165056500Y-74048000D01*
X165063500Y-74022000D01*
X165072500Y-73998000D01*
X165082500Y-73974000D01*
X165093500Y-73950000D01*
X165105500Y-73927000D01*
X165119500Y-73905000D01*
X165134500Y-73883000D01*
X165150500Y-73862000D01*
X165167500Y-73842000D01*
X165185500Y-73823000D01*
X165204500Y-73805000D01*
X165224500Y-73788000D01*
X165245500Y-73772000D01*
X165266500Y-73758000D01*
X165289500Y-73744000D01*
X165312500Y-73731000D01*
X165335500Y-73720000D01*
X165359500Y-73710000D01*
X165384500Y-73701000D01*
X165409500Y-73694000D01*
X165435500Y-73688000D01*
X165460500Y-73683000D01*
X165486500Y-73680000D01*
X165512500Y-73678000D01*
X165538500Y-73677000D01*
X166439500Y-73677000D01*
X166465500Y-73678000D01*
G36*
X166465500Y-73678000D02*
G01*
X166491500Y-73680000D01*
X166517500Y-73683000D01*
X166542500Y-73688000D01*
X166568500Y-73694000D01*
X166593500Y-73701000D01*
X166618500Y-73710000D01*
X166642500Y-73720000D01*
X166665500Y-73731000D01*
X166689500Y-73744000D01*
X166711500Y-73758000D01*
X166732500Y-73772000D01*
X166753500Y-73788000D01*
X166773500Y-73805000D01*
X166792500Y-73823000D01*
X166810500Y-73842000D01*
X166827500Y-73862000D01*
X166843500Y-73883000D01*
X166858500Y-73905000D01*
X166872500Y-73927000D01*
X166884500Y-73950000D01*
X166895500Y-73974000D01*
X166905500Y-73998000D01*
X166914500Y-74022000D01*
X166921500Y-74048000D01*
X166928500Y-74073000D01*
X166932500Y-74099000D01*
X166936500Y-74125000D01*
X166938500Y-74151000D01*
X166939500Y-74177000D01*
X166939000Y-75752000D01*
X165039500Y-75752000D01*
X165039500Y-74177000D01*
X165039500Y-74151000D01*
X165041500Y-74125000D01*
X165045500Y-74099000D01*
X165049500Y-74073000D01*
X165056500Y-74048000D01*
X165063500Y-74022000D01*
X165072500Y-73998000D01*
X165082500Y-73974000D01*
X165093500Y-73950000D01*
X165105500Y-73927000D01*
X165119500Y-73905000D01*
X165134500Y-73883000D01*
X165150500Y-73862000D01*
X165167500Y-73842000D01*
X165185500Y-73823000D01*
X165204500Y-73805000D01*
X165224500Y-73788000D01*
X165245500Y-73772000D01*
X165266500Y-73758000D01*
X165289500Y-73744000D01*
X165312500Y-73731000D01*
X165335500Y-73720000D01*
X165359500Y-73710000D01*
X165384500Y-73701000D01*
X165409500Y-73694000D01*
X165435500Y-73688000D01*
X165460500Y-73683000D01*
X165486500Y-73680000D01*
X165512500Y-73678000D01*
X165538500Y-73677000D01*
X166439500Y-73677000D01*
X166465500Y-73678000D01*
G37*
%TD*%
D11*
%TO.C,D1*%
X156845000Y-89780000D03*
X156845000Y-91830000D03*
%TD*%
D12*
%TO.C,U2*%
X161295500Y-93538000D03*
X161295500Y-94488000D03*
X161295500Y-95438000D03*
X163570500Y-95438000D03*
X163570500Y-93538000D03*
%TD*%
D13*
%TO.C,J1*%
X157258000Y-81188000D03*
X155258000Y-81188000D03*
D14*
X159608000Y-75438000D03*
X152908000Y-75438000D03*
%TD*%
D15*
%TO.C,U3*%
X158993000Y-95372000D03*
X158993000Y-94422000D03*
X158993000Y-93472000D03*
X156718000Y-93472000D03*
X156718000Y-95372000D03*
%TD*%
D16*
%TO.C,J8*%
X163314000Y-79652000D03*
X163314000Y-79002000D03*
X163314000Y-78352000D03*
X163314000Y-77702000D03*
X163314000Y-77052000D03*
D17*
X165989000Y-79502000D03*
X165989000Y-77202000D03*
%TD*%
D18*
%TO.C,SW1*%
X159113002Y-84543999D03*
X163212998Y-84543999D03*
X159113002Y-86144001D03*
X163212998Y-86144001D03*
D19*
X161163000Y-86769001D03*
%TD*%
D20*
%TO.C,D2*%
X156718000Y-88138000D03*
X156718000Y-84838000D03*
%TD*%
M02*
